<svg width="440" height="199" viewBox="0 0 440 199" xmlns="http://www.w3.org/2000/svg"><title>etta-logo</title><g fill="#00615D"><path opacity=".1" d="M271.8 155L282.1 145 288 164.5 307.2 170.5 300.7 177.8 281.8 193.1 285.2 173.3z"/><path opacity=".1" d="M157 175L169.7 154.9 160 144.3 154.2 164.5 134.2 170.1 145.9 182.7 160.5 193.1z"/><g transform="translate(167 65)" opacity=".1"><path d="M37.7 10.2C31.2 3.7 24.5.3 17.9.3c-.6 0-1.2 0-1.7.1C10.3.9 5.7 3.9 3 6.4L1.8 7.6c-.4.4-.9 1-1.5 1.6 2.8-2.3 7.1-4.8 12.4-5.3.6 0 1.2-.1 1.7-.1 6.6 0 13.2 3.3 19.8 9.9 5.4 5.4 10.6 12 8.9 20L24.3 52.5l22.3-22.3c1.7-8-3.5-14.6-8.9-20z"/><path d="M113.6 22.1c-.5-5.9-3.5-10.5-6-13.2l-1.2-1.2C104 5.3 98.9 1.2 91.9.6c-7.1-.6-14.4 2.7-21.5 9.8-.6.6-1.1 1.2-1.7 1.7C75.3 6 82 3.2 88.7 3.8c7 .6 12.1 4.7 14.5 7.1l1.2 1.2c2.4 2.8 5.5 7.3 6 13.2.6 6.6-2.2 13.3-8.3 19.9.6-.5 1.1-1 1.7-1.6 7.1-7.1 10.4-14.4 9.8-21.5z"/></g><path d="M188.2 118.2v-.3h-.2c0 .2.1.3.2.3z"/><path d="M212.9 122.9l1.6-1.6h-.1l-.4.1.2-.3.2-.2c.1-.1.2-.2.2-.4v-.3l.2.1.2.2 3.9-3.9-2.2-2.2c-.9-.9-1.5-1.7-1.9-2.6-.1 0-.3-.1-.4-.1h-.1v-.1c0-.1.1-.2.2-.2-2.4-6.7 7-13.6 2.7-25.7h-.1v.1c-.1 0-.2 0-.3-.1-.1-.1-.1-.1-.1-.2s0-.2.3-.2c-.6-1.7-1.6-3.5-2.8-5.5h-.7v-.2c0-.2.2-.3.4-.3-1.4-2-3.1-4.2-5.3-6.4-.2.2-.5.3-.9.3-.1 0-.2 0-.3-.1h-.1V73c0-.1 0-.2.1-.3.1-.1.2-.1.3-.1H208.3v-.1l-.6-.6c-1-1-1.9-1.9-2.9-2.7v.2h-.5c-.5 0-.8-.2-1-.5 0-.2.2-.2.2-.2.1 0 .1 0 .2.1 0 0 0 .1.1.1.2 0 .2 0 .3-.2-.3-.2-.5-.4-.8-.6h-.4l.2-.2c-3.3-2.6-6.6-4.4-9.7-5.5-.1.1-.1.1-.2.1s-.1 0-.2-.1V62.7l-.1.2-.2-.2c0-.1-.1-.1-.2-.1-.2-.1-.6-.2-.4-.6h-.1c0 .2-.1.3-.3.3v-.1c-.1 0-.2 0-.3-.2l.2-.2c-3.1-.9-6.1-1.1-8.9-.8-.1.2-.3.3-.6.3h-.4v-.2c-2.8.3-5.4 1.2-7.7 2.2 0 .3-.4.3-.6.3h-.1c-1.7.8-3.2 1.8-4.6 2.9.1.1.2.2.2.3l.1.1h.1v.1c-.1.3-.2.4-.3.4-.1 0-.3-.1-.3-.2-.1-.1-.1-.3-.1-.5-1.2.9-2.2 1.8-3.1 2.7-1.6 1.6-3.3 3.6-4.7 6l.1-.1c.2-.1.7-.2.8-.2.1 0 .6 0 .8.2v.4c-.1.1-.2.1-.3.1-.3 0-.6-.1-1-.2-.1-.1-.3-.1-.4-.1h-.2c-1 1.6-1.8 3.4-2.5 5.3 0 0 .1 0 .1.1.1.1.2.1.4.1h.2v.2c0 .2-.2.3-.3.3-.2 0-.3-.1-.3-.2h-.1c-.2.6-.4 1.3-.5 1.9v.2c0 .1-.1.1-.1.2-.4 1.9-.6 3.9-.6 6 .2 0 .4-.1.7-.2h.1l.1.1v.1c0 .1-.5.5-.9.6.3 4.8 1.9 10 5.8 15.5.2-.2.6-.2.7-.2h.5v.1c.1.2.1.4 0 .5-.1.1-.3.2-.4.2h-.3-.1c1.4 1.9 3 3.8 5 5.7 14 14 22.8 11.1 29.7 8.4-.2 0-.5-.1-.8-.3-.1-.1 0-.2 0-.2.1-.1.2-.1.3-.1.2 0 1 .1 1.3.4 1.7-.7 3.3-1.3 4.8-1.6.1-.1.3-.2.5-.2h.1v.1c.4 0 .7-.1 1.1-.1 0-.1.1-.1.2-.1s.1 0 .2.1l.1.1h.2c1.6.2 3.2.9 4.8 2.5.9.3 1.7 1 2.5 1.9zm4.5-30.9h.3v.1h.4c-.1.2-.3.2-.4.2v.1c-.2 0-.4-.1-.4-.3-.1 0-.1-.1.1-.1zm-5.2 20.9c-.1.1-.3.2-.4.2-.1 0-.2 0-.3-.3 0-.2.2-.3.3-.3.2 0 .3.1.3.3l.1.1zm1.2 3.7c-.2.3-.7.5-.8.5-.1 0-.1-.1-.2-.1 0-.1 0-.2.6-.5l.1-.1c.2-.1.2-.1.3-.1h.1v.1s-.1.1-.1.2zm.4-4.7c-.1.2-.2.5-.4.5-.1 0-.2-.1-.4-.2-.1-.1-.2-.1-.2-.1s-.1 0-.1.1l-.1.1-.1-.1c-.2-.1-.2-.2-.1-.3.1-.2.4-.3.7-.3.2 0 .5 0 .7.2v.1zm0 1.8v.2c0 .3-.4.3-.6.3h-.4v-.2c0-.3.4-.3.6-.3h.4zm.9 5.8c-.1.1-.3.2-.4.2-.1 0-.2-.1-.2-.1 0-.1.1-.2.2-.3.3-.2.4-.2.4-.2h.1v.1c0 .1 0 .2-.1.3zm.8-3.8h.3l-.2.2c-.3.3-.8.4-1.3.4h-.5l.1-.2c.2-.5.8-.5 1.3-.5 0 .1.1.1.3.1zm-1.5-3.6c0-.2.2-.3.3-.3.2 0 .3.1.3.3 0 .1-.1.2-.2.2s-.1 0-.2-.1l-.1-.1h-.1zm-1.5-32.6c0-.1.1-.3.2-.3s.1 0 .2.1l.1.1h.2v.1s0 .1-.1.1c.2 0 .4.1.4.3 0 .1 0 .4-.9.6h-.2v-.2c.1-.3.2-.4.3-.5-.1 0-.2-.1-.2-.3zm-1.4.9c0-.2.2-.3.3-.3.2 0 .3.1.3.3v.1h-.1c-.1.1-.3.2-.4.2.1 0 0 0-.1-.3zm-5-6.8c.5-.2.7 0 .8.2.1.2.2.2.4.2h.2v.2c0 .2-.2.3-.4.3-.3 0-.6-.1-.8-.4-.2-.2-.3-.4-.2-.5zm-1.4-.3c.2.1.4.2.5.2.2 0 .3-.1.4-.2l.2-.1v.7c-.1.1-.2.1-.4 0h-.1V74.2h-.1-.1c-.4 0-.6-.2-.8-.4l-.2-.2-.1-.1.1-.1c.1-.3.4-.2.6-.1zm-1.3-1.7c0-.3.4-.3.6-.3h.4v.2c0 .3-.4.3-.6.3h-.4v-.2zm-6.9-5.9c.1-.1.2-.1.4-.1s.4.1.5.2c0 .1.1.2 0 .4v.1h-.7v-.2-.1h-.2v-.1c-.1-.1-.1-.2 0-.2zm-1.9 1.3c0-.2.1-.4.5-.4h.9l.2-.1v.2c0 .3-.3.4-.4.4-.2.1-.3.1-.2.2v.3l-.2-.1-.2-.2c-.1-.2-.2-.2-.4-.2h-.2V67zm-6.8-5.6c.1-.1.2-.1.4-.1v.1h.4c-.1.2-.3.2-.4.2v.1c-.2 0-.4-.1-.4-.3-.1.1-.1.1 0 0zm-6.6 2.2h.3c-.1-.1-.1-.2 0-.3.1-.1.3-.2.4-.2h.6l-.2.2c-.2.2-.2.7-.2 1.2v.6l-.3-.6c-.1-.1-.1-.2-.3-.2-.2-.1-.4-.3-.4-.7h.1zm-4.4-.2v-.5h.1c.4-.1.9-.1 1.2-.1.7 0 1.2.2 1.7.6l.3.2h-.4s-.1 0-.1.1c-.1.1-.1.2-.1.2s0-.1-.1-.1l.1.2c-.1.1-.3.2-.4.2h-.4.4v.1c-.1.2-.2.5-.4.5-.1 0-.2-.1-.3-.2-.1-.1-.3-.2-.5-.2h-.3l.2-.2c.2-.2.4-.3.6-.4.2-.1.4-.2.5-.3h-.1c-.2 0-.4.1-.6.2h-.1s-.1.1-.2 0h-.1v-.1c0-.1-.3-.3-.3-.3v.4h-.1c-.3 0-.4-.1-.5-.1 0 0-.1 0-.1-.1 0 .2-.3.3-.4.3-.2 0-.2.1-.2.1v.2h-.1c-.2 0-.2-.2-.2-.3.1-.1.6-.5.9-.4zm-1.8 1.7h.1c.3-.1.5 0 .7.1.1.1.1.3.1.4v.1h-.9v-.6zm-.9.3c.2 0 .5.2.5.3 0 .1 0 .1-.1.2s-.1.1-.3.1v-.1c-.1 0-.3 0-.6-.1.1-.1.3-.2.4-.2v-.2h.1zm-.4 1.3l.1.1c0 .1 0 .2-.2.3-.1.1-.3.2-.4.2-.1 0-.2-.1-.2-.1 0-.1.1-.2.2-.3.4-.2.5-.2.5-.2zm-1.5-1.7c.2-.1.3-.1.4-.1.3 0 .4.2.6.3.1.1.2.2.3.2h.1v.2s-.1.1-.4.1c-.3 0-.7-.1-.9-.3-.1-.1-.2-.3-.1-.4zm.7 3.8c0 .1-.1.3-.2.3s-.1 0-.2-.1l-.1-.1h-.2v-.1c0-.2.2-.3.3-.3.2-.1.4.1.4.3zm-2.5-.9c0-.2.2-.3.3-.3.2 0 .3.1.3.3 0 .1-.1.2-.2.2s-.1 0-.2-.1l-.1-.1h-.2.1zm-.5 1.4h.1v.9H169.7c-.2 0-.3-.2-.4-.3-.1-.1-.1-.2-.2-.2h-.1v-.1c0-.3.4-.3.6-.3h.3zm-1.1-1.4c0-.1.1-.1.1-.2v-.1h.1c.4 0 .5.3.5.5 0 .3-.3.6-.7.6h-.2v-.1c0-.4.1-.6.2-.7zm-.6 3.3h.1v-.1h.1l.1.1v.1c0 .1-.4.5-.5.5v-.2c0-.1.2-.3.2-.4zm-.9 1.1c0-.3.4-.3.6-.3h.4v.2c0 .3-.4.3-.6.3h-.4v-.2zm-2.6-.1h.7v.7h-.7v-.7zm-.4 2.3c0-.3.4-.3.6-.3h.4v.2c0 .3-.4.3-.6.3h-.4v-.2zm.6 2.1v.7h-.7v-.7h.7zm-2.2-2.4V74c0-.1 0-.2.1-.3.1-.1.2-.1.3-.1h.7l.2-.1v.2c0 .1 0 .2-.1.3-.1.1-.2.1-.3.1h-.7l-.2.1zm-1.5 3.1c0 .1-.1.3-.3.4-.1 0-.1.1-.2.1-.2 0-.3-.1-.3-.2s0-.2.2-.3H160.9c.1-.2.2-.1.3 0zm-.7-.6h.1v-.1h.1l.1.1v.1c0 .1-.4.5-.5.5v-.2c0-.1.2-.3.2-.4zm-.9 2.7c.1-.1.1-.1.2-.1v.1c.1 0 .2 0 .3.2-.2.2-.3.2-.4.2v.1c-.2 0-.3-.1-.3-.3l.2-.2zm-1.6 4.7h-.4v-.2c0-.3.4-.3.6-.3h.4v.2c-.1.2-.4.3-.6.3zm.5 7v-.2c.1 0 .3-.2.3-.3h.1v-.1h.1l.1.1v.1c-.1.1-.4.4-.6.4zm1.2 5.9c0 .1-.2.2-.3.2-.1 0-.3-.1-.3-.2s-.1-.3.2-.6l.1-.1.1.1c.2.2.2.4.2.6zm-.5-15v-.3l.2.2c.1.1.3.1.5.1.3 0 .6 0 .7.2.1.1.1.2.1.4v.2l-.1-.1c-.2-.1-.3-.1-.5-.1h-.4c-.3.1-.4-.1-.5-.6zm.9 13.3c-.2 0-.3-.1-.3-.3 0-.1 0-.2.1-.3.1-.1.1-.1.2-.1v.1c.1 0 .2 0 .3.2-.2.2-.3.2-.4.2v.2h.1zm.4-11.4h.1c.1 0 .8.3.8.5v.2c-.1.1-.1.1-.2.1-.2 0-.3-.2-.4-.3-.3-.3-.4-.3-.3-.5zm1.4 17.2c0 .1-.2.2-.3.2-.1 0-.3-.1-.3-.2s-.1-.3.2-.6l.1-.1.1.1c.2.3.2.5.2.6zm0-3.9c-.1.5-.4.9-.9.9-.2 0-.3-.1-.5-.2l-.1-.1v-.1c.2-.5.7-.7 1.2-.7h.2l.1.2zm1.1 4.8c-.1 0-.3-.1-.4-.2h-.1v-.6h.1c.4 0 .7.3.7.5s-.2.3-.3.3zm10.7 11.7c0 .1-.1.2-.2.2s-.1 0-.2-.1l-.1-.1h-.2v-.1c0-.2.2-.3.3-.3.3.1.4.2.4.4zm2.8 2.3c-.1 0-.3 0-.3-.2v-.2c.2-.3.3-.3.4-.3.2 0 .3.2.4.4-.1.1-.2.3-.5.3zm19 4.7c0 .3-.4.3-.6.3h-.4v-.2c0-.3.4-.3.6-.3h.4v.2zm-.3-2.3v.1c-.2 0-.4-.3-.4-.5 0-.3.2-.4.4-.4v.1c.1 0 .2 0 .4.1-.1.5-.3.6-.4.6zm1.7-1.6s-.1 0-.1-.1c-.1-.1-.1-.3-.1-.4 0-.2.1-.3.2-.3 0 0 .1 0 .1.1.1.1.1.3.1.4 0 .3-.1.3-.2.3zm1.9-4.4c0 .3-.4.3-.6.3h-.4v-.2c0-.3.4-.3.6-.3h.4v.2zm1.7 5.6h-.1l-.2.1h-.2v-.1c0-.1 0-.1.1-.1h.1l.2-.1.2-.1v.1l-.1.2zm-.1-9.2c0-.2.2-.3.3-.3.2 0 .3.1.3.3v.1h-.1c-.1.1-.3.2-.4.2 0 0-.1 0-.1-.3zm.3 9.1l-.2-.2v.1-.1.1-.1.1l.2.1c.1 0 0 0 0 0zm.5-3.9c-.1.1-.3.2-.4.2-.1 0-.2-.1-.2-.1 0-.1.1-.2.2-.3.3-.2.4-.2.4-.2h.1v.1c.1.1 0 .2-.1.3zm0-4.3v.2l.1.2-.2-.1c-.1 0-.2-.1-.2-.1-.1-.1-.1-.1-.2-.1h-.1v-.7h.2c.1 0 .2 0 .3-.1.1-.1.3-.2.5-.1h.1v.1c.1.2.1.3 0 .4-.1.1-.2.2-.3.2-.1 0-.2 0-.2.1zm1.2 1.4l-.1.1v-.1h-.1s-.1-.1-.2-.1c-.2 0-.5-.1-.4-.2h.1v-.1c.2 0 .7.2.7.4zm-.3-1.7c.2-.1.3-.2.4-.2.3 0 .4.2.4.3.1.2.1.2.3.2l.2-.1-.1.2c-.1.2-.2.3-.5.3s-.6-.1-.7-.4v-.3zm1.4 2.1c0 .2-.2.3-.3.3-.2 0-.3-.1-.3-.3 0-.1.1-.2.2-.2s.1 0 .2.1l.1.1h.2-.1zm.3-.4l-.3-.1.3-.2c.2-.1.4-.2.6-.2.2 0 .4.1.7.2.2.1.4.2.7.2h.2l-.1.2c-.1.2-.3.3-.6.3s-.7-.1-1-.3c-.2 0-.4 0-.5-.1zm1.6 3.1c-.1.1-.3.2-.4.2-.1 0-.2-.1-.2-.1 0-.1.1-.2.2-.3.3-.2.4-.2.4-.2h.1v.1c.1.1 0 .2-.1.3zm.7-.5h-.2c-.1 0-.3-.1-.5-.1-.1 0-.4 0-.4-.2s.4-.3.6-.3c.2 0 .3.1.3.1s.1.1 0 .2c.2.1.2.2.2.3zm.9-2c0 .1-.1.2-.3.3h.2l-.2.2c-.1.1-.2.2-.3.2-.1 0-.2-.1-.2-.2-.1-.2.1-.7.4-.8h.2c.1 0 .2.2.2.3zm.4-8.6c0 .1-.1.3-.3.3-.1 0-.2-.1-.3-.1-.2-.1-.4-.2-.5-.1l-.2.1v-.5l-8.4 8.4h.3c.2 0 .3 0 .4.1 0 .1-.1.2-.2.2 0 .1 0 .2-.3.2-.2 0-.3-.2-.3-.2-.1 0-.1 0-.2-.1l-6 6c-1.1.2-2.1.3-3.2.3v.3h.4l-.4.2v.1-.1c-.2.1-.4.1-.7.2-.2.1-.4.1-.6.2h-.1v-.1c-.2-.6.1-.8.3-.9-2.4-.2-4.8-1-7.4-2.5v.1c0 .2-.1.4-.2.4v-.1c-.1 0-.2-.1-.3-.4l.1-.1c-2.5-1.5-5.1-3.6-7.9-6.5-5-5-8.1-10.1-9.3-15.2h-.2c-.2 0-.5 0-.8.1l-.3.1.2-.3c.2-.2.4-.4.6-.5.1 0 .2-.1.2-.1v-.1l-.1.1c-.1.1-.3.2-.4.2H161v-.1c.1-.5.4-.6.5-.6.1 0 .2 0 .4.1-.1-.3-.1-.7-.2-1l-.1.1h-.1c-.1 0-.2-.1-.2-.2 0-.2.1-.4.3-.5h.2v-.1c-.1-1.2-.1-2.3 0-3.5.2-1.8.5-3.4 1.1-4.9V82c0-.1 0-.1.1-.1h.1c.1-.3.2-.5.3-.8-.1 0-.2-.1-.2-.1-.1-.1-.2-.1-.3-.2l-.1-.1.1-.1c.6-.5.6-.6.6-.7h-.6v-.1c0-.1 0-.3.1-.3.1-.1.3-.2.5-.2.1 0 .3 0 .3-.1V79l-.1-.2.2.1c.2.1.4.2.5.3 1-1.9 2.1-3.5 3.2-4.7-.1-.1-.3-.1-.4-.1-.1 0-.2 0-.2.4v.2l-.2-.1c-.3-.2-.6-.3-1-.2h-.3l.1-.2c.1-.2.3-.3.5-.3.3-.1.5-.2.4-.7l-.1-.2h.2c.5.1.7.3 1 .5.1.1.2.2.3.2.5-.5.9-1 1.3-1.4l1.2-1.2c2.3-2 5.8-4.4 10.3-5.5h-.1c-.2 0-.5-.1-.4-.2h.1v-.1c.2 0 .5.2.6.3.9-.2 1.8-.3 2.7-.4.6 0 1.2-.1 1.7-.1 5.1 0 10.2 2 15.2 5.8v-.1h.7v.7c.1.1.2.1.3.2H202.4l-.1.2-.3.3 2.4 2.1c.1-.1.3-.1.5-.1h.4v.2c0 .3-.3.3-.5.3l.4.4c5.4 5.4 10.6 12 8.9 20l-7 7c.2.1.3.3.3.4.1.2.1.3.4.3h.2-.6zm1.3 11.7c0-.2.1-.3.3-.4.1 0 .2-.1.2-.2 0 0-.1 0-.2-.1h-.1v-.1c.1-.2.2-.3.3-.3.2 0 .4.2.6.4l.2.2h.1v.1c0 .2-.2.2-.2.2-.1 0-.1 0-.2-.1l-.1-.1c-.2 0-.4.1-.4.4v.1h-.1c-.2.2-.4.1-.4-.1zm1.3 2.9c-.2.3-.4.4-.7.4-.2 0-.3-.1-.3-.2 0-.2.3-.4.8-.4h.3l-.1.2zm-.1-5.6v.1c-.1 0-.3 0-.4-.1 0 0-.1-.1-.1-.2s.1-.2.4-.2v.1h.4c.1.3-.1.3-.3.3zm.3-8.9c-.1 0-.4 0-.4-.2s.4-.3.6-.3c.2 0 .3.1.3.1s.1.1 0 .2c.2.1.2.2.2.2v.1h-.1-.1c-.2 0-.4-.1-.5-.1zm22.1 32.2l-.2-.2c-.1-.2-.2-.2-.4-.2h-.2v-.2c0-.2.3-.3.4-.3.2 0 .2-.1.2-.1v-.2s-.1-.1-.1-.2.1-.2.4-.2v.1h.4c-.1.2-.3.2-.4.2v.1h-.1c.2.2.2.5.1.7.7-.9.9-1.8.8-2.6 0 0-.1 0-.1-.1-.2-.1-.4-.2-.6-.1l-.3.1.1-.3c.1-.3.3-.3.5-.3.1 0 .2 0 .3.1-.3-1.1-1.2-2-1.9-2.6l-2.2-2.2-2.2 2.2.2.1c.1.1.3.2.2.4 0 .1-.2.2-.4.2h-.2v.1h-.2c-.2 0-.2-.2-.2-.2l-2 2v.1c0 .2-.2.3-.4.3l-.9.9 2.2 2.2c.3.3.6.6 1 .9h.7v.2c0 .1-.1.2-.2.3 1.3.9 3 1.3 5.1-.8.4-.1.5-.3.6-.4zm.2-2.4c.1-.1.2-.1.4-.1v.1h.4c-.1.2-.3.2-.4.2v.1c-.2 0-.4-.1-.4-.3-.1.1-.1 0 0 0zm-6.2.7c0-.2.2-.3.3-.3.2 0 .3.1.3.3 0 .1-.1.2-.2.2s-.1 0-.2-.1l-.1-.1h-.2.1zm1.5 3c-.1.1-.3.2-.4.2-.1 0-.2 0-.3-.3 0-.2.2-.3.3-.3.2 0 .3.1.3.3l.1.1zm.3-2.2v.1c0 .3-.4.3-.6.3h-.4v-.2c0-.2.2-.3.3-.3h-.2c-.5.2-.7.2-1.2 0h-.1v-.1c.1-.2.2-.3.4-.3.1 0 .2.1.4.1.1 0 .2.1.2.1s.1 0 .1-.1v-.1h1c.4 0 .5.2.5.4v.1h-.4zm.8-.7v.1c-.1 0-.2 0-.3-.1-.1-.1-.1-.2-.1-.3 0-.1.1-.3.4-.3v.1c.1 0 .3 0 .5.1-.2.4-.4.4-.5.4zm2-.7c-.1.1-.2.1-.3.1-.2 0-.4-.2-.5-.3-.5-.2-.6-.2-.5-.3v-.1h.1s1.2.3 1.3.5l-.1.1zm.3-2.1s-.1.1-.3.1v-.1c-.1 0-.3 0-.5-.1.2-.2.4-.2.5-.2v-.1c.2 0 .4.2.4.3l-.1.1zm-.1-.2h.1-.1z"/><path d="M264.5 66.7L264.4 66.7z"/><path d="M280.7 89.8c-.1 0-.1 0 0 0-.1 0 0 0 0 0zm4-.7v.5l-.1.1c-.2 0-.2-.2-.3-.4v.3c0 .2 0 .4-.1.5-.1.1-.2.1-.3.1h-.2l-.3-.1.3-.1.1-.1s-.2-.1-.3-.1v-.1h-.1v-.1l.3-.3.1-.1c0-.2 0-.2-.1-.3-.1-.1-.3-.3-.3-.7v-.1H283.7c.1 0 .1-.1.1-.1v-.1h.1c.3 0 .2.2.2.2v.1c.1.1.2.1.3.2.3.2.5.3.7.2 0-.9-.1-1.7-.2-2.5-.3.1-.6.1-.8.1h-.6l.3-.2c.2-.2.5-.2.8-.3.1 0 .2 0 .3-.1-.5-3.4-1.7-6.5-3.2-9.2-.1 0-.2.1-.3.1l-.1.1-.1-.1c-.2-.1-.2-.2-.2-.3 0 .1-.1.2-.1.2h.2v.1c0 .1 0 .2-.1.2 0 0-.1.1-.2.1-.2 0-.5-.1-.6-.3-.1-.1-.1-.3 0-.4V76h.9c0-.1.2-.2.3-.3-.3-.6-.7-1.1-1.1-1.7-.2.1-.5.1-.7.1v.1c-.1 0-.1 0-.2-.1V74c0-.2.3-.4.7-.5-.2-.2-.3-.5-.5-.7v.5h-.7v-.7h.5l-.1-.1c-.1 0-.1-.1-.2-.1-.1-.1-.2-.2-.2-.3-.7-.9-1.5-1.7-2.2-2.5-.5-.5-1-.9-1.5-1.4h-1.1l.1-.2c.1-.1.2-.3.3-.4-.9-.7-1.8-1.4-2.8-2h-.8l-.2.1v-.2c0-.1 0-.2.1-.3 0-.1.1-.1.2-.1-3.1-1.9-6.7-3.3-10.7-3.8-.1 0-.1.1-.2.1-.2.2-.2.2-.3.2h-.1v-.1c0-.1 0-.1.1-.3-6.9-.7-15 1.4-23.6 9.2 0 0-.1 0-.1.1-.4.4-.8.7-1.2 1.1.3.2.6.4.6.9v.1h-.1-.1c-.5 0-.6-.4-.6-.7-.1.1-.3.2-.4.4l-.6.6c.1 0 .1.1.2.1.1.1.1.1.2.1h.1v.7H233.9c-.2 0-.4-.1-.5-.1-.1-.1-.2-.1-.3.1l-.1.1-.1-.1c-7.2 7.7-9.3 13.8-9.2 18.8h.1l.1.1h.2v.1c0 .2-.2.3-.3.3.2 4.2 1.8 7.7 3 10.8h.1v.1c1.5 3.9 2.3 7.3-1.2 10.8l-4.1 4.1c0 .1 0 .2.1.2v.2h-.2c-.1 0-.2-.1-.2-.1L211 129.5c-1.3 1.3-3.5 3.5-.5 6.6.3.3.5.5.8.7.2-.3.6-.5 1.1-.5h.1v.4c-.1.1-.3.2-.4.2-.1 0-.2 0-.2.1h.2v.1c0 .1 0 .1-.1.2 2.3 1.1 4-.6 5.1-1.6l12-12s-.1 0-.1-.1h-.2v-.1c0-.1 0-.3.2-.3.1 0 .2.1.2.1l.1.1 2.4-2.4c.7-.7 1.4-1.2 2-1.6.1-.1.2-.1.3-.1 2.8-1.4 5.7-.6 8.9.7l-.1-.1c0-.1.1-.2.2-.2s.1 0 .2.1l.1.1h.2v.1c0 .1-.1.2-.3.3 1.1.4 2.3.9 3.5 1.3h.1v-.1h.1v.2c2.8.9 5.9 1.6 9.4 1.1v-.2c.1-.1.4-.2.5-.2.2 0 .4.1.5.2 2.3-.4 4.8-1.3 7.6-3 0-.2.3-.5.6-.5h.2c.1-.1.2-.1.3-.2h-.2v-.1c0-.3 0-.5.1-.6.2-.2.5-.3.9-.2h.2l-.2.3s0 .1-.1.1c.7-.5 1.4-1 2.1-1.6h-.2c-.2 0-.4 0-.7.1l-.2.1v-.2c0-.3 0-.5.2-.6.1-.1.2-.1.3-.1.3 0 .7.2 1 .4l.1.1c1.5-1.2 3.1-2.6 4.7-4.2 8.3-8.3 11.2-16.1 11.2-23-.2-.5-.4-.4-.5-.3zm-69.6 38.8s.1-.1.2-.1v.1c.1 0 .3 0 .6.2-.1.1-.2.1-.3.1v.1c-.3 0-.5-.2-.5-.4-.1.1 0 .1 0 0zm-3.2 1.7c-.1 0-.3 0-.3-.2v-.2c.2-.3.3-.3.4-.3.2 0 .3.2.4.4 0 .1-.1.3-.5.3zm1.7 6.8c-.2 0-.3-.1-.4-.2 0-.2.2-.4.4-.5h.2c.2.1.3.3.2.4-.1.3-.3.3-.4.3zm2-1.7c-.6-.3-.6-.7-.6-1 0-.2 0-.4-.1-.6l-.1-.2h.2c.5.1.5.6.6 1 0 .2.1.4.1.6l.2.4-.3-.2zm.8-2.1c-.1.1-.2.1-.4.1s-.4-.1-.5-.2c0-.1-.1-.2 0-.4h.1c.2 0 .3 0 .4.1v-.8c-.1 0-.2-.1-.2-.1-.2-.1-.2-.1-.2-.2s0-.2.1-.2c.1-.1.2-.1.2-.1-.2-.1-.3-.2-.2-.4 0-.1.2-.1.3-.1.1 0 .3 0 .4.1.1.2.1.4 0 .6 0 .1 0 .2-.1.2l-.2.8s.1 0 .1.1c.1 0 .1.1.2.1h.1v.1c0 .2 0 .2-.1.3zm-.3-2.9c-.1-.2-.1-.3-.2-.2h-.1v-.1c0-.1.1-.2.2-.2.2 0 .7.3.8.6 0 .1 0 .3-.2.4-.3-.1-.4-.4-.5-.5zm1 3.1c-.1.1-.1.1-.2.1v-.1c-.1 0-.2 0-.3-.2.2-.2.3-.2.4-.2v-.1c.2 0 .3.1.3.3-.1.1-.1.2-.2.2zm.2-4.8v.2l-.2-.2c-.2-.2-.4-.3-.6-.3-.2-.1-.4-.2-.4-.3 0-.1.1-.2.5-.4h-.2v-.1c0-.2.2-.3.2-.3.1 0 .2 0 .3.1.2.1.4.2.6.1l.2-.1v.2c0 .2-.2.5-.7.6.3 0 .4.2.3.5zm.9-.4s0 .1-.2.3c-.2.2-.3.2-.3.2v-.2c.1 0 .3-.2.3-.3h.1v-.1h.1v.1zm1.4-.2s0 .1-.2.3c-.2.2-.3.2-.3.2v-.2c.1 0 .3-.2.3-.3h.1v-.1h.1v.1zm1.2 3.1c-.1 0-.1.1-.2.1-.2 0-.3-.1-.3-.2s0-.2.2-.3H220.8c.2-.1.3-.1.4.1-.1.1-.3.2-.4.3zm3.8-12c0-.2.2-.3.3-.3.2 0 .3.1.3.3v.1h-.1c-.1.1-.3.2-.4.2.1 0-.1 0-.1-.3zm-3.2 2.6h-.2v-.1c0-.2.2-.3.3-.3.2 0 .3.1.3.3 0 .1-.1.2-.2.2s-.1 0-.2-.1c.1 0 .1 0 0 0zm1.6 6.3c-.1.2-.6.6-.9.6-.1 0-.2 0-.3-.1-.1-.1-.2-.3-.1-.6v-.4l.2.4c0 .1.1.1.1.1.1 0 .2-.1.3-.1.1-.1.3-.2.4-.2.1 0 .2.1.3.2.1 0 .1.1 0 .1zm2-3.7c-.1.1-.2.2-.2.3-.4.5-.6.8-1.3.8-.2 0-.5 0-.8-.1-.1 0-.3-.1-.3-.3 0-.2.4-.2.8-.2h.2l.3-.3c.2-.2.4-.5.8-.5.1 0 .3 0 .5.1l.2.1-.2.1zm.3-2.7c0 .2-.2.3-.3.3-.2 0-.3-.1-.3-.3 0-.1.1-.2.2-.2s.1 0 .2.1l.1.1h.2-.1zm0-2c0 .3-.3.3-.6.3h-.4v-.2c0-.3.4-.3.6-.3h.4v.2zm56.9-30c.2.3.1.3 0 .4v.1c-.2 0-.5-.2-.5-.4 0 0 0-.1.1-.1.1-.1.2-.1.4-.1v.1zm-.8-6c0-.1.1-.2.2-.2s.1 0 .2.1l.1.1h.2v.1c0 .2-.2.3-.3.3-.2 0-.4-.2-.4-.4zm-1.5-8.8c.3-.2.4-.2.4-.2h.1v.1c0 .1 0 .2-.2.3-.1.1-.3.2-.4.2-.1 0-.2-.1-.2-.1.1-.2.3-.3.3-.3zm-1.2-.2c.1-.1.2-.1.4-.1v.1h.4c-.1.2-.3.2-.4.2v.1c-.2 0-.4-.1-.4-.3 0 .1 0 0 0 0zm-2.6-2.6c0-.1.1-.2.2-.2s.1 0 .2.1l.1.1h.2v.1c0 .2-.2.3-.3.3-.2-.1-.4-.2-.4-.4zm-.5 1.5l.1-.1V73.1s-.1.1-.2.1c-.2 0-.5-.1-.6-.2h-.1c-.1-.1-.2-.1-.2-.2 0 0 0-.1.2-.1.1 0 .3 0 .5.1.1 0 .3.1.3.1zm-1.7-1.9c.1-.2.2-.4.1-.6l.2-.1c.1.3.4.4.6.6.3.2.6.5.7.9v.1H275.2c-.3 0-.5-.2-.7-.4l-.2-.2s-.1 0-.2.2v.1h-.1s-.2 0-.3-.1c0-.2.1-.3.2-.5zm-.6-.8c.2-.1.3-.1.4.1 0 .1-.1.3-.3.4-.1 0-.1.1-.2.1-.2 0-.3-.1-.3-.2s0-.2.2-.3c.1-.1.1-.1.2-.1zm-1-1.2c.2 0 .3.1.3.1s.1.1 0 .2c.2.1.2.2.2.2v.1h-.1-.1c-.1 0-.3-.1-.5-.1-.1 0-.4 0-.4-.2s.4-.3.6-.3zm-3-3.6c0-.3.4-.3.6-.3h.4v.2c0 .3-.4.3-.6.3h-.4v-.2zm.4 3.7c.1 0 .3-.2.3-.3h.1v-.1h.1l.1.1v.1c0 .1-.4.5-.5.5v-.1l-.1-.2zm-.3-1.7s-.1.1 0 0c-.1.1-.1.1-.2.1s-.2-.1-.2-.2c0-.2.1-.4.3-.5h.1v-.2h.1c.1 0 .3.1.4.2 0 .3-.3.5-.5.6zm-.8-1.8s.1-.1.2-.1v.1c.1 0 .3 0 .6.2-.1.1-.2.1-.3.1v.1c-.3 0-.5-.2-.5-.4 0 .1 0 .1 0 0zm-.8-1.4h.7v.7h-.7v-.7zm-1.3.2c.1-.1.1-.2.2-.2h.1v.1c.1.1 0 .3-.1.4-.1.2-.3.3-.5.3-.1 0-.2 0-.2-.1-.1 0-.2-.1-.2-.3.1 0 .1-.2.7-.2zm.2 2.1v.1c0 .2-.2.2-.3.3l-.1.1v.1h-.1c-.3 0-.3-.3-.3-.4v-.2l.1-.1c.2-.2.4-.2.6-.1.1 0 .1.1.2.1l-.1.1zm-.7-3.4h.1V63h.1l.1.1v.1c0 .1-.4.5-.5.5v-.2c0-.2.2-.4.2-.4zm-1.3 2.3c0-.3.4-.3.6-.3h.4v.2c0 .3-.4.3-.6.3h-.4v-.2zm0 .4c.2 0 .3.1.5.2.1.1.1.2 0 .2 0 0-.1.1-.2.1s-.2 0-.3-.1c-.2.1-.3.1-.4.1h-.1c-.1 0-.1-.1-.1-.1 0-.2.3-.4.6-.4zm-2-1.7c0-.1.1-.1.2-.1v.1c.1 0 .2 0 .4.2-.1.1-.2.2-.3.2v.1c-.2 0-.4-.2-.4-.4 0 0 0-.1.1-.1zm-.9-2.2c0-.2.2-.3.3-.3.2 0 .3.1.3.3 0 .1-.1.2-.2.2s-.1 0-.2-.1l-.1-.1h-.2.1zm-.7.5c.1-.1.1-.1.2-.1v.1c.1 0 .2 0 .3.2-.2.2-.3.2-.4.2v.1c-.2 0-.3-.1-.3-.3.2 0 .2-.1.2-.2zm.7 2.1l-.2.2c-.2.2-.1.2-.1.3.1.1.1.2.1.5v.1h-.1-.1c-.5 0-.6-.4-.7-.8v-.4h1.1v.1zm-1.5.4v.2c-.1.1-.1.1-.2.1-.2 0-.3-.2-.4-.3-.2-.1-.3-.2-.3-.3v-.1h.1c.1 0 .7.2.8.4zm-1.4-1.2l.1-.1c.1 0 .3.1.3.3.1.1.1.3 0 .4 0 .1-.1.1-.2.1s-.2-.1-.2-.2V64v-.1-.2zm-.3-1c.1-.1.2-.3.2-.3h.1v-.1h.1c.2.1.5.5.5.6 0 .1.1.2 0 .2v.1h-.1c-.1 0-.1 0-.4-.2h-.1c-.2 0-.3 0-.4-.1l-.1-.2h.2zm-5.1-.2h.1c.3-.1.5 0 .7.1.1.1.1.3.1.4v.1h-.9v-.6zm-4.7.7c.1-.2.9-.3 1.4-.3h.5l.4.1-.3.2c-.4.2-1 .3-1.4.3-.2 0-.4-.1-.5-.2l-.1-.1zm-5.7 2.9c0-.6.6-.6.9-.6H244.6l-.1.2c-.2.3-.5.4-.8.4-.1 0-.2 0-.3.1l-.2.1-.1-.2zM242 69c0 .1-.1.3-.2.3s-.1 0-.2-.1l-.1-.1h-.2V69c0-.2.2-.3.3-.3.3 0 .4.1.4.3zm-1.1-2.5c0-.2.2-.3.3-.3.2 0 .3.1.3.3 0 .1-.1.2-.2.2s-.1 0-.2-.1l-.1-.1h-.2.1zm0 .6c.2.2.2.3.3.4l-.2.2-.3-.4.2-.2zm-1.1 2.5c0-.1.1-.2.2-.2s.1 0 .2.1l.1.1h.2v.1c0 .2-.2.3-.3.3-.2 0-.4-.2-.4-.4zm.7 1.7l-.1.2c-.1.3-.4.5-.7.5h-.2l.1-.2c.1-.3.4-.5.7-.5h.2zm-1.8-1.7c0-.1.1-.2.2-.2s.1 0 .2.1l.1.1h.2v.1c0 .2-.2.3-.3.3-.2 0-.4-.2-.4-.4zm.1 2.2c.1-.3.3-.6.7-.6h.1v.1c.1.2-.2.4-.3.5l-.1.1h.2V72.2c-.1.1-.2.1-.3.1h-.8l.3-.2s.1-.1.2-.3zm-1.6-1.3c.1-.1.3-.2.5-.2.3 0 .5.1.6.2 0 .1.1.2 0 .4l-.1.1-.1-.1c-.2-.1-.4-.2-.8-.2h-.1v-.1-.1zm-1.6 3.3c0-.1.1-.2.2-.2s.1 0 .2.1l.1.1h.2v.1c0 .2-.2.3-.3.3-.2-.1-.4-.2-.4-.4zm-2.4 3.2h.1c.2 0 .3.2.3.3.1.1.1.2.2.2s.1 0 .2-.1l.2-.1v.9l-.2-.1c-.1-.1-.3-.1-.4-.2-.3-.1-.6-.2-.7-.4 0-.1.1-.3.3-.5zm-.2 1.9v.1h-.1-.1c-.3 0-.5-.1-.6-.3v-.2l-.1-.1v-.2c.1-.3.3-.3.4-.3.2 0 .3.2.4.4v.1c.1.1.1.3.1.5zm-.8-1.9c.1-.2.2-.3.3-.3.1 0 .1 0 .2.1s0 .4-.2.8l-.1.2-.1-.1c-.2-.2-.2-.5-.1-.7zm-.4-2.3c0-.3.4-.3.6-.3h.4v.2c0 .3-.3.3-.6.3h-.4v-.2zm-3.9 14.8h.1v-.1h.1l.1.1v.1c0 .1-.4.5-.5.5v-.2c0-.1.2-.3.2-.4zm-1.5.2h.1v-.1h.1l.1.1v.1c0 .1-.4.5-.5.5v-.2c-.1-.1.1-.3.2-.4zm-2.1-1.4c0-.1.1-.1.2-.1v.1c.1 0 .2 0 .4.2-.1.1-.2.2-.3.2v.1c-.2 0-.4-.2-.4-.4.1 0 .1-.1.1-.1zm1.2 2.1c-.1 0-.4-.1-.5-.1l-.1.2v-.3c0-.1 0-.2.1-.2.1-.1.1-.1.2-.1h-.7c-.1 0-.3 0-.4-.2-.1-.1-.1-.3 0-.5l.2-.6v.7c.1.1.5.1.7.1.4 0 .5 0 .6.2 0 .1-.1.2-.2.3h.1c.3 0 .4.1.5.2 0 .1 0 .2-.1.4l-.4-.1zm.2.7v-.2c0-.3.4-.3.6-.3h.4v.2c0 .3-.4.3-.6.3h-.4zm.9 5.9c0 .1-.1.2-.2.2s-.1 0-.2-.1l-.1-.1h-.2v-.1c0-.2.2-.3.3-.3.2 0 .4.2.4.4zm.4-5.1c-.1.3-.4.5-.7.5h-.1v-.1c0-.2 0-.3.1-.4.1-.2.4-.2.6-.2H227.2l-.2.2zm.6 13.7c-.1-.1-.1-.1-.1-.2s0-.2.4-.2v.1h.3c-.1.2-.2.2-.3.2v.1c-.1.1-.2 0-.3 0zm.2 7v.1c.1 0 .3 0 .5.1-.2.2-.3.3-.5.3v.1c-.1 0-.2 0-.3-.1-.1-.1-.1-.1-.1-.2 0-.2.1-.3.4-.3zm-1.5 4.2c0-.1 0-.2.1-.3.1-.1.2-.1.3-.1h.7l.2-.1v.2c0 .1 0 .2-.1.3-.1.1-.2.1-.3.1h-.7l-.2.1v-.2zm.9 3.9c0 .2-.2.4-.4.4s-.4-.1-.4-.3c0-.1 0-.3.3-.4.1 0 .2.1.2.1.1.1.1.1.2.1h.2l-.1.1zm1.1 2.5c-.1.1-.1.3-.1.4 0 .1 0 .3-.2.3-.1 0-.2-.1-.5-.2l-.1-.1v-.1c.1-.3.4-.5.7-.5h.2v.2zm.7-2.1h-.7v-.7h.7v.7zm1.5-3c-.1.3-.4.5-.7.5h-.2l.1-.2c.1-.3.4-.5.7-.5h.2l-.1.2zm.2-2.6c-.2 0-.4-.1-.6-.2-.2-.1-.4-.2-.6-.2-.1 0-.1 0-.1.1l-.1.2-.1-.2c-.1-.2-.1-.5-.2-1 0-.2 0-.4-.1-.6v-.2l.2.1c.5.3.5.5.6.8 0 .1 0 .3.1.5.1 0 .3.1.5.1h.5c.1 0 .2 0 .2.1.1.2 0 .3-.3.5zm-.7-3.2c-.2.2-.4.2-.5.2v.1c-.2 0-.4-.2-.4-.3 0-.1 0-.2.1-.2 0 0 .1-.1.3-.1v.1c.1.1.3.1.5.2zm.8-2.6c0 .3-.4.3-.6.3h-.4v-.2c0-.3.4-.3.6-.3h.4v.2zm0 2.2c.1.2 0 .3-.1.4-.1.1-.3.2-.4.2-.1 0-.2-.1-.2-.1 0-.1.1-.2.2-.3.3-.2.4-.2.5-.2zm.3-2.1h-.1v-.1c0-.1 0-.2.1-.2.1-.1.3-.2.5-.2.3 0 .5.1.6.2 0 .1.1.2 0 .4v.1c.2 0 .4.1.5.2h.1v.2h.9l.2-.1v.2c0 .1 0 .2-.1.3-.1.1-.2.1-.3.1h-.7l-.2.1v-.2-.1h-.7v-.7H232.2c-.5-.1-.8-.2-1.1-.2zm1.2-2.1h-.2c-.2 0-.4-.2-.4-.5s.2-.5.6-.5c.1 0 .2 0 .3.1l.1.1-.1.1-.2.2c-.1.1-.2.2-.2.4l.1.1zm2.4-1.9v.1h.4c-.1.2-.3.2-.4.2v.1c-.1 0-.3 0-.4-.1v.3l-.2-.2c-.2-.1-.4-.2-.8-.2h-.1v-.1c0-.2.1-.4.4-.4.2 0 .4.1.6.2h.2c-.1.1.1.1.3.1zm-.8 2.9v.2c-.1.1-.1.1-.2.1-.2 0-.3-.2-.4-.3-.3-.1-.3-.2-.3-.3v-.1h.1c.1 0 .7.3.8.4zm.3 3.5h.1v.7H234c-.2 0-.3-.1-.3-.2-.1-.2.2-.5.5-.5zm-1.8 2.2c0 .2-.2.4-.6.5h-.2v-.4h.1c.2-.1.4-.2.5-.2.2-.1.2 0 .2.1zm.2 4.4c0 .2-.2.2-.3.3l-.1.1v.1h-.5v-1l.2.1c.2.1.3.2.6.2h.2l-.1.2zm.8-3.3h-.2c-.1 0-.3-.1-.5-.1-.1 0-.4 0-.4-.2s.4-.3.6-.3c.2 0 .3.1.3.1s.1.1 0 .2c.2.1.3.1.2.3zm.9-1.3c-.1.3-.5.5-.9.5-.1 0-.2 0-.4-.1h-.1v-.1c0-.3.3-.4.5-.4.2-.1.3-.1.3-.2v-.2l.2.1c.4.1.5.3.4.4zm1.1-3.6c0 .3-.4.3-.6.3h-.4v-.2c0-.3.4-.3.6-.3h.4v.2zm.2-3.1c-.1.2-.2.3-.4.3-.1 0-.3-.1-.4-.1-.2-.1-.4-.2-.6-.1l-.2.1.1-.2c0-.2.2-.2.3-.3l.1-.1v-.1h.1c.1 0 .2-.1.3-.1.3 0 .3.2.4.4 0 .2.1.2.1.2h.2l.3-.1-.3.1zm1 9.4c-.1.1-.3.2-.5.2h-.2v-.9h.9v.1c0 .3-.1.5-.2.6zm1.1-.7c-.1.1-.3.2-.5.2h-.2v-.1c0-.3 0-.5.2-.6.1-.1.4-.2.6-.2h.1v.1c0 .3-.1.5-.2.6zm.8-3.8c-.3.3-.7.5-1.1.5-.6 0-1.2-.3-1.5-.7l-.1-.1.1-.1c.1-.1.3-.2.6-.2.6 0 1.4.2 1.8.3l.3.1-.1.2zm-.9-3.5H237.3v-.1-.1l-.1.2c-.1-.1-.2-.1-.2-.3 0-.1.2-.2.2-.2.1-.1.4-.1.4-.1.2 0 .2.1.2.1.1.1 0 .3-.1.4l-.2-.1c.1.1.1.1.1.2 0-.1 0 0 0 0zm-.7-2.8v-.1c-.1-.2.1-.3.2-.4.1-.1.1-.3.1-.3h.1v-.1h.1l.1.1v.1c-.1 0-.4.7-.6.7zm1.3 4.1l-.1.2.1-.2zm0 0c.1.1.1.2.1.2l.1.1-.1.1.1-.1v.1l-.2.2-.3-.3.3-.3-.2.1h.1l.1-.1zm.4.6l-.2.1-.1-.1.1-.1-.1.1.2-.2v.1l.1.1zm3 6.9c-.1.2-.1.5-.4.5-.1 0-.2 0-.3-.1-.2-.1-.4-.1-.7-.1h-.2v-.2c.1-.2.1-.5.4-.5.1 0 .2 0 .3.1.2.1.4.1.7.1h.2v.2zm.7-2.2s0 .1-.2.3c-.2.2-.3.2-.3.2v-.2c.1 0 .3-.2.3-.3h.1v-.1h.1v.1zm0-3.6c0 .3-.4.3-.6.3h-.4v-.2c0-.3.4-.3.6-.3h.4v.2zm1.2 3.5v-.2c0-.3.3-.3.6-.3h.4v.2c0 .3-.4.3-.6.3h-.4zm.7 1.9v.1c-.2 0-.4-.1-.4-.3 0 0 0-.1.1-.2s.3-.2.6-.2v.1h.3c-.2.4-.4.5-.6.5zm5.5 3.3c-.3 0-.7.1-.9.2l-.4.3.2-.4c.3-.6.8-.6 1.2-.6h.1c.2 0 .4 0 .5-.1l.1-.1.1.1c.1.1.2.2.1.4 0 .1-.4.2-1 .2zm2.7-1.6c0 .1-.1.2-.2.2s-.1 0-.2-.1l-.1-.1h-.2v-.1c0-.2.2-.3.3-.3.2 0 .4.2.4.4zm6.3.6v-.1c-.1 0-.3 0-.5-.1.2-.2.3-.3.5-.3v-.1c.1 0 .2 0 .3.1.1.1.1.1.1.2-.1.2-.2.3-.4.3zm2.1-2.1v.1c-.3 0-.5-.3-.5-.6 0-.1 0-.2.1-.3.1-.1.1-.1.2-.1v.1c.1 0 .4.1.7.4-.2.4-.4.4-.5.4zm13.4-8.7c0 .2-.2.3-.3.3-.2 0-.3-.1-.3-.3 0-.1.1-.2.2-.2s.1 0 .2.1l.1.1h.2-.1zm1.8-4.8v.1c-.2 0-.4-.1-.4-.3 0-.1 0-.1.1-.1.1-.1.2-.1.4-.1v.1h.4c-.2.2-.3.3-.5.3zm1-1.9v-.2c.1 0 .3-.2.3-.3h.1v-.1h.1l.1.1v.1c-.1.1-.5.4-.6.4zm4.9-11.7c-.2.1-.2.1-.2.2v.8l-.2-.8c-.1-.4-.1-.4-.2-.4s-.4.1-.6.2c-.3 3.7-1.6 7.4-4 11.1v.7h-.4c-1.4 2.2-3.2 4.3-5.4 6.4-6.3 6.3-11.7 9.3-16.8 9.3v.6-.6c-1.1 0-2.1-.1-3.3-.4l-.1-.1-9.4-9.4v.2h-.1c-.2 0-.4-.1-.5-.1-.1 0-.1-.1-.2-.1s-.3-.1-.2-.2c0-.2.3-.2.4-.2h.1l-6.3-6.3c-.1 0-.2-.1-.2-.2l-.1.1c-.1.1-.2.1-.2.2-.2.2-.5.5-.9.5-.1 0-.3 0-.3-.2s.2-.2.6-.4c.1 0 .1 0 .2-.1-.2-.2-.2-.3-.2-.4 0 0 .1-.1.2-.1s.2 0 .7.2l-4.8-4.8c-.1.1-.2.1-.3.1-.1 0-.2 0-.3-.3 0-.1.1-.2.1-.2l-.4-.4c-.3-1.2-.4-2.6-.3-4.1H228V91c0-.2.2-.3.3-.3 0-.2.1-.4.1-.7h-.2v-.2c0-.2.1-.2.2-.3.4-2.4 1.6-5.2 4.1-8.6-.3-.1-.3-.2-.3-.3v-.1h.1c.1 0 .2.1.4.2.3-.4.6-.8 1-1.3h-.1c-.1 0-.2-.1-.3-.2h-.1c-.3.1-.4.1-.4.1h-.1v-.1c0-.1 0-.1.5-.3 0 0 .1 0 .1-.1.1-.1.3-.2.6-.2h.2v.2c1-1.2 2.1-2.4 3.4-3.7 3.2-3.2 6.3-5.6 9.5-7.2 0-.2-.1-.3-.3-.4v.1c0 .2-.2.3-.3.3-.2 0-.3-.1-.3-.3 0-.1.1-.2.2-.2s.1 0 .2.1h.1v-.2c.1-.1.2-.1.3-.1h.6v.1c0 .3 0 .5.1.6 3.8-1.9 7.7-2.7 11.5-2.4.2 0 .5.1.7.1v-.2H260.1c.2 0 .3.1.4.3.9.1 1.8.3 2.6.6V66l.2.1c.2.1.3.2.6.2h.1v.2c.2.1.4.1.6.2 0-.2.1-.3.2-.3v.1c.1 0 .2 0 .4.2l-.1.1c2.1.9 4 2 5.5 3.1.1-.1.1-.1.1-.3l.2-.1c.1.4.2.4.2.4h.2c.2 0 .4-.1.8-.1.1 0 .2.1.2.2.1.1.1.2.2.2s.2-.1.3-.1l.5-.4-.3.6c-.2.3-.5.4-.7.4-.2 0-.3 0-.3.1 0 0-.1.1-.1.2.6.5 1.2 1.1 1.7 1.5l.9.9c.3-.1.6-.2.9-.2.2 0 .5 0 .6.1.1 0 .1.1.1.2s-.1.2-.2.2c.1.1.2.1.3.2.2.1.4.2.4.3 0 .1-.1.2-.2.2-.1.1-.1.1-.2.1s-.3-.1-.4-.3l-.3-.3v.1c0 .1-.1.2-.3.3.1.1.2.2.2.3.1-.1.1-.1.2-.1.2 0 .3.1.3.3v.1h-.1c-.1 0-.1.1-.2.1 2.2 2.8 4.4 6.9 4.9 11.9.1.7.1 1.4.1 2.1H280.9v.4c.1-.1.3-.1.5-.1h.1v.5h.1c.1 0 .2-.1.4-.1h.1v.1c.3.5 0 .5-.2.6zm1.2-7.4c.1 0 .3-.2.3-.3h.1v-.1h.1l.1.1v.1c0 .1-.4.5-.5.5v-.1l-.1-.2z"/><path d="M224.4 88.5L224.3 88.5z"/><path d="M233.4 72.8l-.2.2c.1 0 .2 0 .2-.1.1 0 0 0 0-.1z"/><path d="M262.7 64.3L262.6 64.3z"/><path d="M229.3 112.4h-.1.1zm-34.5 58.4l.5-1.1h-.1c-.8-.2-1.1-.3-1.4-.5-.1 0-.2-.1-.2-.3 0-.1.1-.1.2-.1.2 0 1.5.3 1.6.6l1.9-4L186 160v.1c0 .2-.2.3-.3.3-.2 0-.4-.2-.4-.3-.1-.2-.2-.3-.2-.5l-2.8-1.4-1.3 2.7 2.4 1.2-.9 1.9c0 .1.1.1.1.2s-.1.3-.3.4l-4.9 10.2-2.4-1.2-1.3 2.7 3.1 1.5c.1 0 .2 0 .3.1.1.1.3.1.6.1h.1v.1c0 .1 0 .1-.1.2l11.1 5.3 2.6-5.5-3.2-1.6-1.3 2.7-6-2.9 2.4-5 .8.4v-.2h.1c.5-.1.7.1 1 .2.2.1.4.3.8.2.1 0 .2.1.2.2s-.2.2-.5.4l4.5 2.1.6-1.2h-.7v-.2c0-.3.4-.3.6-.3H191l.5-1.1-.8-.4c0 .1.1.3 0 .6v.1h-.4c-.1 0-.2 0-.3-.1-.1-.1-.1-.4-.1-.6v-.3l-5.4-2.6.2-.5c-.1 0-.1.1-.2.1-.2 0-.5-.1-.7-.3-.1-.1-.1-.3-.1-.5v-.1h.1c.2.1.3.1.5.2.1.1.3.2.4.2h.1l1.7-3.5h-.2v-.2c0-.2.2-.3.4-.3l.1-.1.3.1h.2v.1l5.4 2.6-1.2 2.6 3.3 1.9zm-20.5 4.7c0-.1.1-.2.2-.3.2-.1.3-.2.4-.2h.1v.1c0 .1 0 .2-.2.3-.1.1-.3.2-.4.2-.1 0-.1-.1-.1-.1zm.3 1.3v-.2c.1 0 .3-.2.3-.3h.1v-.1h.1l.1.1v.1c-.1 0-.5.4-.6.4zm13.1 2.6c.2 0 .5.1.6.2 0 .1.1.1.1.2.1.1.2.2.2.3v.1h-.1c-.1 0-.1 0-.5-.3-.1-.1-.1-.1-.2-.1s-.3-.1-.3-.3c-.1 0 0-.1.2-.1zm-.3 1.4c0-.3.4-.3.6-.3h.4v.2c0 .3-.4.3-.6.3h-.4v-.2zm-.2 1.3c.2-.3.3-.3.4-.3.2 0 .3.2.4.4 0 .2-.1.4-.5.4-.1 0-.3 0-.3-.2-.1-.2-.1-.2 0-.3zm-8.4-3.9c-.1.1-.2.1-.4.1s-.4-.1-.5-.2c0-.1-.1-.2 0-.4h.1c.3 0 .4.1.5.1.1 0 .1.1.2.1h.1V178.2zm.9-2.4l-.7.1v-.2h-.2v-.1c0-.1 0-.2.1-.3.1-.1.2-.1.4-.1s.4.1.5.2c0 .1 0 .2-.1.4zm2.4-3.6c0 .6-.7.6-.9.6H180.6l.1-.2c.2-.4.6-.5 1.2-.5h.1l.1.1zm11.7-4.3h.1v-.1h.1l.1.1v.1c0 .1-.4.5-.5.5v-.2c0-.2.1-.4.2-.4z"/><path d="M207.6 175.9L207.5 175.9z"/><path d="M207.2 168.2h-.7v-.6l-5.8-.9-.5 3.1h.1v.1c0 .1-.1.2-.2.3l-.4 2.6 3.4.5.5-3 3.7.6-.6 4c.1 0 .2.1.2.1.1.1.1.2.1.4v.1h-.4l-1.4 9.2-2.9-.4-.5 3 .4.1c.1 0 .2-.1.3-.1.3-.1.5-.2.7 0 .1.1.1.2.1.3l8.2 1.3.2-1.6c-.1 0-.1-.1-.2-.1l.2-.2.2-1.1-2.9-.4 1-6.3c-.1 0-.2-.1-.2-.2s0-.2.2-.3h.1l1.1-7.1 2.9.4c0-.3.4-.3.6-.3h.4v.2c0 .2-.2.3-.3.3h.2l-.5 3 1.3.2-.1-.1c0-.1.1-.2.3-.3.1 0 .2-.1.2-.1s-.1 0-.2-.1h-.1v-.1c0-.1.1-.3.3-.3.1 0 .2.1.3.1.2.1.4.2.5.1l.6-.3-.4.5c-.2.2-.4.3-.6.4-.2.1-.4.2-.5.3l1.8.3v-.3h-.1c-.2 0-.3-.1-.4-.2 0-.2.2-.3.4-.5h.1l.8-5.1-11.7-1.8v.3h.2zm-5.1 1.7c-.1 0-.1.1-.2.1-.2 0-.3-.1-.3-.2s0-.2.2-.3h.2c.2-.1.3-.1.4.1 0 .1-.2.2-.3.3zm1.8-2c0 .1-.1.2-.2.2s-.1 0-.2-.1l-.1-.1h-.2v-.1c0-.2.2-.3.3-.3.3 0 .4.1.4.4zm2.8 2.2c-.1.1-.3.2-.4.2-.1 0-.2 0-.3-.3 0-.2.2-.3.3-.3.2 0 .3.1.3.3l.1.1zm4.2 17.7c0-.2.2-.3.3-.3.2 0 .3.1.3.3 0 .1-.1.2-.2.2s-.1 0-.2-.1l-.1-.1h-.2.1zm-.8-18.2c.1-.1.2-.1.4-.1s.4.1.5.2c0 .1.1.2 0 .4v.1h-.7v-.2-.1h-.2v-.1c-.1-.1-.1-.2 0-.2zm-.3 1.3c0-.3.4-.3.6-.3h.4c.1-.2.3-.2.5-.2h.4v.2c0 .3-.4.3-.6.3h-.4c-.1.2-.3.2-.5.2h-.4v-.2zm-3.4 12.8l.1-.1c.1 0 .1 0 .2.2.1.1.2.3.2.5v.1h-.1c-.1 0-.2-.1-.2-.2-.3-.4-.2-.4-.2-.5zm.5 3.7v.1c-.2 0-.4-.1-.4-.3 0-.1 0-.1.1-.1.1-.1.2-.1.4-.1v.1h.4c-.2.3-.4.3-.5.3zm1.1-6c-.1 0-.2 0-.3-.1-.1-.1-.1-.2 0-.2 0-.1.1-.2.7-.2v-.1h.1v-.1c.3 0 .4.2.4.3-.1.2-.6.4-.9.4zm.6-2.3h.2v.2c0 .3-.4.3-.6.3h-.4v-.2c0-.3.4-.3.6-.3.1.1.2.1.2 0zm-.9-3.4v.1c.1 0 .2 0 .5.2-.1.2-.2.2-.3.2v.1c-.2 0-.4-.2-.4-.4 0-.1 0-.1.1-.2h.1zm25.6-1.2c.2 0 .3.2.3.4l-.1-.6c-.1.1-.1.2-.2.2z"/><path d="M235 184.8l-.4-3.2h-.1v.1c-.2 0-.4-.1-.4-.3 0-.1 0-.1.1-.1.1-.1.2-.1.4-.1v.1h.1l-.8-5.7c-.1.1-.4.2-.6.2-.3 0-.5-.1-.6-.2-.1-.1-.1-.2 0-.4v-.1h.1c.4.1.5.1.6.1.1 0 .3 0 .5.1v-.2h-.1c-.2 0-.2-.2-.2-.3-.7 0-.8-.1-.8-.2 0-.2.5-.2.7-.2h.1v-.2c.1 0 .3-.2.3-.3h.1l-.4-3.2 3.7-.5.4 3 2.1-.3c0-.1.1-.1.2-.1H240.3c.2-.1.3-.1.3 0l.7-.1-.2-1.6c-.1.1-.1.2-.3.2-.2 0-.5-.2-.6-.2h-.2v-.1c0-.1.1-.3.3-.3.1 0 .2.1.3.1.1.1.2.2.4.1h.1l-.1-.4h-.1v-.2-.1l-.5-3.5-6.8 1v.1h-.7l-10.7 1.5.9 6.1 3.4-.5-.4-3 3.7-.5 1.4 9.9c.2-.1.5-.2.8-.2h.3l-.2.2c-.2.2-.4.4-.6.5.4.1.4.4.4.5 0 .2-.2.4-.4.4-.1 0-.1 0-.2-.1l.4 2.8-3 .4.2 1.7h.3v.1l.1.1c-.1.2-.2.3-.4.3l.1.4h.3c.5 0 1 0 1.5.1l2-.3c.1-.1.2-.2.1-.5-.1 0-.2 0-.3.1-.1.1-.3.2-.5.1h-.1v-.4c.2-.1.4-.2.6-.2.2 0 .3 0 .5.1.1 0 .3.1.5.1s.3 0 .5-.2l.2-.1v.2c0 .5-.3.5-.5.5s-.3 0-.4.3l1.9-.3c0-.1 0-.2.1-.4h.1c.3 0 .4.1.5.1.1 0 .1.1.2.1h.1v.1l2.5-.4-.4-3-3.4.4zm3.5-16c.1-.2.3-.2.4-.2.5 0 .9.9.9 1.4v.2h-.2c-.3-.1-.5-.4-.6-.6-.1-.2-.2-.4-.5-.5h-.2l.2-.3zm-5.9 7.9h.1v-.1h.1v.1s0 .1-.2.3c-.2.2-.3.2-.3.2v-.2c0-.1.2-.3.3-.3zm-1.6-8c0-.2.2-.3.3-.3.2 0 .3.1.3.3v.1h-.1c-.1.1-.3.2-.4.2 0 0-.1 0-.1-.3zm.9 10.7h-.7c0 .1-.1.2-.2.2s-.1 0-.2-.1l-.1-.1h-.2v-.1c0-.2.2-.3.3-.3.1 0 .3.1.3.2v-.4h.7v.6h.1zm-.1-9.5v-.2c0-.3.4-.3.6-.3h.4v.2c0 .3-.4.3-.6.3h-.4zm1.2 14.2c0 .3-.4.3-.6.3h-.4v-.2c0-.3.4-.3.6-.3h.4v.2zm33.3-10.3l-13.5-12.6-7.5 3.5 1.3 2.8 2.5-1.2.8 15.2-2.2 1 1.3 2.8 5.9-2.7c-.1-.1-.1-.2 0-.4v-.1h.1c.1 0 .2.1.2.1.1.1.1.1.2.1l.1-.2V181.8h.1c.2 0 .3.1.3.2l.1-.1v-.2h.2l.6-.3-1.3-2.8-1.3.6v.2l-.1-.1-1 .5v-.3c-.1 0-.2.1-.3.1h-.4l.2-.2c.1-.1.3-.3.6-.4l-.1-1.6c-.1 0-.3-.1-.4-.2l-.2-.1.2-.1c.1-.1.3-.2.7-.3.1 0 .2-.1.3-.1v.1-.2H254c.1 0 .1 0 .2.1l6.5-3.1 2.1 2-2.4 1.1 1.3 2.8 8.2-3.8-1.3-2.8-2.3 1zm-14.4-11.1c0-.2.2-.3.3-.3.2 0 .3.1.3.3 0 .1-.1.2-.2.2s-.1 0-.2-.1l-.1-.1h-.2.1zm-.1 12.5c.2-.1.3-.1.3-.1h.1v.1c.1.2-.3.5-.5.6v.1h-.1l-.2.1v-.3l-.1-.1c.1 0 .1 0 .1-.1h-.2c0-.3.2-.3.3-.3h.3zm-.4 5.2c-.2-.3-.1-.4 0-.4v-.1c.1 0 .3 0 .4.1.1.1.2.1.2.3 0 .2-.4.2-.6.2v-.1zm-.3-15.3h.1c.2.1.3.3.2.4-.1.2-.3.2-.4.2-.2 0-.3-.1-.4-.2 0-.2.3-.3.5-.4zm-1.4.2h-.7l.3-.2c.1-.1.2-.1.2-.2.2-.2.5-.5.9-.5h.1v.1c0 .2 0 .4-.1.6-.1.2-.4.2-.7.2zm.9 15.5l.2-.3.1.2h.2l-.1.2c.2.2 1 .7 1.2.7l.2.2h-.2c-.4 0-1-.2-1.2-.5-.5-.1-.5-.3-.4-.5zm1 3c-.1.1-.3.1-.4.1-.1 0-.1-.1-.2-.1 0-.1 0-.2.7-.5.3-.1.4-.1.4-.1h.1v.1c.1.1.2.2-.6.5zm5.4-9.1c0 .2-.2.3-.3.3-.2 0-.3-.1-.3-.3 0-.1.1-.2.2-.2s.1 0 .2.1l.1.1h.2-.1zm-4.2-1l-.2-3.1H252.3v-.2c0-.2.1-.2.2-.3l-.3-4.6 5.9 5.6-5.3 2.6zm9.7 4.7c0 .1-.2.2-.3.2-.1 0-.3-.1-.3-.2s-.1-.3.2-.6l.1-.1.1.1c.2.3.3.5.2.6zm.8-4.8h-.2c-.1 0-.3-.1-.5-.1-.1 0-.4 0-.4-.2s.4-.3.6-.3c.2 0 .3.1.3.1s.1.1 0 .2c.3.1.3.1.2.3z"/><path d="M292.2 188c3.5-2.8 6.9-5.8 10.1-9 2.3-2.3 4.5-4.7 6.6-7.1.7-.8 1.3-1.6 2-2.5l.3-.4-.4-.1-.1.1c-.2.3-.4.4-.7.4-.2 0-.3-.1-.3-.2 0-.2.2-.3.7-.4l-15.4-4.4v.2h-.1-.1c-.1 0-.3-.1-.5-.1-.1 0-.4 0-.4-.2v-.1l-2.8-.8h-.1c-.1 0-.1 0-.2-.1l-.5-.1c-.1.1-.2.2-.3.2-.1 0-.1 0-.2-.1s-.1-.2-.1-.3l-7.2-23.3-.4.6c-.7 1-1.4 2-2.2 2.9-2 2.6-4.1 5-6.4 7.3l-1.8 1.8-1-1.3c-.1.1-.3.1-.5.1h-.4v-.1c0-.2.1-.4.5-.5l-6.8-9.4-.3.3c-.7.7-1.4 1.4-2.2 2-1.2 1.1-2.4 2.1-3.7 3 0 .2-.2.3-.4.3l-.2.2h.2c.4 0 .5 0 .5.2 0 .1-.1.2-.8.3-.1 0-.3-.1-.3-.1-6.6 4.8-14.1 8.1-22.1 9.9.1.1.1.3.1.5v.1h-.1-.1c-.3 0-.4-.3-.4-.4v-.1c-2.9.6-5.9 1-8.9 1.2-.1.4-.4.4-.7.5-.2 0-.4.1-.4.2v.1l-.1-.1c-.2-.1-.2-.2-.2-.4 0-.1.1-.3.3-.4h-.6c0 .3-.4.3-.6.3h-.4v-.2c0-.1 0-.1.1-.2h-1.1c-1.6 0-3.3-.1-4.9-.2-.2.5-.7.6-1.2.7l-.5.1.4-.3c.1-.1.2-.1.2-.2.1-.1.3-.2.4-.3-1.2-.1-2.4-.3-3.6-.4-.1.2-.3.2-.4.2-.2 0-.5-.2-.7-.4-4.2-.7-8.3-1.9-12.2-3.4-.1.1-.3.1-.5.1h-.4v-.2c0-.1.1-.2.2-.3-1.1-.5-2.2-.9-3.3-1.4v.1h-.1c-.2 0-.2-.2-.3-.3-.6-.3-1.1-.6-1.7-.9l-.1.2c-.1.3-.4.5-.7.5h-.9c-.2 0-.3 0-.5.1l-.5.3.3-.5c.3-.4.6-.4.9-.4h.7c.2 0 .3 0 .5-.1l.2-.1-3.6-2.1c-.1.2-.3.2-.5.2h-.4v-.2c0-.3.3-.3.5-.3-2.7-1.7-5.3-3.6-7.7-5.8-.7-.6-1.5-1.3-2.2-2l-.3-.3-2.8 3.9h.1c.2 0 .5.1.7.3.1.1.1.3.1.5v.1H176c-.3 0-.4-.2-.5-.3-.1-.1-.1-.2-.2-.2h-.1l-5.1 7c-.6-.6-1.3-1.2-1.8-1.8-2.3-2.3-4.4-4.7-6.4-7.3-.7-1-1.5-1.9-2.2-2.9l-.4-.6-6.1 19.9v.1c0 .1-.1.2-.2.2l-.2.7-.7 2.4L131 169l.3.4c.7.9 1.4 1.7 2 2.5 2.1 2.5 4.3 4.9 6.6 7.1.9.9 1.9 1.8 2.8 2.7h.3v.1h.4c-.1.1-.2.2-.3.2 4 3.7 8.3 7.2 12.7 10.2H156.1V192.5c.7.5 1.4 1 2.1 1.4.8.5 1.6 1.1 2.5 1.6l.3.2 1.5-2c0-.1-.1-.2-.1-.2 0-.1 0-.1.1-.2 0-.1.1-.1.2-.1v.1h.1l3.7-5.1v-.1h.1l1.3-1.7H167.6v-.2c.1-.3.4-.3.6-.3l1.1-1.4c.1.1.2.1.3.2l.1-.1c.2 0 .3.1.3.3 1.8 1 3.5 2 5.4 3 .1 0 .1-.1.1-.1v-.1h.1c.2 0 .3.1.3.2.1.1 0 .2 0 .3.5.2.9.4 1.4.7.1-.1.1-.1.2-.1s.2.1.3.1h.1V188.6h.9v.1c0 .2-.1.3-.2.5-.1.1-.2.1-.3.2 1.2.5 2.3 1.1 3.5 1.6 7.2 3.1 14.7 5.2 22.4 6.5.2-.1.4-.1.5-.1H205.3l-.1.2c4.5.7 9 1.1 13.6 1.2h2.2c1.2 0 2.5 0 3.7-.1v-.1h.1c.1 0 .2 0 .2.1h.6c0-.1 0-.2.2-.2h.2c.2-.1.3-.1.4.1v.1c.6 0 1.1-.1 1.7-.1.1-.1.3-.1.4-.1h.2v.1c8.8-.7 17.4-2.5 25.7-5.4l.1-.1c.1-.1.2-.2.3-.2.1 0 .2 0 .3.1.1 0 .2-.1.4-.1 0-.1.1-.2.1-.4v-.2l.1.1c.1.1.3.2.5.2h.1c-.1-.1-.1-.1-.2-.1h-.1v-.1c0-.3.4-.3.6-.3H256.9v.4c.2-.1.4-.2.6-.2v-.2l.2.1c.8-.3 1.7-.7 2.5-1 1.6-.7 3.1-1.4 4.6-2.1v-.2c0-.2.2-.5.4-.5v.1c.1 0 .2 0 .3.2.8-.4 1.5-.8 2.3-1.1-.1-.1-.1-.3 0-.4.1-.2.5-.2.9-.2h.5c1.1-.6 2.2-1.2 3.3-1.9-.2-.1-.3-.2-.3-.3 0-.1 0-.1.1-.1 0 0 .1-.1.2-.1v.1c.1 0 .3 0 .6.2 0 0-.1 0-.1.1l3.9 5.3h.4v.2c0 .1 0 .1-.1.2l4 5.5.1-.1h-.1v-.1c0-.2.2-.3.3-.3.1 0 .2 0 .2.1.7-.5 1.5-.9 2.1-1.4 2.8-1.8 5.5-3.8 8.1-5.9.2-.4.2-.4.3-.5zm2.4-2.2c-.1 0-.1.1-.2.1-.2 0-.3-.1-.3-.2s0-.2.2-.3H294.6c.2-.1.3-.1.4.1-.1 0-.3.2-.4.3zm2.2-4.2c-.1.1-.3.2-.4.2-.1 0-.2 0-.3-.3 0-.2.2-.3.3-.3.2 0 .3.1.3.3l.1.1zm6.4-12.9c0-.3.4-.3.6-.3h.4v.2c0 .3-.4.3-.6.3h-.4v-.2zm-2.8.3h.1v-.1h.1l.1.1v.1c0 .1-.4.5-.5.5v-.2c-.1-.2.1-.4.2-.4zm-10.6-3.8c0-.3.4-.3.6-.3h.4v.2c0 .3-.4.3-.6.3h-.4v-.2zm-.2-.4c-.2.1-.3.2-.4.2-.1 0-.2 0-.3-.3 0-.2.2-.3.3-.3.2 0 .4.2.4.4zm-.8-.8h-.4v-.2c0-.3.4-.3.6-.3h.4v.2c-.1.3-.4.3-.6.3zm-1.4-1.3c.1-.1.2-.1.3-.1H288.5s0-.1.1-.1h.1c.3 0 .4.1.5.1.1 0 .1.1.2.1h.1v.1c0 .1 0 .2-.1.3-.1.1-.2.1-.4.1s-.4-.1-.5-.2c0 0 0 .1-.1.1-.1.1-.2.1-.3.1h-.7l-.2.1v-.2c.1-.2.2-.3.2-.4zm-4.4-20.1h.1v-.1h.1l.1.1v.1c0 .1-.4.5-.5.5V142.9c0-.1.1-.3.2-.3zm-1.1-.3c0-.2.2-.3.3-.3.2 0 .3.1.3.3 0 .1-.1.2-.2.2s-.1 0-.2-.1l-.1-.1h-.2.1zm-.7 5.2l.3.9c0-.1 0-.1.1-.2s.2-.1.3-.1c.3 0 .5.2.6.5-.1.3-.4.3-.6.3h-.2-.1l4.7 15.4c.2 0 .5.1.7.1.2 0 .3.1.4.1h.1c.1-.5.6-.5.9-.5H289l-.1.2c-.2.3-.5.4-.8.4-.1 0-.2 0-.3.1l-.2.1c-.1.2-.2.2-.3.2-.1 0-.3-.1-.5-.2-.1 0-.2-.1-.2-.1l.3.8.1.2 13.5 3.9c0-.1.2-.2.3-.2h-.2l.1-.2c.1-.3.4-.5.7-.5h.1v.1c0 .2 0 .3-.1.4-.1.1-.2.1-.3.2h.1v.2c0 .2-.2.3-.3.3l1.1.3c.1-.1.2-.1.4-.1v.1h.4l-.2.2 2.1.6-3.3 3.6c0 .3-.3.6-.6.6-.4.4-.8.9-1.2 1.3-2 2-4.2 4-6.4 5.9.8-.1 1.6-.4 2.2-.8l.1-.1.1.1c.1.1.1.2 0 .3-.2.5-1.9 1.2-2.8 1.2h-.5c-2.5 2.1-5.1 4.1-7.8 6l2.7-15.2v-.1l-1.6-2.2v.1H285c-.3 0-.3.1-.3.1v.1h-.1c-.3 0-.3-.2-.3-.2 0-.2.2-.4.4-.4l.1-.2c.1-.2.2-.3.3-.3h.1l-3.9-5.3h-.3v-.4l-3.7-5.1h-.2v-.1-.2l-3.3-4.5c.8-.7 1.5-1.4 2.2-2.2 1.9-1.7 3.6-3.6 5.2-5.5zm3.5 26.3l.1-.1c.1-.1.2-.2.4-.2.3 0 .7.2.9.4.2.2.2.3.2.5v.3l-.2-.2c-.2-.2-.6-.4-1-.5-.1 0-.2-.1-.3-.1l-.1-.1zm-9.9-14.4c0 .1 0 .2-.1.3-.1.1-.2.1-.3.1h-.7l-.2.1v-.2c0-.1 0-.2.1-.3.1-.1.2-.1.3-.1h.7l.2-.1v.2zm1.4-8.7H276.5c.2-.1.3-.1.4.1 0 .1-.1.3-.3.4-.1 0-.1.1-.2.1-.2 0-.3-.1-.3-.2-.1-.2-.1-.3.1-.4zm-3.1 2c.1-.2.4-.2.6-.2H274l-.1.2c-.1.3-.4.5-.7.5h-.1v-.1c-.1-.2-.1-.3 0-.4zm-.1 5c.1 0 .2 0 .3.1.1.1.1.1.1.2s-.1.3-.4.3v-.1c-.1 0-.3 0-.5-.1.2-.2.3-.3.5-.3v-.1zm-.8-4.4c0-.1.1-.2.2-.2s.1 0 .2.1l.1.1h.2v.1c0 .2-.2.3-.3.3-.3-.1-.4-.2-.4-.4zm-.3 2.6c.1-.1.2-.1.4-.1v.1h.4c-.1.2-.3.2-.4.2v.1c-.2 0-.4-.1-.4-.3 0 .1 0 0 0 0zm-3-5.3c0-.3.4-.3.6-.3h.4v.2c0 .3-.4.3-.6.3h-.4v-.2zm-.8 1.9v.1c.1 0 .2 0 .4.2-.1.1-.2.2-.3.2v.1c-.1 0-.2-.1-.3-.1-.1-.1-.1-.2-.1-.3.1-.1.2-.2.3-.2zm-11.4-4.8c.1-.1.2-.1.4-.1v.1h.4c-.1.2-.3.2-.4.2v.1c-.2 0-.4-.1-.4-.3 0 .1 0 .1 0 0zm-.2 1.2c0-.3.4-.3.6-.3h.4v.2c0 .3-.4.3-.6.3h-.4v-.2zm-7.9 4.8c0-.3.4-.3.6-.3h.4v.2c0 .3-.4.3-.6.3h-.4v-.2zm-6.4 3.9c.1-.1.2-.2.4-.2s.4.1.5.2c.1.1.1.2.1.3 0 .1 0 .3-.2.3-.1 0-.2-.1-.2-.2H242.5s-.1 0-.2-.1c-.2-.1-.1-.2-.1-.3zm-3.1-.8c0-.2.2-.3.3-.3.2 0 .3.1.3.3 0 .1-.1.2-.2.2s-.1 0-.2-.1l-.1-.1h-.2.1zm-3.2.4c.2-.3.3-.3.4-.3.2 0 .3.2.4.4 0 .2-.1.4-.5.4-.1 0-.3 0-.3-.2-.1-.1-.1-.2 0-.3zm-3.4 2.6c0-.3.1-.5.3-.5 0 0 .1 0 .2.1s.1.3 0 .5c0 0-.2.4-.4.4h-.1v-.1c-.1-.1-.1-.2 0-.4zm-2.6-.4c0-.3.4-.3.6-.3h.4v.2c0 .3-.4.3-.6.3h-.4v-.2zm-2.9-.9c.1-.1.2-.1.4-.1v.1h.4c-.1.2-.3.2-.4.2v.1c-.2 0-.4-.1-.4-.3-.1.1-.1 0 0 0zm-1.1 2.4c.2-.4.6-.5 1.2-.5h.2l-.1.2c-.1.4-.5.7-.8.7-.2 0-.3-.1-.5-.2v-.2zm-1.1 0h.7v.7h-.7v-.7zm-1.3-.1c0-.3.4-.3.6-.3h.4v.2c0 .3-.4.3-.6.3h-.4v-.2zm-2.2.4c0-.3.2-.6.8-.6h.4l-.1.2c-.2.3-.5.5-1 .5h-.2l.1-.1zm-1.8-.7c0-.3.4-.3.6-.3h.4v.2c0 .3-.4.3-.6.3h-.4v-.2zm-.1.6c.3-.2.4-.2.4-.2h.1v.1c0 .1 0 .2-.2.3-.1.1-.3.2-.4.2-.1 0-.2-.1-.2-.1 0-.2.2-.3.3-.3zm-3.2-2.6s.1-.1.2-.1v.1c.1 0 .3 0 .6.2-.1.1-.2.1-.3.1v.1c-.3 0-.5-.2-.5-.4-.1.1 0 .1 0 0zm.9 1.9v.2c0 .3-.4.3-.6.3h-.4v-.2c0-.3.4-.3.6-.3h.4zm-4-1.2c.1-.2.2-.5.4-.5.1 0 .2.1.3.2.1.1.3.2.5.2h.2l-.1.2c0 .1-.1.3-.3.3-.1 0-.2-.1-.3-.1-.2-.1-.4-.2-.5-.1l-.3.1.1-.3zm-2.6-.6c0-.3.4-.3.6-.3h.4v.2c0 .3-.4.3-.6.3h-.4v-.2zm-.6-.4c.3-.2.4-.2.4-.2h.1v.1c0 .1 0 .2-.2.3-.1.1-.3.2-.4.2-.1 0-.2-.1-.2-.1l.3-.3zm-12.4-2.2h.7v.7h-.7v-.7zm-2-1c0-.3.1-.5.3-.5 0 0 .1 0 .2.1s.1.3 0 .5c0 0-.2.4-.4.4h-.1v-.1c-.1-.1-.1-.2 0-.4zm-2.9-1.1c-.1.2-.3.2-.4.2v.1c-.2 0-.4-.1-.4-.3 0-.1 0-.1.1-.1.1-.1.2-.1.4-.1v.1c-.1.1.1.1.3.1zm-1-.4c0-.2.2-.3.3-.3.2 0 .3.1.3.3 0 .1-.1.2-.2.2s-.1 0-.2-.1l-.1-.1h-.2.1zm-2.5-2c.2-.4.3-.4.4-.4.1 0 .2.1.2.2s0 .2.1.3c.2-.1.2-.1.3-.1h.1l.1.1c.1.1 0 .2-.2.5v.1h-.1c-.2 0-.3-.2-.4-.2-.1-.1-.2-.2-.3-.2h-.2v-.3zm-1.7-.1h.7v.7h-.7v-.7zm-2.1-2.4c0-.1.1-.2.4-.2v.1h.4c-.1.2-.3.2-.4.2v.1c-.1 0-.3 0-.4-.1v-.1zm-.9-2.3s.1 0 0 0l.1-.2c.2 0 .5.2.6.3l.1.1v.1h-.1v-.1h-.1s-.1-.1-.2-.1c-.2.1-.5 0-.4-.1zm.6 2c-.2.1-.3.2-.4.2-.1 0-.2 0-.3-.3 0-.2.2-.3.3-.3.2.1.4.2.4.4zm-1.1-1.5H184.2c.2-.1.3-.1.4.1 0 .1-.1.3-.3.4-.1 0-.1.1-.2.1-.2 0-.3-.1-.3-.2-.1-.2 0-.3.1-.4zm-7.3-.8c0-.1.1-.2.2-.2s.1 0 .2.1l.1.1h.2v.1c0 .2-.2.3-.3.3-.3 0-.4-.2-.4-.4zm-4.8 6.7h.1v-.1h.1v.1s0 .1-.2.3c-.2.2-.3.2-.3.2v-.2l.3-.3zm-1.6 1.5c0-.3.4-.3.6-.3h.4v.2c0 .3-.4.3-.6.3h-.4v-.2zm-2.6-3.3c0-.3.4-.3.6-.3h.4v.2c0 .3-.4.3-.6.3h-.4v-.2zm-1.4 0c0-.3.4-.3.6-.3h.4v.2c0 .3-.3.3-.6.3h-.4v-.2zm-3.7-3.8c0-.2.2-.3.3-.3.2 0 .3.1.3.3v.1h-.1c-.1.1-.3.2-.4.2.1 0-.1 0-.1-.3zm-2.6-6.4c.3-.1.5 0 .6.1.1 0 .1.1.2.1h.1v.1c0 .1 0 .2-.1.3-.1.1-.2.1-.4.1s-.4-.1-.5-.2c0-.1-.1-.3.1-.5zm-2.2 6.8h.1c.3-.1.5 0 .7.1.1.1.1.3.1.4v.1h-.9v-.6zm-.8 1.8c.1 0 .4 0 .5.7l.1.2-.2-.1c-.5-.2-.6-.4-.6-.6 0-.1.1-.2.2-.2zm-1 8.4c.1-.3.3-.5.6-.5.1 0 .3 0 .4.1.1 0 .1 0 .2.1h.1v.1c0 .2-.2.2-.2.2-.1 0-.1 0-.2-.1v.5l-.1-.1c-.2-.1-.3-.2-.6-.2h-.2v-.1zm-3 5h.2c.2-.1.3-.1.4.1 0 .1-.1.3-.3.4-.1 0-.1.1-.2.1-.2 0-.3-.1-.3-.2 0-.2 0-.4.2-.4zm-1 0h.7v.7h-.7v-.7zm-6.6 2.2h.7v.7h-.7v-.7zm-7 2c.5-.1.6.2.6.4s.1.2.2.2h.2l-.1.2c-.1.2-.2.3-.3.3-.1 0-.2-.1-.3-.2-.2-.2-.4-.6-.3-.9zm-4.4 2.4c0 .1-.1.1-.2.1s-.2-.1-.2-.2c-.1-.2-.1-.5.1-.8v-.1h.1c.3 0 .3.2.2.2 0 .1 0 .1-.1.2.2.4.2.5.1.6zm6.4 7.2c0 .3-.4.3-.6.3h-.4v-.2c0-.3.4-.3.6-.3h.4v.2zm.9 2.5c-.7-.1-.7-.2-.7-.3 0 0 0-.1.2-.1.1 0 .3.1.6.2l.6.3-.7-.1zm11.4 8.1c-.1.3-.4.5-.7.5h-.2l.1-.2c.1-.3.4-.5.7-.5h.2l-.1.2zm2.2 3c-.1.1-.3.2-.5.2-.3 0-.5-.1-.6-.2 0-.1-.1-.2 0-.4v-.1h.1c.2 0 .4.1.5.1.1.1.2.1.4.1h.1V190.5zm.6-1.8c-.1 0-.2-.1-.3-.1h-.2l.1-.2c.1-.2.2-.3.2-.6v-.1h.4c-4.6-3.4-9-7.1-13.1-11.2-1.8-1.8-3.5-3.6-5.2-5.5l10.2-2.9v-.1c0-.3.4-.3.6-.3h.4v.2l6.9-2 3.9-12.7H159l.1-.2c.1-.3.2-.4.5-.5l1.2-3.9v-.1c0-.1 0-.1.1-.2l.3-.9c.3.3.6.6.8 1v-.1c0-.1.1-.2.1-.2.1-.1.1-.1.1-.2v-.1h.7V148.1l-.1.1h.2v.1c0 .1-.1.2-.2.2s-.1 0-.2-.1c-.1 0-.2-.1-.3-.1h-.1c1.3 1.5 2.7 3 4.1 4.4.7.7 1.5 1.4 2.2 2.2L155 173.5l2.8 15.3c-.3-.2-.6-.5-.9-.7-.1.3-.3.5-.5.5-.6.2-.8.2-1 .1zm11.5-26c0 .2-.1.4-.3.4-.1 0-.2-.1-.3-.1-.1-.1-.2-.2-.4-.1l-.2.1v-.2c0-.2.1-.4.4-.4.2 0 .4.1.6.2.1 0 .1 0 .2.1zm-1.5-.5v.7h-.7v-.7h.7zm-2 4.4v.2c0 .3-.4.3-.6.3h-.4v-.2c0-.3.4-.3.6-.3h.4zm-3 1.9c-.1.2-.3.2-.4.2v.1c-.2 0-.4-.1-.4-.3 0-.1 0-.1.1-.1.1-.1.2-.1.4-.1v.1s.1 0 .3.1zm-3.4 8h-.6v-.1c0-.3.1-.4.1-.5 0-.1.1-.1.1-.2v-.2h.2c.3.1.4.2.5.3-.1.3-.2.5-.3.7zm.3.9h.4v.2c0 .3-.4.3-.6.3h-.4v-.2c.1-.3.4-.3.6-.3zm-.6 1.1l.2.1v.1c0 .1-.1.3-.3.3-.1 0-.2-.1-.3-.1-.1-.1-.2-.2-.4-.1l-.2.1v-.2c0-.2.1-.4.4-.4.1-.1.4.1.6.2zm.1 4.9c0-.4.3-.5.5-.6.2-.1.4-.2.4-.5-.1.2-.4.4-.5.4v-.2c.1 0 .3-.2.3-.3h.1v-.1h.1v-.1h.2c.3 0 .5.2.5.5 0 .5-.6 1.1-1.2 1.1h-.2l-.2-.2zm1.4-13.2s.1 0 0 0l.1-.2c.2 0 .7.3.7.4v.1l-.1.1h-.1v-.1h-.1s-.1-.1-.2-.1-.4 0-.3-.2zm.8 11.6h.1v.1c0 .1.1.1.2.1.1.1.4.2.3.6l-.1.4-.2-.3c0-.1-.4-.2-.6-.3-.3-.1-.5-.2-.5-.4.2-.2.4-.2.8-.2zm0-5.7v-.1c0-.3-.1-.3-.1-.3h-.1v-.1-.2c.1-.1.1-.1.3-.1.3 0 .7.1.8.4 0 .1 0 .3-.2.4h-.7zm-2 15.3c0 .3-.4.3-.6.3h-.4v-.2c0-.3.4-.3.6-.3h.4v.2zm3.5 2c-.2 0-.2 0-.3-.1-.1-.1-.2-.3-.3-.3l-.4.3.2-.4-.1.1h-.1v-.1h-.1s-.1-.1-.2-.1c-.2 0-.5-.1-.4-.2h.1v-.1c.2 0 .7.3.7.4v.1c.1-.3.3-.3.4-.3.2 0 .4.1.5.4.2 0 .1.2 0 .3zm0-2.4c-.3.2-.9.3-1.5.3-.4 0-1-.1-1.3-.4-.1-.1-.2-.3-.2-.5v-.1h.1c.2 0 .4.1.6.1.7.1 1.4.3 2.2.3h.4l-.3.3zm1.2.3c-.4-.1-.5-.4-.5-.8v-.1H161.5c.4 0 .4.4.4.7V191.4l-.2-.1zm.8-1.6c-.1.1-.3.2-.4.2-.1 0-.2-.1-.2-.1 0-.1.1-.2.2-.3.3-.2.4-.2.4-.2h.1v.1c.1.1 0 .2-.1.3zm2.4-1.6c0 .3-.4.3-.6.3h-.4v-.2c0-.3.4-.3.6-.3h.4v.2zm.2-1.2c-.2.3-.3.6-.9.6H163.9l.1-.2c0-.1.1-.1.1-.2.1-.2.2-.5.6-.5h.5l-.1.3zm1.1-2.7h-.1c-.1 0-.2-.1-.3-.2V184.3l-.2-.1c-.2-.2-.4-.3-.4-.4l-.1.1-3.9 5.4-.9-5.3c-.1.1-.3.2-.5.2h-.4v-.2c0-.3.4-.3.6-.3h.2l-1.1-6.2c2.3 1.8 4.6 3.4 7 5l-.4.6-.1.1-.1.1c.3 0 .8.2.9.5 0 .2 0 .3-.2.4zm-4.9-7.5l.5.5c.2.2.6.2.8.2h.5c.2.2.2.4.2.5 0 .1-.1.1-.2.1s-.1 0-.2-.1c-.4 0-.7 0-.9-.1-.3-.1-.5-.1-.7.1-.1 0-.2-.1-.3-.1 0 .2-.2.3-.3.3-.2 0-.3-.1-.3-.3 0-.1.1-.2.2-.2s.1 0 .2.1l.1.1h.1c0-.1.1-.1.3-.2.1 0 .3 0 .4-.1l-.4-.8zm2.3 1.9l.1-.2.1.1c.4.3.3.6.3.7-.1.2-.3.3-.5.1.1.1.1.3 0 .4v.1h-1.1v-.1c0-.2.2-.3.4-.3h-.1v-.1c0-.1 0-.2.1-.2 0 0 .1-.1.2-.1.2 0 .4.1.5.3-.1-.2-.1-.4 0-.7zm2.9 2.1c-.1.2-.3.3-.5.3s-.6-.1-.7-.2c-.1 0-.3-.1-.2-.3 0-.1.2-.1.3-.1.3 0 .8.1 1.1.2h.2l-.2.1zm2 4.1c0 .3-.4.3-.6.3h-.4v-.2c0-.3.4-.3.6-.3h.4v.2zm8 2.5c-.2 0-.4-.2-.4-.3 0-.1 0-.2.1-.2 0 0 .1-.1.3-.1v.1c.1 0 .3 0 .5.1-.2.2-.4.2-.5.2v.2zm2.3-.7c-.1.3-.2.6-.5.6-.1 0-.3-.1-.4-.1-.2-.1-.3-.1-.5 0-.3.1-.4-.2-.4-.3v-.6h.2c.2 0 .3.1.5.2.1.1.2.1.2.1v-.1c0-.1.1-.2.2-.2s.1 0 .2.1c.1 0 .2.1.3.1h.2v.2zm1.8.9s.1 0 0 0h.2v.1c-.1.2-.2.3-.4.3-.1 0-.3-.1-.4-.1-.1-.1-.3-.2-.4-.1l-.2.1v-.2c0-.6.6-.6.9-.6H180.9l-.1.2c-.1.1-.2.2-.2.3zm13.7 6.4c-.1.1-.3.2-.3.3v.1h-.1-.1s-.1 0-.1-.1c-.1-.1-.1-.2-.1-.4v-.1l-.1.1-.1.1-.1-.1c-.1-.1-.3-.2-.2-.4.1-.2.3-.2.7-.2H194.1l-.1-.2.3.1c.1 0 .2.1.3.2 0 .3-.1.4-.3.6zm7.8 2.6c0 .3-.4.3-.6.3h-.4v-.2c0-.3.4-.3.6-.3h.4v.2zm4 0c0 .2-.2.2-.2.2-.1 0-.1 0-.2-.1v.4h-.7v-.1c-.1-.2-.3-.4-.2-.7v-.1h.1c.5-.1.9 0 1.2.2v.2zm4.2.5v-.2c.1 0 .3-.2.3-.3h.1v-.1h.1v.1c-.1.2-.4.5-.5.5zm7.8 1.5h-.1v-.1c0-.2 0-.3.1-.4.1-.2.4-.2.6-.2h.3l-.1.2c-.2.4-.4.5-.8.5zm1.3-2.2h.2v.2c0 .3-.4.3-.6.3h-.4v-.2c0-.3.4-.3.6-.3h.2zm-.1-.2v-.1c.1-.4.3-.7.5-.7.1 0 .4.1.4.7v.1h-.9zm.5 2.1c0 .3-.4.3-.6.3h-.4v-.2c0-.3.4-.3.6-.3h.4v.2zm1.3-.9h-.1c-.1 0-.1 0-.3-.1-.2-.1-.5-.2-.8-.2-.1 0-.2 0-.3.1l-.2.2-.1-.2v-.2l.1-.1h-.1v-.1c0-.2.2-.2.2-.2.1 0 .2.1.2.2.2 0 .3 0 .4-.1.1-.1.2-.1.4-.1.1 0 .2 0 .3.1 0 .1 0 .2-.1.3 0 0-.1.1-.1.2 0 0 0 .1.2.1.3-.1.4 0 .3.1zm2.4.7c0 .2-.2.4-.5.4s-.7-.2-.8-.3l-.1-.1v-.1c.1-.2.2-.4.4-.4.1 0 .3.1.4.1.1.1.3.2.4.1l.2-.1v.4zm-1.4-1.8c0-.2.2-.3.3-.3.2 0 .3.1.3.3v.1h-.1c-.1.1-.3.2-.4.2.1 0 0 0-.1-.3zm1.9 1.8v.1c-.2 0-.4-.1-.4-.3 0-.1 0-.1.1-.1.1-.1.2-.1.4-.1v.1h.4c-.2.2-.3.3-.5.3zm4.2 0c-.2.3-.4.5-.7.5-.1 0-.3 0-.4-.1-.1-.1-.1-.3 0-.5.1-.1.2-.1.4-.1H228.1v-.2c.2-.2.3-.2.4-.1-.1 0-.2.3-.3.5zm2.3-2.9c0 .3-.4.3-.6.3h-.4v-.2c0-.3.4-.3.6-.3h.4v.2zm2.5 3h-.7v-.7h.7v.7zm1.1-1.2c0 .1-.1.3-.3.3-.1 0-.2-.1-.3-.1-.2-.1-.3-.2-.5-.1l-.2.1v-.2c0-.2.2-.4.5-.4s.7.2.8.3v.1zm3.1-1.9c-.2 0-.3-.1-.4-.2 0-.2.2-.4.4-.5h.2c.2.1.3.3.2.4-.1.2-.3.3-.4.3zm2.4 1.7c-.1.2-.2.3-.4.3s-.4-.1-.7-.2c-.2-.1-.3-.2-.4-.2h-.2l.1-.2c.1-.2.2-.3.4-.3s.4.1.7.2c.2.1.3.2.4.2h.2l-.1.2zm.5-1.7c-.1-.1-.1-.2-.1-.4s.2-.3.4-.3.4.1.5.2c.1.1 0 .3 0 .4-.1.1-.2.2-.4.2-.2.1-.3 0-.4-.1zm.9 1.5v.1c-.2 0-.4-.1-.4-.3 0-.1 0-.1.1-.1.1-.1.2-.1.4-.1v.1h.4c-.2.2-.3.3-.5.3zm8.1-4.9c0 .3-.4.3-.6.3h-.4v-.2c0-.3.4-.3.6-.3h.4v.2zm1.5 1.9c-.2 0-.3-.1-.4-.2 0-.2.2-.4.4-.5h.2c.2.1.3.3.2.4 0 .2-.2.3-.4.3zm.1-1.7v.1c-.1 0-.2 0-.3-.1-.1-.1-.2-.1-.1-.2 0-.1.1-.2.4-.2v.1h.4c-.1.3-.2.3-.4.3zm3.2 1.4c-.1.1-.1.1-.2.1-.2 0-.3-.1-.4-.1-.1-.1-.2-.1-.4-.1h-.1v-.1l-.1.1-.1-.1c-.2-.1-.4-.2-.8-.2h-.1v-.1c0-.1 0-.2.1-.2.1-.1.3-.2.5-.2.3 0 .5.1.6.2v.1c.1-.1.3-.2.5-.2.3 0 .5.1.6.2 0 .3 0 .4-.1.6zm1.3-1.7h-.7v-.7h.7v.7zm8.6-2.8c0 .3-.4.3-.6.3h-.2c-.2.1-.3.2-.4.2h-.1l-.1-.1c-.1-.1 0-.2.2-.5v-.1h1.1l.1.2zm5.5-3.8c-.1.2-.4.2-.6.2H268.4l.1-.2c.1-.3.4-.5.7-.5h.1v.1c.1.2 0 .3 0 .4zm4.2-4.8c-.1-.1-.1-.1 0 0-.8.4-1.5.9-2.3 1.3-3.9 2.3-8 4.4-12.2 6.2-1 .4-1.9.8-2.9 1.2.1.1.3.2.5.3.1-.3.2-.5.4-.5s.4.1.8.3h.1v.5s-.1.1-.2.1-.1 0-.2-.1c-.1 0-.2-.1-.3-.1-.2.1-.4.2-.5.3-.2.2-.4.3-.6.3-.2 0-.3-.2-.4-.3l-.1-.1v.1l-.1.2-.1-.2c-.1-.1-.2-.2-.1-.3 0-.1.2-.1.3-.1.2 0 .2 0 .3-.1 0 0-.1-.1-.1-.2-.9.4-1.9.7-2.8 1-.1.1-.3.1-.5.2-4.2 1.4-8.4 2.5-12.7 3.3-.1.1-.2.1-.3.1v.1c-.1 0-.3 0-.3-.1l-5.7.9c-.1.1-.3.2-.4.2-.1 0-.3-.1-.4-.1-3.8.4-7.6.7-11.4.7-1.6 0-3.2 0-4.7-.1.1.1.1.1.1.2v.1h-.1c-.1.1-.3.2-.4.2-.1 0-.2 0-.3-.3 0-.1.1-.2.1-.2-.9 0-1.7-.1-2.6-.2h-.4v-.1c-2.4-.2-4.8-.5-7.2-.9-.1.1-.2.1-.4.1s-.4-.1-.5-.2c-7.5-1.2-14.7-3.3-21.7-6.3-4.2-1.8-8.3-3.9-12.2-6.2h-.4l.2-.1c-.7-.4-1.5-.9-2.3-1.4-.3-.2-.5-.4-.8-.5v.2h-.1s-.1 0-.1-.1c-.1-.1-.3-.2-.5-.2-.1 0-.2 0-.3.1h-.1c-.3 0-.3-.2-.3-.3 0-.2.3-.4.5-.4-2.5-1.7-4.9-3.5-7.3-5.4l19.6-26.9c5.7 5 12.2 8.8 19.2 11.5.1-.1.2-.2.4-.2v.1c.1 0 .2.1.2.3 7 2.6 14.5 3.9 22.2 3.9 1.9 0 3.7-.1 5.5-.2l-.1-.1c0-.1.1-.2.2-.2s.1 0 .2.1l.1.1h.2v.2c1.1-.1 2.2-.2 3.3-.4h-.2l.3-.2c.2-.2.4-.3.6-.3.2 0 .3.2.4.3 2.9-.5 5.8-1.1 8.5-2 0-.1-.1-.2 0-.4v-.1h.9v.2c2.8-.9 5.5-2 8.1-3.3v-.1c0-.1 0-.2.1-.3.1-.1.2-.1.3-.1h.5c3.1-1.5 6-3.3 8.8-5.4-.2-.1-.3-.2-.3-.3 0-.1 0-.1.1-.1 0 0 .1-.1.2-.1v.1c.1 0 .2 0 .5.1 1.3-1 2.6-2 3.9-3.1l2.1 3c.1-.1.3-.1.5-.1h.4v.2c0 .3-.4.3-.6.3l5.9 8.1c.2-.3.5-.4.9-.4h.2v.2c-.1.3-.3.7-.6.7h-.1l.1.2c.2-.1.3 0 .3.1s0 .2-.1.3l10.4 14.3.1-.1h.1v-.1h.1l.1.1v.1c0 .1-.1.2-.2.3v.1c-2.8 2.3-5.7 4.4-8.7 6.3 0 0 .1 0 .1.1.1 0 .1.1.2.1h.1v.1c0 .1 0 .2-.1.3-.1.1-.2.1-.4.1-.2-.3-.4-.3-.5-.5zm5.3-1.9v.2c-.1.3-.4.3-.6.3H277.6v-.2c.1-.3.4-.3.6-.3H278.8zm-4 7.6c-.1.1-.3.2-.4.2-.1 0-.2 0-.3-.3 0-.2.2-.3.3-.3.2 0 .3.1.3.3l.1.1zm1.4.4c-.1.1-.3.2-.5.2h-.2v-.1c0-.3 0-.5.2-.6.1-.1.3-.2.6-.2h.1v.1c0 .3-.1.5-.2.6zm.1-.9c-.1.1-.3.2-.4.2-.1 0-.2 0-.3-.3 0-.2.2-.3.3-.3.2 0 .3.1.3.3l.1.1zm4.8 8.8c-.2 0-.6-.1-.7-.3 0-.1 0-.2.1-.3.1 0 .1 0 .2.1h.2l.1-.1c.2.1.4.3.3.5.1 0 .1.1-.2.1zm-.1-4.8l-4.9-6.7c2.4-1.6 4.7-3.2 7-5l-.4 2.5h.4c-.1.2-.3.2-.4.2v.1h-.1l-.5 2.6h.1l.2-.1v.2c0 .1 0 .2-.1.3-.1.1-.1.1-.2.1l-1.1 5.8zm.9 0c-.2 0-.4-.2-.4-.3 0-.1 0-.2.1-.2 0 0 .1-.1.3-.1v.1c.1 0 .3 0 .5.1-.2.2-.4.2-.5.2v.2zm1.1-5.9c-.1 0-.2 0-.3-.1-.1-.1-.1-.2-.1-.3 0-.1.1-.3.3-.3v.1c.1 0 .2 0 .5.2-.1.2-.2.2-.3.2v.2h-.1zm.7-2.7c-.3-.1-.3-.2-.3-.3v-.1h.1c.1 0 .8.3.8.5v.2c-.1.1-.1.1-.2.1-.2-.1-.4-.3-.4-.4zm1.3 10.7c0 .2-.1.4-.4.4-.2 0-.5-.2-.6-.2h-.2v-.1c.1-.2.2-.5.4-.5.1 0 .3.1.4.2.1.1.2.1.3.2h.1zm1.9-.6c-.1.3-.4.5-.7.5h-.2l.1-.2c.1-.3.4-.5.7-.5h.2l-.1.2zm2.9-1.8c-.1.2-.6.3-.9.3h-.1v-.1l-.1.1c-.1 0-.1-.1-.1-.2 0-.2.2-.2.5-.2.2 0 .4-.1.6-.1h.1v.1c.1-.1 0 .1 0 .1zm1.3-1.1c0 .3-.4.3-.6.3h-.4v-.2c0-.3.4-.3.6-.3h.4v.2z"/><path d="M268 152.7L267.9 152.8 268 152.8z"/><path d="M162.5 193.5L162.4 193.5z"/><path d="M111.2 22.2c-.1 1.7 0 3.3.2 4.8h.1l.2-.1-.1.2c0 .1-.1.2-.2.2.6 3.5 1.9 6.5 3.9 8.7.6.7 1.3 1.2 1.9 1.8.2-.1.4-.2.7-.2.2 0 .4.1.5.3 0 .1-.1.2-.3.2h-.1-.1-.1c2.5 1.8 5.3 2.9 8.2 3h1.2c5.3 0 9.9-1.7 13.7-5 1.1-1 2.1-2 2.9-3.1 0 0-.1 0-.1-.1-.1-.1-.1-.3-.1-.4 0-.2.1-.3.2-.3 0 0 .1 0 .1.1.1.1.1.3.1.4.8-1.1 1.4-2.2 1.7-3.2v-.2H145.4v-.2c0-.2.1-.2.2-.3 0-.2-.1-.4-.1-.4 0-.1-.1-.1-.2-.1s-.3 0-.7.4c-.5.5-2.4 1.9-3.4 2.6-.4.3-.9.6-1.4.8.1 0 .2.1.2.2 0 0 0 .1-.1.2s-.2.1-.3.1c-.1 0-.3-.1-.4-.2-1.5.8-3.3 1.4-4.9 1.8.3 0 .5.1.6.3.1.1.2.2.4.2h.2l-.1.1c-.1.1-.4.2-.7.2-.5 0-.8-.3-.8-.7-.4.1-.8.1-1.2.2-5.5.4-8.4-2-9.9-6.8-.2-.7-.5-2.1-.6-2.1 0-.1 0-.2.1-.3.1-.1.2-.2.3-.2.1 0 7-1.4 11.5-2.7-.1-.1-.2-.1-.2-.2 0 0 0-.1.2-.1.1 0 .2 0 .3.1 0 0 .1.1.2.1.7-.2 1.4-.4 2-.6l.3-.1c2.1-.7 8.6-3 9-9.2.2-3.3-2.1-7.1-5.5-9.2-2.6-1.6-5.5-2.4-8.4-2.4-1.5 0-3 .2-4.5.6-9.3 2.7-15.7 10.8-16.3 20.8zm32.9 8.2c.1-.1.1-.2.1-.4v-.3l.2.1c.2.1.3.2.6.2h.3l-.2.3c-.2.3-.3.6-.9.6h-.2v-.1c0-.1.1-.3.1-.4zm-6 3.4c.1-.2.4-.2.6-.2h.3l-.1.2c-.1.3-.4.5-.7.5h-.1v-.1c-.1-.2-.1-.3 0-.4zm-4.2 1.5s.1-.1.2-.1v.1c.1 0 .3 0 .6.2-.1.1-.2.1-.3.1v.1c-.3 0-.5-.2-.5-.4-.1.1-.1 0 0 0zm-.9.6c.1-.1.2-.1.4-.1v.1h.4c-.1.2-.3.2-.4.2v.1c-.2 0-.4-.1-.4-.3-.1.1-.1 0 0 0zm-.9 3.6c0-.2.2-.3.3-.3.2 0 .3.1.3.3 0 .1-.1.2-.2.2s-.1 0-.2-.1l-.1-.1h-.2.1zm-7.7 1.1c0-.2.2-.3.3-.3.2 0 .3.1.3.3v.1h-.1c-.1.1-.3.2-.4.2.1 0 0-.1-.1-.3zm-1.7-2.7c.1-.1.2-.1.3-.1h.7l.2-.1v.2c0 .1 0 .2-.1.3-.1.1-.2.1-.3.1h-.7l-.2.1v-.2c0-.1.1-.2.1-.3zm-9.2-18.8h.3l-.2.2c-.2.3-.4.4-.7.4-.2 0-.3-.1-.3-.2.1-.2.4-.4.9-.4zm-.8 6.6h-.2v-.2c0-.3.4-.3.6-.3h.4v.2c0 .3-.4.3-.6.3h-.2zm1.2 1.5l-.7.1v-.2-.1h-.2v-.1c0-.1 0-.2.1-.3.1-.1.2-.1.4-.1s.4.1.5.2c-.1.2 0 .3-.1.5zm.8-13.6v-.2c.1 0 .3-.2.3-.3h.1V13h.1l.1.1v.1c-.1.1-.4.4-.6.4zm.6 13.8v-.1c0-.1.1-.2.4-.3h.1c.4-.2.5-.2.6-.2h.1v.1c0 .1 0 .2-.4.3-.2.1-.5.2-.6.2h-.2zm.8 3.2v-.1c-.1 0-.1 0-.2-.1-.1-.4.2-.4.2-.7v-.1c.1 0 .2.1.3.2 0 .1.1.2.1.3.1.3-.1.5-.4.5zm.5-16.3h-.2l.1-.2c.1-.3.4-.5.7-.5h.2l-.1.2c0 .3-.3.5-.7.5zm1.5 21.2s-.1 0-.2.1c-.1 0-.1 0-.2.1l-.3.1-.2.1-.1-.2s.1 0 .2-.1c.3-.1.5-.2.6-.2h.2v.1c.1-.1.1 0 0 0zm1.3-6.8c-.1.3-.4.5-.7.5h-.2l.1-.2c.1-.1.1-.3.1-.4 0-.1 0-.3.2-.3.1 0 .2.1.5.2v.2zm-.6-12.6l.1-.2c.1-.2.2-.4.2-.5.1-.2.1-.3.2-.3s.2.1.5.8c0 .1-.1.2-.2.2s-.1 0-.2-.1c-.1 0-.2-.1-.3-.1l-.3.2zm.8 5.5c-.1.1-.1.1-.2.1v-.1c-.1 0-.2 0-.3-.2.2-.2.3-.2.4-.2v-.1c.2 0 .3.1.3.3-.1.1-.1.2-.2.2zm1.3 11.3c-.1.1-.3.2-.4.2h-.7l.1-.2c.2-.3.5-.5 1-.5h.1v.1c0 .1 0 .3-.1.4zm.9.8h-.7V33h.7v.7zm-.7-15.4c0-.2.2-.3.3-.3.2 0 .3.1.3.3v.1h-.1c-.1.1-.3.2-.4.2.1 0 0 0-.1-.3zm1.4 7h-.7v-.7h.7v.7zm1.5-.6c0 .3-.4.3-.6.3h-.4v-.2c0-.3.4-.3.6-.3h.4v.2zm4.1-3.9c-.3 0-.7-.2-.8-.4 0-.3.1-.3.2-.3s.3.1.4.2c.1.1.2.1.2.2v-.4l.2.2c.2.1.2.3.2.4 0 0-.2.1-.4.1zm5.1 1.9v-.2c.1 0 .3-.2.3-.3h.1v-.1h.1l.1.1v.1c-.1 0-.5.4-.6.4zm2.5-1.7c0 .1-.1.2-.2.2s-.1 0-.2-.1l-.1-.1h-.2v-.1c0-.2.2-.3.3-.3.2.1.4.2.4.4zm6.8-6.9c0-.2.2-.3.3-.3.2 0 .3.1.3.3 0 .1-.1.2-.2.2s-.1 0-.2-.1l-.1-.1h-.2.1zm-1-.8l.1-.2c.2 0 .5.2.6.3l.1.1v.1h-.1v-.1h-.1s-.1-.1-.2-.1c-.2.1-.6 0-.4-.1zm-.3 5.1c0 .3-.4.3-.6.3h-.4v-.2c0-.3.4-.3.6-.3h.4v.2zm-1.6-12.2c.2-.4.6-.5 1.2-.5h.2l-.1.2c-.2.3-.5.5-1.1.5h-.4l.2-.2zm-.9 6.6c0-.3.4-.3.6-.3h.4c.1-.1.2-.2.3-.2.1 0 .2.1.3.1.1 0 .1.1.2.1h.2l-.1.2c-.1.2-.2.3-.3.3-.1 0-.2-.1-.3-.1-.1 0-.1-.1-.2-.1h-.1c-.1.2-.4.2-.6.2h-.4v-.2zm-1.7 6.3c.3-.2.4-.2.4-.2h.1v.1c0 .1 0 .2-.2.3-.1.1-.3.2-.4.2-.1 0-.2-.1-.2-.1.1-.1.3-.2.3-.3zM133.2 3h.7v.7h-.7V3zm-1.3 4.1c.1-.1.2-.1.5-.1v.1h.5c-.2.2-.4.2-.6.2v.1c-.3 0-.5-.1-.5-.3.1.1.1 0 .1 0zm-7.7-2.2c.1-.3.4-.5.7-.5h.2l-.1.2c-.1.3-.4.5-.7.5h-.2l.1-.2zm-.1 2.1l.1.1c0 .2-.3.3-.4.3-.2 0-.2.1-.2.1v.2l-.2-.1c-.3-.1-.4-.3-.3-.4 0-.2.7-.3 1-.2zm-1.8 11.4c.7-6 3.5-9.7 7.5-10.6.5-.1 4.2-.8 5.9 1.6.9 1.4 1 3.7.1 5.5-.7 1.4-1.9 2.4-3.3 3.1-.1.2-.2.4-.4.3.1.3.2.6.1.8-.1.3-.5.5-1 .6-.1 0-.3-.1-.3-.2 0-.2.1-.3.3-.4.1-.1.2-.1.2-.2 0 0-.2-.1-.3-.1h-.1c-.9.3-1.8.6-2.8.8-.9.2-2.8.7-3.8.9-.6.1-1.3.2-1.5.2h-.1.1c-.1 0-.4 0-.4-.1-.1-.1-.1-.2-.1-.3-.2 0-.1-1.1-.1-1.9zm-1.4-2.1c0-.3.4-.3.6-.3h.4v.2c0 .3-.4.3-.6.3h-.4v-.2zm-.1 6.8h.2v.2c0 .3-.4.3-.6.3h-.4v-.2c0-.3.4-.3.6-.3h.2zM119.5 6c.1-.1.2-.1.4-.1V6h.4c-.1.2-.3.2-.4.2v.1c-.2 0-.4-.1-.4-.3zm-1.3 1.9c.3 0 .6.2.7.4.2.1.2.2.2.3.1 0 .2 0 .3-.1l.2-.1v.2c0 .2.1.3.3.4.2.2.5.4.4.9l-.1.4-.2-.3c-.3-.6-1-.8-1.7-1h-.2l.1-.1c.1-.2.3-.3.4-.2h-.1c-.1-.1-.2-.2-.3-.2-.2 0-.3.1-.5.2s-.3.3-.6.2h-.2v-.1c.4-.6.8-.9 1.3-.9z"/><path d="M158.3 14.4L158.1 14.4z"/><path d="M149.9 5.6c0 .1.1.2.6.2.2 0 .3 0 .5-.1.5-.1 1-.1 1.5.1.1-.1.3-.3.6-.3l.2-.1-.1.2c-.1.2-.1.3-.2.4.5.2 1 .5 1.3.9.9 1.1 1.1 2.9 1.1 5.1.1 0 .3-.1.6-.1.1-.1.2-.1.3-.1.1 0 .1 0 .1.1.1.1 0 .2 0 .2-.1.2-.4.3-.7.3h-.3c-.1 3.8-1 8.3-1.5 10.5 0 0-.6 3-.9 4.4-.3 1.5-.7 3.2-1 4.8h.2c.1.1.1.2.1.3v.1s.1 0 .1-.1c.1-.1.2-.2.3-.2.1 0 .1 0 .1.1 0 0 .2.2.1.3-.1.1-.3.2-.4.2-.2 0-.4 0-.5-.1-.1 0-.2-.1-.2-.2-.4 1.9-.7 3.6-1 4.8-.1.6 0 1.2.3 1.6.7.9 1.7.9 3.9.9h2.4c1.1 0 1.9-.2 2.4-.5-.1-.1-.1-.2-.2-.3-.1-.2-.1-.2-.1-.3v-.1h.1c.1 0 .3.2.5.4.3-.3.6-.6.6-1 .4-1.8.7-3.3 1-4.6 0-.2.1-.4.1-.6-.1 0-.3.1-.4.1h-.4v-.2c0-.3.4-.3.6-.3h.2c.3-1.3.7-3 .7-3 .4-1.5.7-2.8 1-4-.1.1-.3.2-.4.2-.1 0-.2-.1-.2-.1 0-.1.1-.2.2-.3.3-.2.4-.2.4-.2h.1c.7-3.1 1.3-5.5 2-7.7 1-3.3 2.9-6 6.1-7.5.9-.4 2.4-.7 3.8-.7.9 0 1.8.1 2.4.4 2 .8 1.4 3.8 1.1 5.8v.2c-.7 4-1.5 8-2 10.1l-.1.6c-.2 1-.7 3.5-1.2 6.1.1-.1.3-.1.4-.1h.4v.2c0 .3-.4.3-.6.3h-.2c-.3 1.8-.6 3.5-.9 4.8-.1.9-.1 1.4.1 1.7.3.4 1.1.6 2.9.6h3.2c1.5 0 2-.5 2.3-2.3.4-2.2 2.3-10.6 3.3-14.8l.3-1.5c0-.1 1.6-6.8 3.3-8.7 1.5-1.7 3.9-2.9 6.3-3.3.4-.1.9-.1 1.4-.1.6 0 1.4.1 2.1.4 2 .8 1.8 4 1.5 5.3-.1.3-.1.6-.2 1l.2.2c.1.1.1.2.2.3h.1c.4 0 .7.3.7.5s-.1.3-.3.3c-.1 0-.3-.1-.4-.2v-.2h-.1c-.2 0-.3 0-.4-.1l-.3 1.5c.1-.1.1-.1.2-.1.2 0 .3.1.3.3v.1h-.1c-.2.1-.3.2-.4.2 0 0-.1 0-.2-.1l-1.2 6.3c-.5 2.4-1 5.3-1.5 8.1l.6-.1c.2-.1.4-.2.5-.3.1-.2.1-.6-.1-1l-.2-.3.3.2c.7.4.6.8.5 1.4l-.1.3H198c-.3 1.5-.5 3-.8 4.2-.1.3-.1.6 0 .9v-.4l.2.9c0 .1.1.1.1.1.1 0 .2-.1.2-.2.1-.1.2-.1.2-.1h.2v.2c0 .1-.2.4-.4.5.8.8 2.6.9 4.5.9 1.6 0 4.3.2 5.1-2.2.1-.4.6-2.3.6-2.7.1-.6.3-1.4.4-2.3h-.4l.1-.2c.1-.2.2-.3.2-.6v-.2H208.5c.1-.3.1-.6.2-.9-.1 0-.2-.1-.3-.1-.1-.1-.2-.2-.4-.1l-.2.1v-.2c0-.2.1-.4.4-.4.2 0 .4.1.6.2.3-1.3.5-2.5.7-3.3.2-.7 1.1-6.1 1.6-8.5h-.1v-.1c-.1-.4.1-.5.3-.5.1-.1.2-.1.2-.2v-.1h.1c.5-3 1.4-7.9.7-10.6-.2-.8-1-2.4-1.7-2.9-1.4-1.1-2.9-1.7-4.9-1.9-.5-.1-.9-.1-1.4-.1-1.1 0-2.3.1-3.5.4v.1c0 .3-.3.4-.5.4-.2.1-.3.1-.3.2v.2l-.2-.1c-.1 0-.3-.2-.3-.4 0-.1.1-.2.2-.2-3 .8-6 2.1-7.9 3.4-.8.6-1.2.8-1.6.8-.6 0-.9-.4-1.3-1-.5-.7-1.2-1.6-2.9-2.8-1-.7-2.7-1-4.8-1-2.5 0-5.3.5-7.4 1.4-1.1.5-2.1 1-3.1 1.5-1.6.8-3 1.5-3.7 1.5-.5 0-.7-.3-.8-.4-1.9-3.9-6.3-4.4-8.8-4.4h-.8c-2.3.1-3.9.8-5.8 2.5-.8.3-1.1 1-.9 1.2zm27.6 24.9l.2-.2h.1v.1c.1.1 0 .3-.1.4-.1.2-.3.3-.5.3-.1 0-.2 0-.2-.1-.1 0-.2-.1-.2-.3.1 0 .1-.2.7-.2zm-.6 3.8l-.2-.1.2-.2c.1 0 .1-.1.1-.2.1-.2.1-.5.5-.5h.2l.2.1-.2.2c-.1 0-.1.1-.1.2-.1.2-.1.5-.5.5h-.2zm.8.3H177.4l.1-.1c0-.1.1-.1.1-.2.2-.4.2-.6.9-.3.1-.1.1-.1.2-.1h.1v.1c-.1 0-.6.6-1.1.6zm21.6.2h-.7v-.7h.7v.7zm2.6-16.2c0-.3.4-.3.6-.3h.4v.2c0 .3-.4.3-.6.3h-.4v-.2zm.4 1.6h-.2v-.1c0-.6.6-.7 1-.7.1 0 .3 0 .4-.1h.2l-.1.2c-.1.5-.6.7-1.3.7zm1.2 3.2v.1h-1.4v-.1c.1-.4.5-.7.8-.7.1 0 .3.1.4.1.1.1.2.3.2.6zm-2.1 8.3l.1.1c.1.2.1.4 0 .5-.1.1-.3.2-.4.2h-.7v-.2c0-.3.2-.6.8-.6 0-.1.1-.1.2 0zm-1.4-1.3l-.2-.2h-.1v-.1s0-.2.3-.2c.2 0 .7.2.9.4.1.1.2.3.2.5v.1h-.1-.1c-.5-.1-.7-.3-.9-.5zm1.2 3.7c-.1.1-.1.1-.2.1-.2 0-.3-.2-.4-.3-.3-.1-.3-.2-.3-.3v-.1h.1c.1 0 .8.3.8.5.1 0 .1 0 0 .1zm1-1c-.1.1-.2.2-.3.2v.1l-.1-.1c-.2-.1-.4-.2-.4-.4s.3-.4.5-.5c.1 0 .2-.1.2-.1l.1-.1h.1c.1 0 .3.1.3.3 0 .4-.2.5-.4.6zm1.7-2.4c-.1.1-.1.1-.3.1v-.1c-.2 0-.4 0-.8-.2.2-.1.3-.2.5-.2v-.1c.3 0 .6.2.6.4.1 0 .1.1 0 .1zm.8 4.5s-.1 0 0 0c-.2 0-.3-.1-.3-.2 0-.2.1-.4.3-.5h.2c0-.1 0-.2.1-.2.3-.1.3 0 .4.2-.2.2-.6.7-.7.7zm3.5-3.8h.2l-.1.2c-.1.4-.6.5-.9.5-.2 0-.5.1-.6.2l-.2.1-.1-.2c0-.2 0-.3.1-.4.2-.3.8-.4 1.6-.4zM206.7 17c0-.1.1-.2.2-.2s.1 0 .2.1l.1.1h.2v.1c0 .2-.2.3-.3.3-.2-.1-.4-.2-.4-.4zm1.6 8.9c-.1.1-.1.1-.2.1-.2 0-.3-.2-.4-.3-.2-.1-.3-.2-.3-.3v-.1h.1c.1 0 .8.3.8.5v.1zm1.3-20h.1c.1 0 .8.3.8.5v.2c-.1.1-.1.1-.2.1-.2 0-.3-.2-.4-.3-.3-.2-.4-.3-.3-.5zm-1.3 6.9c0-.2.2-.3.3-.3.2 0 .4.1.5.3.1.2.1.4.1.5v.1h-.1c-.2 0-.3-.2-.4-.2-.1-.1-.2-.2-.3-.2h-.1v-.2zm-.2 1.4h.9l.3-.1-.1.3c-.1.3-.5.5-.9.5-.3 0-.5-.1-.6-.2v-.1c-.1-.2.1-.4.4-.4zm-1.6-8.7c0-.1.2-.1.3-.1h.4l-.1-.3.3.3c.2.2.3.3.3.4 0 .1-.2.1-.3.1h-.4l.1.3-.3-.3c-.2-.2-.3-.3-.3-.4zm.1 9.6c.3 0 .5.2.8.3.2.1.3.2.6.3h.7c.2 0 .4 0 .5.2.1.1.1.3 0 .6-.1.1-.2.1-.2.1-.3 0-.3-.3-.3-.4v-.1c-.2-.1-.5-.1-.7-.1-.5 0-1.1 0-1.3-.9v-.2l-.1.2zm-.6-6.5c0 .2-.1.3-.3.3v-.1c-.1 0-.2 0-.3-.2.2-.2.3-.3.4-.2v-.1c.1 0 .2 0 .2.1v.2zm-1-3.3c0-.3.4-.3.6-.3h.4v.2c0 .3-.4.3-.6.3h-.4v-.2zm-.4 1h.2c.2-.1.3-.1.4.1 0 .1-.1.3-.3.4-.1 0-.1.1-.2.1-.2 0-.3-.1-.3-.2 0-.2 0-.3.2-.4zm-.4 5.8h.2l-.1.2c-.1.3-.4.5-.7.5h-.2l.1-.2c.1-.4.3-.5.7-.5zm-.9-.5s.1 0 .2.1.1.3 0 .5c0 0-.2.4-.4.4h-.1v-.1c0-.1 0-.1.1-.3 0-.4 0-.6.2-.6zm-1.1-1.2l.1-.1c.1 0 .7.3.7.5v.2h-.1c-.1 0-.2-.1-.3-.2-.4-.2-.5-.3-.4-.4zm-1.4-4c0-.1.1-.2.2-.2s.1 0 .2.1l.1.1h.2v.1c0 .2-.2.3-.3.3-.3 0-.4-.2-.4-.4zm-3.9-.9H197.2c.2-.1.3-.1.4.1 0 .1-.1.3-.3.4-.1 0-.1.1-.2.1-.2 0-.3-.1-.3-.2-.1-.3-.1-.4.1-.4zm-.3 1.8c.3-.1.5 0 .6.1.1.1.1.1.2.1h.1v.1c0 .1 0 .2-.1.3-.1.1-.2.1-.4.1s-.4-.1-.5-.2c0-.2 0-.3.1-.5zm-8.6 2.9v-.1h.1c.5 0 .5.3.5.4 0 .2-.2.4-.4.4-.1 0-.1 0-.2-.1v-.6zm-8.4 24.1s0-.1.1-.2h.3v.1h.4c-.1.2-.3.2-.4.2v.1c-.2.1-.4-.1-.4-.2zm.3-11c0-.2 0-.4.2-.5.2 0 .2.2.3.3l.1.1h.2l-.1.2c-.1.3-.3.3-.4.3 0 .1-.2-.1-.3-.4zm1.1 13.6c-.2.3-.4.4-.7.4-.2 0-.3-.1-.3-.2 0-.2.3-.4.8-.4h.3l-.1.2zm4.6-14.1c-.1.1-.3.2-.4.2-.1 0-.2-.1-.2-.1 0-.1.1-.2.2-.3.3-.2.4-.2.4-.2h.1v.1c.1.2 0 .2-.1.3zm0-5.9c-.1 0-.1.1-.2.1-.2 0-.3-.1-.3-.2s0-.2.2-.3H185.6c.2-.1.3-.1.4.1-.1.1-.3.3-.4.3zm0-10.5c0-.2.2-.3.3-.3.2 0 .3.1.3.3 0 .1-.1.2-.2.2s-.1 0-.2-.1l-.1-.1h-.2.1zm-.6 1.4h.4v-.1-.3l.1.1h.1v-.1c.1.1.5.2.7.2v.1h.2c0 .2-.3.4-.8.4-.2 0-.4 0-.5-.1-.2-.1-.3-.1-.3-.2h.1zm.6 11.1v.2c-.1.1-.1.1-.2.1-.2 0-.3-.2-.4-.3-.2-.1-.3-.2-.3-.3v-.1h.1c.1 0 .8.2.8.4zm-1.4-11.7H184.5c.2-.1.3-.1.4.1 0 .1-.1.3-.3.4-.1 0-.1.1-.2.1-.2 0-.3-.1-.3-.2-.2-.2-.1-.3.1-.4zm-.7 23.4c.3-.2.4-.2.4-.2h.1v.1c0 .1 0 .2-.2.3-.1.1-.3.2-.4.2-.1 0-.2-.1-.2-.1 0-.2.2-.3.3-.3zm-1.4-23.5c0-.3.4-.3.6-.3h.4V7c0 .3-.4.3-.6.3h-.4v-.2zm-2.2-4.2c.1-.4 1.1-.5 1.4-.5h.2v.2c-.1.3-.4.3-.6.4-.3.1-.4.1-.5.3v.2l-.2-.1c-.3-.3-.3-.4-.3-.5zm-.1 18.4c.1 0 .2 0 .3.1.1.1.1.1.1.2s-.1.3-.4.3v-.1c-.1 0-.3 0-.5-.1.2-.2.3-.3.5-.3v-.1zm-6.3-13.7h.1v-.1h.1l.1.1v.1c0 .1-.4.5-.5.5V7.9s.2-.2.2-.3zM172 4.9c0-.2.2-.3.3-.3.2 0 .3.1.3.3 0 .1-.1.2-.2.2s-.1 0-.2-.1l-.1-.1h-.1zm-6.9 2c0-.3.4-.3.6-.3h.4v.2c0 .3-.4.3-.6.3h-.4v-.2zm-11.6 23.8c0-.1.1-.3.2-.3s.1 0 .2.1l.1.1h.2v.1c0 .2-.2.3-.3.3-.3 0-.4-.1-.4-.3zm1.1 1.8c0 .3-.4.3-.6.3h-.4v-.2c0-.3.4-.3.6-.3h.4v.2zm.2-2.5c0 .1-.1.3-.3.3-.1 0-.2-.1-.3-.1-.1-.1-.2-.2-.4-.1l-.2.1V30c0-.2.1-.4.4-.4.2 0 .5.2.6.2h.1l.1.2zm1.5 9.5c-.1.1-.2.1-.3.1h-.7l-.2.1v-.2c0-.3.3-.3.4-.3v-.7h.1c.3 0 .4.3.4.4.1.2.1.3.2.2h.1v.1c.1.2 0 .3 0 .3zm.7-4.1c-.1 0-.1.1-.2.1-.2 0-.3-.1-.3-.2s0-.2.2-.3H157c.2-.1.3-.1.4.1-.2.1-.3.2-.4.3zm.6-2.7c-.1.1-.2.1-.3.1h-.7l-.2.1v-.2c0-.1 0-.2.1-.3.1-.1.2-.1.3-.1h.7l.2-.1v.2c0 .1 0 .2-.1.3zm2 .1c-.2 0-.3-.1-.4-.2 0-.2.2-.4.4-.5h.2c.2.1.3.3.2.4 0 .2-.2.3-.4.3zm.4-7.1h-.2v-.2c0-.3.4-.3.6-.3h.4v.2c0 .3-.4.3-.6.3h-.2zm1.1 7.2c0 .1-.1.1-.1.2v.1h-.1-.1c-.4 0-.4-.2-.4-.2 0-.2.2-.3.4-.2.1-.1.1-.1.2-.1h.1v.2zm1.2-2.2c-.1.2-.8.4-1.3.4-.3 0-.7 0-.9-.3-.1-.1-.1-.2-.1-.4l.1-.3.2.3c.1.1.3.2.4.2.2 0 .4-.1.5-.1v-.1c.2 0 .3-.1.3-.1.1 0 .1-.1.2-.1s.2.1.5.5h.1zm1.1-4.5c0 .2-.1.3-.3.3-.1 0-.2-.1-.3-.2-.1-.1-.1-.3-.1-.5v-.2h.2c.4.2.5.4.5.6zm-.5-13.6c0-.3.4-.3.6-.3h.4v.2c0 .3-.4.3-.6.3h-.4v-.2zm-.2.6c0-.1.1-.3.3-.3.1 0 .2.1.3.1.2.1.4.2.5.1l.3-.1-.1.3c-.1.2-.2.5-.4.5-.1 0-.2-.1-.3-.2-.1-.1-.3-.2-.5-.2h-.2l.1-.2zm-.9 13.5c.4-.2.7-.1.8 0 .1.1.2.1.4.1h.1v.1c0 .1 0 .1-.1.2-.1.2-.4.2-.7.2-.3 0-.5-.1-.6-.2.1-.1 0-.2.1-.4zm-.2.3c-.1.1-.1.1-.2.1-.2 0-.3-.2-.4-.3-.3-.1-.3-.2-.3-.3v-.1h.1c.1 0 .8.3.8.5.1 0 0 .1 0 .1zm-.1-1.1c0 .1 0 .2-.1.4l-.1-.1h-.1v.1c-.1 0-.4-.1-.5-.1l-.1.2v-.3c0-.1 0-.2.1-.2.1-.1.3-.2.5-.2.1 0 .3.1.3.2zm-.9-6.1c.2 0 .3.1.3.3v.1h-.1c-.1.1-.3.2-.4.2-.1 0-.2 0-.3-.3.2-.2.4-.3.5-.3zm-1.2-16.7l.9-.1v.9h-.4c-.2 0-.3-.1-.4-.2-.1 0-.2-.3-.1-.6zm-.2 27.5c0-.1.1-.2.2-.2s.1 0 .2.1l.1.1h.2v.1c0 .2-.2.3-.3.3-.3 0-.4-.1-.4-.4zm-1-16.4s.1-.1.2-.1v.1c.1 0 .2 0 .5.2-.1.2-.2.2-.3.2v.1c-.2 0-.4-.2-.4-.4-.1 0 0-.1 0-.1zm0 17.9h-.1V32c0-.1 0-.3.2-.3.1 0 .2.1.2.1.1.1.3.2.5.1l.2-.1c-.1-.1-.2-.1-.3-.1l-.2.1v-.2c0-.2.1-.4.4-.4.2 0 .4.1.6.2h.2v.1c0 .1-.1.4-.3.4-.1 0-.2-.1-.3-.1l-.1.2c-.1.4-.5.7-.9.7-.2 0-.3-.1-.4-.2v-.1c0-.2.2-.3.3-.3zM157 6.4c0-.3.4-.3.6-.3h.4v.2c0 .3-.4.3-.6.3h-.4v-.2zm-.2 9.6h.1v-.1h.1l.1.1v.1c0 .1-.4.5-.5.5v-.2c0-.2.2-.4.2-.4zm-1.4-10.7c0-.4.3-.5.6-.5.2 0 .4.1.5.2l.1.1v.1c-.1.2-.2.5-.4.5-.1 0-.1 0-.2-.1-.1 0-.2-.1-.4-.1h-.1l-.1-.2zM151.6 4v-.1c.3 0 .6.4.6.6 0 .1 0 .1-.1.1 0 0-.1.1-.2.1v-.1c-.1 0-.3-.1-.6-.2.1-.4.2-.4.3-.4z"/><path d="M252.6 20.4L252.5 20.5 252.6 20.5z"/><path d="M268.4 27.6L268.3 27.6z"/><path d="M229.6 17.2L229.5 17.2z"/><path d="M216.5 4.9s0-.1 0 0V5c.1 0 .2 0 .5.2-.1.2-.2.2-.3.2v.1c-.1 0-.3-.1-.3-.2v.3c0 .1.1.2.6.2.2 0 .3 0 .5-.1 1.2-.2 2.7.3 3.4 1.1 1.6 2 1.3 6.6.6 10.6.1 0 .2-.1.3-.1.2 0 .4.1.5.2v.1c0 .3-.2.3-.3.3-.1 0-.3-.1-.4-.2-.1 0-.1.1-.1.2-.1.1-.1.2-.3.2-.1.4-.1.8-.2 1.2.1-.1.3-.1.3-.2l-.1-.4.3.3c0 .1.1.1.2.1.2.1.6.2.4.7v.1l-.1-.1c-.1-.1-.2-.1-.3-.2-.3-.2-.3-.2-.9.1-.1.5-.2 1-.3 1.4.2 0 .4.1.4.4 0 .3-.2.7-.6.7v.2s-.3 1.4-.6 2.7c.2.1.3.1.6.1h.1v.1c0 .1 0 .2-.1.2-.1.1-.3.2-.5.2h-.2c-.1.4-.2.8-.2 1.2-.7 3.6-1.6 7.7-2 10.1-.1.6 0 1.2.3 1.6.7.9 1.7.9 3.9.9h2.9V39h.7v.5c.3 0 .5-.1.8-.2 0 0-.1 0-.1-.1l-.1-.1.1-.1c.2-.3.2-.5.3-.7 0-.3.1-.4.3-.6-.1-.1-.2-.1-.3-.2-.2-.1-.5-.3-.6-.3 0 0-.1 0-.1.3 0 .1-.1.2-.2.2 0 0-.1 0-.1-.1-.1-.1-.1-.7-.1-.7v-.1l.1-.1c.5-.3 1-.7 2-.6h.2l-.1.2c-.2.3-.1.4-.1.4.1 0 .2-.1.4-.1h.1c.3-1.4.6-2.6.8-3.6.2-1.2.9-4 .9-4 0-.2.1-.3.1-.5l-.1-.1c-.4-.3-.4-.4-.2-1.2v-.1h.1c.1 0 .3.1.4.1 1.1-4.6 1.8-7.5 2.7-10.4 0-.1.1-.3.1-.4l-.7.3.8-.6c0-.1.1-.2.1-.3h-.1l-.1-.1h-.2-.1c-.1 0-.2-.1-.3-.1-.2-.1-.4-.2-.5-.1l-.2.1v-.2c0-.2.2-.4.5-.4s.7.2.8.3h.1c.1 0 .2 0 .2.1.7-1.7 1.7-3.1 3-4.3V11c0-.3.1-.4.1-.5 0-.1.1-.1.1-.2v-.1h.1c.2 0 .2.2.3.3.6-.5 1.2-.9 2-1.2.9-.4 2.4-.7 3.8-.7.9 0 1.8.1 2.4.4 2 .8 1.4 3.8 1.1 5.8v.2c-.3 1.6-.6 3.2-.9 4.6v.1c.1.1.1.2.1.3 0 0-.1.1-.2.1-.4 2-.8 3.8-1 5l-.1.6c0 .1 0 .2-.1.3v.2c-.2.8-.4 2.1-.7 3.6.1.1.2.1.4.2.3.2.6.5 1 .4h.3l-.2.2c-.1.1-.3.2-.4.2-.4 0-.8-.3-1.1-.6v.2c.2.1.4.1.5.2l.1.1-.1.1c-.1.1-.3.2-.6.2-.4 2.1-.8 4.4-1.1 6h.1v1h-.2-.1c0 .4.1.7.2.9.3.4 1.1.6 2.9.6h3.2c1.5 0 2-.5 2.3-2.3.2-1 .7-3.5 1.3-6.3-.1 0-.2-.1-.2-.2-.2-.4-.2-.4-.1-.5v-.1h.1c.1 0 .1 0 .2.2.1.1.1.1.1.2.6-2.9 1.4-6.1 1.8-8.2l.3-1.5c0-.1 1.6-6.8 3.3-8.7 1.5-1.7 3.9-2.9 6.3-3.3.4-.1.9-.1 1.3-.1.6 0 1.4.1 2.1.4 2 .8 1.8 4 1.5 5.3-.5 2.7-1 5.6-1.6 8.5.1 0 .1.1.2.1l.1.1-.1.1c-.1.1-.2.1-.3.1h-.1c-.1.3-.1.7-.2 1 0 .2-.1.4-.1.5l.4.4.1.1-.1.1c-.1.2-.3.2-.4.2-.1 0-.1 0-.2-.1-.3 1.3-.5 2.8-.8 4.3h.4c.1.1.1.1.1.2 0 .2-.2.3-.7.4-.4 2.2-.8 4.4-1.1 6.3-.5 2.7 2.1 2.8 4.9 2.8 1.6 0 4.3.2 5.1-2.2.1-.4.6-2.3.6-2.7.4-2.1 1.2-6 1.6-7.9 0 0-.1 0-.1-.1v-.2c.1-.1.1-.2.2-.2.4-1.9 1.3-7.2 1.6-8.8v-.1c.5-3 1.4-7.9.7-10.6-.2-.8-1-2.4-1.7-2.9-1.4-1.1-2.9-1.7-4.9-1.9-.5-.1-.9-.1-1.4-.1-4.4 0-9.6 2-12.5 4.1-.8.6-1.2.8-1.6.8-.6 0-.9-.4-1.3-1-.5-.7-1.2-1.6-2.9-2.8-.4-.3-.9-.5-1.5-.7 0 0 .1.1.1.2.2.1.2.2.2.3v.1h-.1-.1s-.1 0-.1-.1c-.1.3-.2.4-.3.4-.1 0-.3-.1-.3-.2-.1-.2-.1-.4 0-.6v-.1H250.1c-.5-.1-1.1-.2-1.7-.2 0 0 .1 0 .1.1v.6h-1.2l.1-.2c.1-.2.2-.4.4-.6h-.5c-2.5 0-5.3.5-7.4 1.4-1.1.5-2.1 1-3.1 1.5-1.6.8-2.9 1.5-3.7 1.5h-.3c-.1.1-.2.1-.3.1-.1 0-.3 0-.3-.2V6c0-.1.1-.1.1-.2-.2-.4-.4-.7-.7-1.1v.1c0 .1 0 .1-.1.1 0 0-.1 0-.2.1 0 0-.1 0-.2.1l-.5.2-.1-.2c.6-.2.8-.3.9-.3h.1c-.1-.1-.1-.2-.2-.3l-.6.3.2-.1c-.2.1-.7-.1-.7-.4 0-.1 0-.3.3-.5.1 0 .2 0 .2.1v.2c.1.1.2.1.2.1v.1h.1V4.6l.3-.2c-2.2-2.4-5.6-2.9-7.7-2.9h-.8c-1.2.1-2.2.3-3.2.8.1 0 .3.1.5.2l.6.3-.7-.1c-.6-.1-.7-.2-.7-.3-.7.4-1.5.9-2.3 1.6-.2.4-.4.6-.5.9zm25.7 29.5c0-.2.2-.3.3-.3.2 0 .3.1.3.3v.1h-.1c-.1.1-.3.2-.4.2.1 0 0 0-.1-.3zm.7 3.9c-.1.1-.3.2-.4.2-.1 0-.2 0-.3-.3 0-.2.2-.3.3-.3.2 0 .3.1.3.3l.1.1zm.7-.8c0 .3-.2.4-.3.4-.1 0-.3-.1-.3-.2-.1-.2-.1-.4 0-.6V37h.1c.2 0 .2.2.3.3l.1.1h.1v.1zM277 7.9h.7v.7h-.7v-.7zm-2 20.7v-.2c.1 0 .3-.2.3-.3h.1V28h.1l.1.1v.1c-.1.1-.4.4-.6.4zm.9-.9c-.1.1-.3.2-.4.2-.1 0-.2 0-.3-.3 0-.2.2-.3.3-.3.2 0 .3.1.3.3l.1.1zm.5-2.3c0 .2-.2.3-.3.3-.2 0-.3-.1-.3-.3 0-.1.1-.2.2-.2s.1 0 .2.1l.1.1h.2-.1zm-.6-7.2c.3-.2.4-.2.4-.2h.1v.1c0 .1 0 .2-.2.3-.1.1-.3.2-.4.2-.1 0-.2-.1-.2-.1 0-.1.2-.2.3-.3zm-.8 2c.1-.2.3-.2.6-.2h.1v.1c0 .3-.2.3-.4.3.1.2.2.2.4.2h.2v.2c-.1.3-.4.3-.6.3h-.5V21c0-.4 0-.7.2-.8zm-.2 5c0-.3.4-.3.6-.3h.4v.2c0 .3-.4.3-.6.3h-.4v-.2zm-6.3 11.4c0 .3-.4.3-.6.3h-.4v-.2c0-.3.4-.3.6-.3h.4v.2zm.4-.6c0 .1-.1.3-.3.3-.1 0-.2-.1-.4-.3-.1-.1-.2-.3-.3-.3h-.2l.1-.2c0-.1.1-.3.4-.3.2 0 .3.2.5.4.1.1.2.2.2.3h.1l-.1.1zm-.3-8.2v.1c-.1 0-.2 0-.3-.1-.1-.1-.1-.2-.1-.3 0-.1.1-.3.3-.3v.1c.1 0 .2 0 .5.2-.1.3-.2.3-.4.3zm.9-.8c-.1.1-.3.2-.4.2-.1 0-.2-.1-.2-.1 0-.1.1-.2.2-.3.3-.2.4-.2.4-.2h.1v.1c.1.1 0 .2-.1.3zm.3-3.6c0 .3-.4.3-.6.3h-.4v-.2c0-.3.4-.3.6-.3h.4v.2zm2.8 8.6c-.1.3-.2.4-.3.4-.1 0-.3-.1-.3-.2-.1-.2-.1-.4 0-.6v-.1h.1c.2 0 .2.2.3.3l.1.1h.1v.1zm.5-.5c-.2.4-.3.4-.3.4v-.1c-.1-.2.1-.3.2-.4.1-.1.1-.3.1-.3h.1V31h.1v.1c0 .1-.2.4-.2.4zm.8-18.3V13c.1 0 .3-.2.3-.3h.1v-.1h.1l.1.1v.1c-.1 0-.4.4-.6.4zm.7-1.8v.1c0 .1 0 .2-.1.2-.1.1-.3.2-.5.2-.3 0-.5-.1-.6-.2 0-.1-.1-.2 0-.4v-.1h.1c.2 0 .4.1.5.1.1.1.2.1.4.1h.2zm-.4-1.6h.1v.1c0 .2-.5.6-.7.6h-.1c-.1 0-.1-.1-.2-.1-.1-.2.5-.5.6-.6h.3zm-1.2-.3c.1-.1.2-.1.4-.1v.1h.4c-.1.2-.3.2-.4.2v.1c-.2 0-.4-.1-.4-.3 0 .1 0 0 0 0zm-.2 9.4v-.2h.7v.7h-.7v-.2c-.1.3-.4.5-.7.5h-.2l.1-.2c.1-.3.4-.5.7-.5l.1-.1zm-1.3-9.2c0-.3.4-.3.6-.3h.4v.2c0 .3-.4.3-.6.3h-.4v-.2zm-.1 9.9c.3 0 .3.2.4.3l.1.1h.2l-.1.2c-.1.3-.3.3-.4.3-.2 0-.4-.2-.5-.4 0-.3.1-.4.3-.5zm0 7h.2v.2c0 .3-.2.6-.8.6h-.5l.1-.2c.2-.4.5-.6 1-.6zm-1.3-8.3c.2 0 .3.1.3.3 0 .1-.1.2-.2.2s-.1 0-.2-.1l-.1-.1h-.2v-.1c.1-.1.2-.2.4-.2zm-.3-1.8h-.7v-.7h.7v.7zm-1.4-1.9c0-.3.4-.3.6-.3h.4v.2c0 .3-.4.3-.6.3h-.4v-.2zm-1.5-12h.1v-.1h.1l.1.1v.1c0 .1-.4.5-.5.5V2.9c0-.1.2-.3.2-.3zm-3.3 2.3c0-.1.1-.3.3-.3.1 0 .2.1.3.1.1.1.2.2.4.1l.2-.1v.2c0 .2-.1.4-.4.4-.2 0-.4-.1-.6-.2h-.1l-.1-.2zm-1.3 2.3h.7v.7h-.7v-.7zm-.9-1v-.1h.1c.5.1.5.4.5.5 0 .2-.2.4-.4.4-.1 0-.1 0-.2-.1 0-.1-.1-.3 0-.7zM259.9 5c.3-.2.4-.2.4-.2h.1v.1c0 .1 0 .2-.2.3-.1.1-.3.2-.4.2-.1 0-.2-.1-.2-.1l.3-.3zm-1.5 4.4h.2c.2-.1.3-.1.4.1 0 .1-.1.3-.3.4-.1 0-.1.1-.2.1-.2 0-.3-.1-.3-.2 0-.2 0-.3.2-.4zm-3.6 2.4h.1v-.1h.1l.1.1v.1c0 .1-.4.5-.5.5v-.2c0-.1.2-.3.2-.4zm-1.3-5.4c0-.2.2-.3.3-.3.2 0 .3.1.3.3v.1h-.1c-.1.1-.3.2-.4.2 0 0-.1 0-.1-.3zM245 34v.1c-.2 0-.4-.1-.4-.3 0-.1 0-.1.1-.1.1-.1.2-.1.4-.1v.1h.4c-.2.2-.4.3-.5.3zm.9-10c.1 0 .3-.2.3-.3h.1v-.1h.1l.1.1v.1c0 .1-.4.5-.5.5v-.1l-.1-.2zm1.2 13.7c0 .3-.4.3-.6.3h-.4v-.2c0-.3.4-.3.6-.3h.4v.2zm.2-8.7c-.1.1-.3.2-.4.2-.1 0-.2 0-.3-.3 0-.2.2-.3.3-.3.2 0 .3.1.3.3l.1.1zm.1 1.1h.1c.2.1.3.3.2.4-.1.2-.3.2-.4.2-.2 0-.3-.1-.4-.2 0-.1.3-.3.5-.4zm.8 8.1c0 .2-.2.3-.3.3-.2 0-.3-.1-.3-.3 0-.1.1-.2.2-.2s.1 0 .2.1l.1.1h.2-.1zm.2-5.3c0 .3-.3.3-.4.3h-.1l-.1.2V33.7h-.1c-.3 0-.3-.4-.3-.6V32.8h1.2l-.2.1zm.5-5.5c0 .1-.1.2-.2.2s-.1 0-.2-.1l-.1-.1h-.2v-.1c0-.2.2-.3.3-.3.2.1.4.2.4.4zm1.7 4.9c-.1 0-.1.1-.2.1-.2 0-.3-.1-.3-.2s0-.2.2-.3H250.6c.2-.1.3-.1.4.1-.2.1-.3.3-.4.3zm1.5-16v-.1h-.1c-.4-.2.2-.1.2-.4 0-.1 0-.1.1-.1l.1-.1v-.1s.2 0 .2.3c0 .2-.1.4-.2.5h-.3zm-.1-2.1c-.1-.1-.2-.3-.1-.5v-.4l.2.4.2.2c.2.3.5.5.4.7-.1.2-.3.2-.3.2H252.1v-.1c0-.3 0-.3-.1-.5zm.8 6.7c-.2 0-.4-.2-.4-.4s.1-.3.2-.3v.1c.1 0 .2 0 .4.2-.1.1-.2.2-.3.2v.2h.1zm.4-9.1l-.1.1h-.1v-.1h-.1s0-.1-.1-.1c0 0-.1-.1-.2-.1 0 0-.4-.3-.2-.4v-.1c.3-.1.8.5.8.7zm-1-7.4h.1c.2.1.3.3.2.4-.1.2-.3.2-.4.2-.2 0-.3-.1-.4-.2 0-.2.3-.3.5-.4zm0 1.7h.1c.2.1.3.3.2.4-.1.2-.3.2-.4.2-.2 0-.3-.1-.4-.2 0-.1.3-.3.5-.4zm-1.4 6.9c0-.3.4-.3.6-.3h.4v.2c0 .3-.4.3-.6.3h-.4V13zm0 7.7l.1-.1c.2 0 .3.2.3.4 0 .1-.1.2-.1.2h.4v.1c0 .2-.2.2-.3.3l-.1.1v.1h-.1c-.1.1-.2.1-.2.1-.2 0-.3-.1-.4-.3-.1-.1-.2-.2-.3-.2-.2 0-.3.1-.4.2-.1.1-.1.2-.3.2h-.2l.1.1v.1c-.1.2-.2.4-.3.4-.2 0-.2-.2-.3-.4 0-.1-.1-.3-.1-.3h-.3l.2-.2c.4-.5.9-.5 1.5-.6.3.1.7.1.8-.2zm-1.2-9.2c-.2.2-.3.2-.4.2v.1c-.2 0-.3-.1-.3-.3 0-.1 0-.2.1-.2.1-.1.1-.1.2-.1v.1c.2.1.3.1.4.2zm.3 5.9s.1 0 .1.1c.1.1.1.3.1.4 0 .2-.1.3-.2.3 0 0-.1 0-.1-.1-.1-.1-.1-.3-.1-.4 0-.2.1-.3.2-.3zm-1.3-7.7c.1-.1.2-.1.5-.1v.1h.5c-.2.2-.4.2-.6.2v.1c-.3 0-.5-.1-.5-.3.1.1.1 0 .1 0zm-.6 2.8h.2c.2-.1.3-.1.4.1 0 .1-.1.3-.3.4-.1 0-.1.1-.2.1-.2 0-.3-.1-.3-.2 0-.2.1-.3.2-.4zm-.1 11.4c.1.1.1.3.1.4v.1h-.9v-.7h.1c.3 0 .5 0 .7.2zm-1-7.6c0-.1.1-.2.2-.2s.1 0 .2.1l.1.1h.2v.1c0 .2-.2.3-.3.3-.3 0-.4-.2-.4-.4zm0 6l-.1.1c-.1.1-.3.2-.4.2-.1 0-.2 0-.3-.3 0-.2.2-.3.3-.3.3 0 .5.1.5.3zm-.6-1.9h.2v.2c0 .3-.4.3-.6.3h-.4v-.2c0-.3.4-.3.6-.3h.2zm-1.5-12.3h.2v.1c0 .2-.2.3-.3.3-.2 0-.3-.1-.3-.3 0-.1.1-.2.2-.2s.1 0 .2.1c-.1 0-.1 0 0 0zm-1.9-3c0-.2.2-.2.2-.2.1 0 .1 0 .2.1v-.1V4.6h.1c.3 0 .4.2.5.3.1.2.2.2.4.2h.2c.1.1.1.2.1.2 0 .1-.2.1-.4.1-.4 0-1.1-.1-1.2-.2h-.1v-.1zm-3.1 3.5c0-.3.4-.3.6-.3h.4v.2c0 .3-.4.3-.6.3h-.4v-.2zm-2.2.2c.2.1.2.4.2.6V9.7l-.2-.1c-.4-.1-.5-.4-.5-.8v-.1h-.2v-.1c0-.3-.1-.3-.1-.3h-.1v-.1c.1-.3.4-.3.6-.3h.7l-.1.2c-.1.2-.2.3-.2.6l-.1.1zm-.1-3.1h.3l-.2.2c-.2.3-.4.4-.7.4-.2 0-.3-.1-.3-.2.1-.2.4-.4.9-.4zm-15.2 2.9h-.2v-.2c0-.3.4-.3.6-.3h.4v.2c0 .3-.4.3-.6.3h-.2zm-.3 12.7h.1v-.1h.1l.1.1v.1c0 .1-.4.5-.5.5v-.2c-.1-.2.1-.4.2-.4zm-.3.8c.1-.2.2-.3.5-.3s.6.1.7.4c.1.1.1.3.1.5H223.3v.1c0 .1 0 .3-.1.3-.1.1-.3.2-.5.2s-.3.1-.3.2v.2l-.2-.1c-.3-.1-.3-.3-.3-.4.1-.2.4-.5.8-.5-.1 0-.2-.1-.3-.2-.2-.1-.3-.2-.6-.2h-.2l.1-.2zm2.3-.8c-.2.1-.2.1-.2.2v.2l-.2-.1c-.2-.1-.3-.2-.3-.4 0-.3.4-.5.8-.5.1 0 .2 0 .3.1h.1v.1c-.1.2-.4.3-.5.4zm.4 5.3h.2v.2c-.1.5-.4.7-.7.7-.2 0-.3-.1-.3-.3 0-.1 0-.4.8-.6zm-1.5-2.4l-.1.2c-.1.3-.4.5-.7.5h-.2l.1-.2c.1-.3.4-.5.7-.5h.2zm-1.9 9.4h.7l.2-.1v.2c0 .1 0 .2-.1.3-.1.1-.2.1-.3.1h-.7l-.2.1V34c0-.1 0-.2.1-.3.1-.1.2-.1.3-.1zm-2.1-2.9c0-.2.2-.3.3-.3.2 0 .3.1.3.3 0 .1-.1.2-.2.2s-.1 0-.2-.1l-.1-.1h-.2.1zm.6 5.8c-.1.1-.3.2-.5.2-.3 0-.7-.1-.7-.2-.1-.1-.1-.2-.1-.3.1-.2.3-.3.6-.3.2 0 .5.1.7.4v.2zm.5-3.9v.2h-1.2l.2-.3c.2-.3.4-.7.9-.6h.1v.5c.1-.3.4-.5.7-.5h.2l-.1.2c-.1.3-.4.5-.7.5h-.1zm1.6 3.5h-1l-.3.1.1-.2c.1-.3.3-.4.6-.4h.5c.2 0 .4 0 .5-.1l.1-.1v.1c0 .2 0 .3-.1.5 0 .1-.2.1-.4.1zm1.6.6c-.2.1-.2.4-.3.8 0 .4-.1 1-.7 1h-.1v-.1c0-.4.1-.7.2-.9.1-.3.2-.5 0-1v-.2h.8V36.6h.5l-.4.1zm.6-8.6h-.4v-.2c0-.3.4-.3.6-.3h.4v.2c-.1.3-.4.3-.6.3zm1.4 7.3c-.2.3-.7.5-.8.5-.1 0-.1-.1-.2-.1 0-.1 0-.2.6-.5l.1-.1c.2-.1.2-.1.3-.1h.1v.1c.1 0 0 0-.1.2zm.8-9h-.4v-.2c0-.4.3-.5.6-.5.2 0 .4.1.5.2h.1v.1c-.1.3-.4.3-.6.3l-.2.1zm2.7.4c-.1 0-.1.1-.2.1-.2 0-.3-.1-.5-.2s-.4-.2-.6-.2c-.1 0-.3 0-.5.1l-.4.2.2-.4c.2-.4.7-.6 1.4-.5.1.1.1.2.2.3.1.2.1.3.2.3l.3.1-.1.2zm-1.4-12.3h.2c.2-.1.3-.1.4.1 0 .1-.1.3-.3.4-.1 0-.1.1-.2.1-.2 0-.3-.1-.3-.2 0-.2 0-.4.2-.4zm-.7-2.2v-.7h.7v.7h-.7zm1 7.3c.5.2.6.4.6.6 0 .1-.1.2-.2.2s-.4 0-.5-.7l-.1-.2.2.1zm1.6.6c-.1.1-.3.1-.3.2l-.1-.1v.1h-.1c-.3-.1-.3-.3-.2-.3 0-.2.4-.5.7-.5.2 0 .3.1.4.2.1.2 0 .2-.4.4zm4.3-5.8c0 .3-.4.3-.6.3h-.4v-.2c0-.3.4-.3.6-.3h.4v.2zm2-6.1h.1v.1c0 .6-.7.8-1 .8-.2 0-.2-.1-.2-.2 0-.2.6-.6 1.1-.7zm-3 2.6c.1-.1.1-.1.2-.1v.1c.1 0 .2 0 .3.1 0-.1 0-.2.2-.3h.2c.2-.1.3-.1.4.1 0 .1-.1.3-.3.4-.1 0-.1.1-.2.1s-.2-.1-.3-.1c-.1.2-.3.2-.3.2v.1c-.2 0-.3-.1-.3-.3.1-.2.1-.2.1-.3zm-1 1.5c.1 0 .1-.1 0-.1l-.1-.1.1-.1c.1-.2.3-.2.4-.2.3 0 .3.4.4.7v.2l.1-.1v.2c0 .2-.2.2-.2.2-.1 0-.1 0-.2-.1h-.2c-.3.1-.4.1-.7.5l-.1.1-.1-.1c-.2-.2-.1-.6.1-.9.1-.2.1-.4.1-.5v-1.2l.3 1.2c-.2.2 0 .3.1.3zM230.3 8c0-.1.1-.2.2-.2s.1 0 .2.1l.1.1h.2v.1c0 .2-.2.3-.3.3-.3-.1-.4-.2-.4-.4zm-.4 2.8c.1-.3.4-.5.7-.5h.2l-.1.2c-.1.3-.4.5-.7.5h-.2l.1-.2zm-.4 6.2s.1-.1.2-.1v.1c.1 0 .2 0 .5.2-.1.2-.2.2-.3.2v.1c-.2 0-.4-.2-.4-.4V17zm-.3-13s.1 0 .1.1c.1.1.1.3.1.4 0 .2-.1.3-.2.3 0 0-.1 0-.1-.1-.1-.1-.1-.3-.1-.4 0-.3.1-.3.2-.3zm-.5 7h.4v.2c0 .3-.4.3-.6.3h-.4v-.2c0-.3.3-.3.6-.3zm-.7 0h.2v.1c0 .2-.2.3-.3.3-.2 0-.3-.1-.3-.3 0-.1.1-.2.2-.2s.1 0 .2.1c-.1-.1-.1 0 0 0zm-.3-2.9l-.1.2c-.2.5-.5.7-.7.7-.2 0-.3-.1-.3-.2s.1-.4.9-.6l.2-.1zm-.2-.9l-.1.2c-.1.3-.4.5-.7.5h-.2l.1-.2c.1-.3.4-.5.7-.5h.2zm-1.3.7c-.2 0-.3-.1-.3-.3 0-.1.1-.2.2-.2s.1 0 .2.1l.1.1h.2v.1c-.1.1-.2.2-.4.2zm.2-5.1c.1 0 .2 0 .3.1h.3c.2 0 .2.1.2.2 0 .2-.5.3-.7.3h-.3V3.7l-.2-.1c-.3-.1-.4-.3-.3-.4 0-.3.4-.4.7-.4zm-.7 14.6c.2-.2.4-.2.8-.2h.8l-.1.2c-.1.3-.5.5-.9.5-.3 0-.5-.1-.6-.2v-.3zm0 3.4c.2 0 .5 0 .7.3.1.1.1.2 0 .4v.1h-.5c-.3 0-.7 0-1-.3v-.1c-.1-.3.4-.4.8-.4zm-.9-1.2h-.7v-.7h.7v.7zm-1.1-11.2c.1-.3.4-.5.7-.5h.2l-.1.2c-.1.3-.4.5-.7.5h-.2l.1-.2zm-.4 7c-.5-.2-.6-.4-.6-.6 0-.1.1-.2.2-.2s.4 0 .5.7l.1.2-.2-.1zm-2.1-9.1c.2 0 .3-.1.5-.1.4-.1.8-.3 1.4-.3.1 0 .1-.1.1-.1h.1v.1h.2l-.2.2s-.1 0-.1.1h-.1c-.5.3-1.1.6-1.6.6-.2 0-.4-.1-.5-.2l-.2-.2.4-.1zm-2.3-1.8c.1-.1.4-.2.5-.2.3 0 .4.1.5.2 0 .1 0 .2-.1.4l-.1-.1h-.1v.1c-.1 0-.4-.1-.5-.1l-.1.2v-.3c-.2-.1-.1-.1-.1-.2z"/><path d="M226.8 38.7v.3l.3-.3c-.1-.1-.2-.1-.3 0zm.7-1.1s.1 0 0 0zm90.3-33.3c-.7.3-1.4.4-2 .4-1.3 0-2-.6-2.9-1.3-.8-.6-1.8-1.2-3.1-1.6-.7-.2-1.5-.4-2.2-.5.1.1.2.2.2.3 0 .2-.1.4-.5.4h-.1v.1c0 .3-.2.5-.5.5-.1 0-.3 0-.4-.1h-.1v-.1c-.2-.2-.4-.5-.4-.8v-.2l.2.1c.3.1.5.3.5.6.1-.1.3-.1.5-.1h.1c-.1 0-.1-.1-.2-.1v-.2c.1-.2.2-.3.3-.3-.9-.1-1.9-.2-2.8-.2-4.3 0-8.5 1.5-12 4.5-4.3 3.5-7.6 9.5-9.3 15.7.1.1.2.2.1.3 0 .1-.1.2-.3.2-.5 2.1-.8 4.2-1 6.2 0-.1.1-.2.2-.2.1-.1.3-.2.3-.3v-.2l.1.1c.2.1.3.2.3.3 0 .1-.1.2-.3.3-.3.1-.3.2-.2.3l.2.3-.3-.1c-.2-.1-.4-.2-.4-.3 0 1-.1 2 0 2.9.1 0 .2-.1.4-.1s.4-.1.5-.1l.2-.1v.2c0 .2 0 .3-.1.4-.1.2-.4.2-.6.2h-.3c0 .4.1.7.1 1.1.1.8.3 1.5.5 2.2l.1-.1v.2c0 .1 0 .1-.1.2.6 1.5 1.4 2.7 2.6 3.7H285.4V39.3c.1 0 .1.1.2.1s.1-.1.2-.1c.2 0 .3.1.3.3v.1c1.9 1.2 4.5 1.8 7.7 1.9 3.7.1 6.3-1.1 8.9-2.3l.3-.2c.8-.4 1.7-1 2.6-1.6 1.3-.9 2.4-1.6 3.1-1.6.3 0 .6.2.8.4 1.4 2.4 4.4 3.8 7.8 3.8.6 0 1.3-.1 1.9-.1 0-.1-.1-.2 0-.3 0-.1.1-.3.4-.3-.2 0-.3-.1-.3-.2-.1-.2-.1-.4 0-.6.1-.2.1-.5.1-.9v-.2h1.2v.1c-.1.5-.3.6-.4.7-.2.1-.2.2 0 .7l.1.2h-.1v.5c.3-.1.7-.2 1-.3 1.4-.5 2.7-1.3 3.8-2.3v-.2h.1c1.3-1.2 2.3-2.5 2.5-3.2v-.1c0-.1 0-.1.1-.2v-.1s0-.1-.3-.1h-.3v.3h-.7c-.1.1-.3.1-.4.2-.9.4-2.1.9-3.2.9-1.6 0-3.2-1-3.9-2.6-1-2.2-.5-4.6.1-7.1l.1-.4c-.1 0-.2-.1-.4-.3-.1-.1-.2-.3-.3-.3h-.2l.1-.2c.1-.1.2-.3.3-.3.2 0 .3.2.4.4.1.1.2.3.3.3.2-.8.6-2.3 1-4.2H320v-.2c0-.2.2-.3.3-.3.8-3.2 1.8-7.3 2.6-10.5l-.1-.1h.2v-.1c0-.2.2-.3.3-.3h.1c.7-2.6 1.1-4.5 1.1-4.5.2-.6.1-1.2-.2-1.5-.4-.4-1.3-.1-2.2.3-.8.3-1.6.6-2.3.8-.6.2-1.3.5-2 .8zm7.6 31c0-.3.4-.3.6-.3h.4v.2c0 .3-.4.3-.6.3h-.4v-.2zm-2.4.6c0-.1.1-.2.2-.2s.1 0 .2.1l.1.1h.2v.1c0 .2-.2.3-.3.3-.2 0-.4-.2-.4-.4zm-8.1-23.8c.1.1.3.2.3.2h.2l-.1.2c-.1.2-.3.3-.4.3-.2 0-.3-.1-.5-.3-.2-.1-.3-.3-.5-.2l-.3.1.1-.2c.1-.3.3-.3.4-.3.3-.1.6.1.8.2zm-7.8-7.8l.3.4-.2.2-.3-.4.2-.2zm-1.5-1.5h.7v.7h-.7v-.7zm.3 3v-.1c.2 0 .3.1.3.3 0 .1 0 .2-.1.2-.1.1-.1.1-.2.1v-.1c-.1 0-.2 0-.3-.2.1-.2.2-.2.3-.2zm-1.8-2.1h.1v-.1h.1l.1.1v.1c0 .1-.4.5-.5.5v-.2c0-.2.2-.4.2-.4zm-5.3-.4c0-.1.1-.2.2-.2s.1 0 .2.1l.1.1h.2v.1c0 .2-.2.3-.3.3-.2 0-.4-.1-.4-.4zM297 5h.1c.1 0 .6.2.8.4 0-.1 0-.2.1-.2.1-.2.4-.2.6-.2H298.9l-.1.2c-.1.3-.4.5-.7.5h-.1v-.1c-.1.1-.1.1-.2.1-.2 0-.3-.2-.4-.3-.3-.1-.4-.1-.4-.4zm-1.4 4.7c.3-.2.4-.2.4-.2h.1v.1c0 .1 0 .2-.2.3-.1.1-.3.2-.4.2-.1 0-.2-.1-.2-.1 0-.2.2-.3.3-.3zm-2.8 13.7c-.1.1-.2.2-.3.2v.1c-.2 0-.4-.2-.4-.4 0-.1 0-.1.1-.2 0-.1.1-.1.2-.1v.1c0 .1.2.1.4.3zm-3.2-14.1c0-.2.2-.3.3-.3.2 0 .3.1.3.3v.1h-.1c-.1.1-.3.2-.4.2 0 0-.1 0-.1-.3zm-.9 11.4c.2-.3.3-.3.4-.3.2 0 .3.2.4.4 0 .2-.1.4-.5.4-.1 0-.3 0-.3-.2-.1-.1-.1-.2 0-.3zm-.2 9c.1-.3.5-.5.8-.5.2 0 .4.1.5.2 0 .3-.1.4-.1.5 0 .1-.1.1-.1.2v.2l-.2-.1c-.1-.1-.1-.2-.2-.3 0-.1 0-.2-.2-.2H288.4h.1zm-4.4-4.7c0 .3-.4.3-.6.3h-.4v-.2c0-.3.4-.3.6-.3h.4v.2zm.2-2c0 .2-.2.2-.2.2-.1 0-.1 0-.2-.1-.1.1-.2.1-.3.1-.3-.1-.3-.2-.3-.3 0-.2.4-.4.7-.4.1.2.2.3.3.5zm1.3 13.4c0 .2-.3.3-.4.3-.2 0-.2.1-.2.1v.1h-.1c-.3 0-.3-.2-.3-.3 0-.2.4-.5.8-.5h.3l-.1.3zm.2-.3h-.7v-.7h.7v.7zm.7-10s-.1 0-.1-.1c0 0-.1-.1-.1-.2 0 .1-.1.2-.2.2s-.1 0-.2-.1l-.1-.1h-.2v-.1c0-.2.2-.3.3-.3.1 0 .3.1.3.2v-.1c0-.2.1-.3.2-.3 0 0 .1 0 .1.1.1.1.1.3.1.4.1.4 0 .4-.1.4zm.3-7.7c-.1 0-.2-.1-.3-.2-.1-.1-.1-.3-.1-.5v-.2h.2c.4.1.5.3.5.5 0 .3-.1.4-.3.4zm.7-2.1h-.2v-.2c0-.1.1-.2.1-.2.1-.1.1-.1.1-.2v-.2h.2c.1 0 .2.1.2.1.1.1.1.1.2.1h.2v.2c0 .1-.1.2-.1.2-.1.1-.1.1-.1.2v.2h-.2c-.1 0-.2-.1-.2-.1-.1-.1-.1-.1-.2-.1zm1 14.2c-.1.3-.2.4-.3.4-.1 0-.3-.1-.3-.2-.1-.2-.1-.4 0-.6V30h.1c.2 0 .2.2.3.3l.1.1h.1v.1zm.1 2.8c.2-.2.3-.2.4-.2V33c.2 0 .3.1.3.3 0 .1 0 .2-.1.2-.1.1-.1.1-.2.1v-.1c-.2 0-.3 0-.4-.2zm1.4 3.1c0 .3-.4.3-.6.3h-.4v-.2c0-.3.4-.3.6-.3h.4v.2zm.5-15.2l-.1.5-.1-.5s0-.1-.1-.1h-.1V21h-.1l-.1.1c-.3-.2-.3-.4-.3-.5 0-.1.2-.2.4-.2s.3.1.4.2c0 .2.1.4.1.6zm.6-5c0 .3-.4.3-.6.3h-.4v-.2c0-.3.4-.3.6-.3h.4v.2zm-.1-8.5h-.2l.1-.2c.1-.3.4-.5.7-.5h.2l-.1.2c0 .3-.3.5-.7.5zm.5 8.1h.7v.7h-.7v-.7zm.2 5.6v-.2c0-.3.4-.3.6-.3h.4v.2c0 .3-.4.3-.6.3h-.4zm.8 13.4s-.1 0 0 0c-.1.1-.1 0-.1 0l-.1.2c-.1-.1-.2-.1-.2-.3 0-.1.2-.2.4-.2h.4l-.1.1.2.2h-.5zm1.8 4.5v-.1c-.1 0-.3-.1-.6-.3.1 0 .2-.1.2-.1v-.1c.2 0 .3.1.5.2 0 .1.1.2.1.3 0 0-.1.1-.2.1zm.8-2.7c0 .3-.4.3-.6.3h-.4v-.2c0-.3.4-.3.6-.3h.4v.2zm.7 1.1v.1c-.1 0-.2 0-.3-.1-.1-.1-.1-.1-.1-.2s.1-.2.4-.2v.1h.4c0 .3-.2.3-.4.3zm0-1.4l-.1-.1c0-.1 0-.2.1-.3.1-.1.2-.1.4-.1s.4.1.5.2c0 .1.1.2 0 .4v.1h-.7v-.2-.1c-.1.1-.1.1-.2.1zm1 2.2l-.1.2c-.1-.1-.2-.1-.2-.3 0-.1.2-.2.2-.2.1-.1.4-.1.4-.1.2 0 .2.1.2.1.1.1 0 .3-.1.4l-.2-.1v.1H296.7c.1 0 .1 0 .1-.1zm.9 1.7c0 .3-.4.3-.6.3h-.4v-.2c0-.3.4-.3.6-.3h.4v.2zm-.2-4.8v-.7h.7v.7h-.7zm1.7 4.3c-.1.1-.3.2-.5.2-.4 0-.9-.2-1-.3l-.1-.1.1-.1c.2-.2.4-.2.8-.2h.7v.1c.1.1.1.3 0 .4zm.8-4.1h-.2v-.2c0-.3.4-.3.6-.3h.4v.2c0 .3-.4.3-.6.3h-.2zm1.2 3.3c-.1.1-.1.1-.2.1-.2 0-.3-.2-.4-.3-.2-.1-.3-.2-.3-.3v-.1h.1c.1 0 .8.3.8.5.1 0 .1.1 0 .1zm4.5-2.7c0 .1-.1.2-.2.2s-.1 0-.2-.1l-.1-.1h-.2v-.1c0-.2.2-.3.3-.3.2.1.4.2.4.4zm1.1-1.1c0 .2-.2.3-.3.3-.2 0-.3-.1-.3-.3 0-.1.1-.2.2-.2s.1 0 .2.1l.1.1h.2-.1zm2.8-.4c0 .3-.4.3-.6.3h-.4v-.2c0-.3.4-.3.6-.3h.4v.2zm.2-2.8h-.7v-.7h.7v.7zm0-4.3c0 .1 0 .2-.1.3 0 0-.1.1-.2.1s-.4-.1-.5-.2c0 0 0 .1-.1.1-.1.1-.2.3-.4.3H308.2v-.1-.2l.1-.1h-.2l.2-.2c.2-.3.7-.2 1.4-.1l.1.1zm.7-8.1c0 .1-.1.2-.2.2s-.1 0-.2-.1l-.1-.1h-.2v-.1c0-.2.2-.3.3-.3.2 0 .4.2.4.4zm-.2-3l.2-.1v.2c0 .1 0 .2-.1.3-.1.1-.2.1-.3.1h-.1c-.2 1.3-.5 2.6-.8 3.8-.4 1.8-.8 3.4-1.2 5-.2.6-.3 1.2-.5 1.9.1 0 .3.1.3.2s.1.2 0 .4v.1h-.4c-.1.3-.1.5-.2.8-.7 3.1-5 5.1-8.5 5.1-1.7 0-3-.5-3.9-1.3-2.9-2.9-2.6-8.5.8-16 1.2-2.5 3.5-5.9 5.4-7.6 1.3-1.1 3.1-1.8 4.8-1.8 2.2 0 3.9 1 4.5 2.6 0-.1.1-.1.2-.2.3-.2.4-.2.4-.2h.1v.1c0 .1 0 .2-.2.3-.1.1-.3.2-.4.2h-.1c0 .1.1.2.1.3.2 1 .2 2.3-.2 4.4-.1.4-.2.9-.2 1.4h.3zm.5 11.9c0-.1.1-.3.5-.3h.3c.1-.1.1-.1.2-.1h.1v.4c0 .1-.1.1-.1.2v.1h-.5c-.3-.1-.5-.2-.5-.3zm.9 3.9h-.1v-.1c0-.2 0-.3.1-.4.1-.2.4-.2.6-.2H312.6l-.1.2c-.2.4-.4.5-.8.5zm1.4 3.8h-.7v-.7h.7v.7zM313 6.6h-.2l.1-.2c.1-.3.5-.5 1-.5h.2v.2c0 .3-.2.6-.8.6-.1-.1-.2-.1-.3-.1zm1.2 31.2h-.7v-.7h.7v.7zm.2-1.7c0 .1-.1.1-.2.1s-.2-.1-.2-.2c-.4-.2-.5-.3-.5-.5 0 0 0-.2.2-.2s.4.1.6.2h.1v.1c.1.3.1.4 0 .5zm.2-19.6c-.1.1-.3.2-.4.2-.1 0-.2 0-.3-.3 0-.2.2-.3.3-.3.2 0 .3.1.3.3l.1.1zm.3.1c.1-.1.2-.1.3-.1v.1c.1 0 .3 0 .5.2-.2.1-.4.1-.5.1v.1c-.2 0-.4-.1-.4-.3l.1-.1zm1 11.1c-.1.2-.4.3-.6.3-.2 0-.3-.1-.4-.2-.1-.1-.1-.3-.1-.5l.1-.2.2.1c.1.1.2.1.2.1h.1c.1-.1.2-.1.5-.1h.1v.1c0 .2 0 .3-.1.4zm0-21.3c-.1 0-.1.1-.2.1-.2 0-.3-.1-.3-.2s0-.2.2-.3h.2c.2-.1.3-.1.4.1 0-.3.4-.3.6-.3h.4V6c0 .3-.4.3-.6.3h-.4v-.1c-.1 0-.2.1-.3.2zm1.2 25.6c0 .3-.4.3-.6.3h-.4v-.2c0-.3.4-.3.6-.3h.4v.2zm.6-21.1c-.1.1-.2.1-.3.1-.3 0-.5-.2-.6-.6 0-.1 0-.2.1-.3 0 0 .1-.1.2-.1.2 0 .7.4.7.5 0 .3-.1.3-.1.4zm.9 24.2c0 .1-.1.3-.2.3s-.1 0-.2-.1l-.1-.1h-.1v-.1c0-.2.2-.3.3-.3.2 0 .3.1.3.3zm.1-26.4s-.1 0 0 0c-.1.1-.1.2-.5.2s-1.1-.1-1.5-.4l-.4-.3h1.8v.1-.1.1l.1-.1s.3.2.4.2v.1l.1.2zm.5 1.6c-.1.1-.3.1-.4.1-.1 0-.1-.1-.2-.1 0-.1 0-.2.7-.5.3-.1.4-.1.4-.1h.1v.1c.1.1.1.2-.6.5zm1-1.9c.2-.3.5-.5 1-.5h.2v.2c0 .3-.2.6-.8.6h-.5l.1-.3z"/><path d="M292.2 23.3L292.1 23.3z"/><path d="M332.1 4.9c0 1.7 1.4 3.1 3.1 3.1h.4c0-.2.2-.3.4-.3.1 0 .3 0 .4.1 1.1-.5 1.8-1.6 1.8-2.8v-.5c-.2-.1-.3-.2-.4-.2-.1 0-.1 0-.2-.1.1.2.1.5.1.8 0 1.4-1.2 2.6-2.6 2.6-1.4 0-2.6-1.2-2.6-2.6 0-1.4 1.2-2.6 2.6-2.6 1 0 1.9.6 2.4 1.5.1 0 .4.1.6.1-.4-1.3-1.6-2.2-3-2.2-1.7-.1-3 1.3-3 3.1z"/><path d="M336.5 4.1c0-.7-.5-1.1-1.1-1.1H334v3.6h.6V5.2h.5l.9 1.4h.7l-1-1.4c.5-.1.8-.5.8-1.1zm-1.9.6V3.6h.8c.4 0 .6.2.6.6 0 .3-.2.6-.6.6h-.8v-.1zM5.7 98.4c0 .1-.1.1-.2.1s-.1 0-.2-.1l-.1-.1H5v-.1c0-.2.2-.3.3-.3.2 0 .3.1.3.2v-1.4h-.1c-.1 0-.4-.3-.4-.4-.1 0-.2-.1-.2-.1V96c.2 0 .6.3.6.3h.1v-6.8h2.6v-2.1H.7v2.1h2.6v.4h.1l-.1.1v1.3l.1.1c.1.1.2.1.2.1h.1c.1 0 .1-.1.2-.1.2.1.2.1.2.2 0 0 0 .1-.1.1l.1.1c.1.1.2.2.1.4 0 .1-.1.1-.3.1-.2 0-.6-.1-.8-.4-.1-.1-.1-.1-.1-.2v3.9h.1l.1.1h.2v.1c0 .2-.2.3-.3.3H3v3h2.4v-.7h.3zm-1.5-8.6c-.1.1-.1.1-.2.1-.2 0-.3-.2-.4-.3-.3-.1-.3-.2-.3-.3v-.1h.1c.1 0 .8.3.8.5.1 0 .1 0 0 .1zm0 7.2c-.1.1-.3.2-.4.2-.1 0-.2 0-.3-.3 0-.2.2-.3.3-.3.2 0 .3.1.3.3l.1.1zm.5.9c-.1 0-.2 0-.3-.3 0-.2.2-.3.3-.3.2 0 .3.1.3.3v.1h-.1c0 .1-.1.2-.2.2zm13.9 1.2h2.6l-2.6-8.6-.4.2.3-.4-.1-.5h-.1l.1-.2-.7-2.2h-2.8l-3.5 11.7h2.5l.5-2.1H18l.6 2.1zm-4.9-5.2c0 .2-.2.3-.3.3-.2 0-.3-.1-.3-.3 0-.1.1-.2.2-.2s.1 0 .2.1l.1.1h.2-.1zm1.2 1.1l1.3-5.1 1.3 5.1h-2.6zm18.3-1c-.2-.3-.4-.5-.7-.6-.3-.2-.5-.3-.8-.3.5-.1 1-.4 1.3-.9.4-.5.5-1.1.5-1.8 0-.4-.1-.8-.2-1.1-.1-.4-.3-.7-.6-.9-.3-.3-.6-.5-1-.6-.4-.2-.8-.2-1.4-.2h-4.8v11.7h5c.5 0 1-.1 1.4-.2.4-.2.7-.4 1-.7.3-.3.5-.6.6-1 .1-.4.2-.8.2-1.2 0-.4-.1-.7-.2-1 0-.6-.1-.9-.3-1.2zM28 89.5h1.9c.4 0 .7.1.9.4.2.2.3.6.3 1s-.1.7-.3 1c-.2.2-.5.4-.9.4H28v-2.8zm-.5 8.7c-.1 0-.2 0-.3-.2-.1-.1-.1-.3-.1-.5.1-.2.2-.3.3-.3.1 0 .2 0 .2.4.1 0 .1.5-.1.6zm3.5-1.6c-.2.3-.6.4-1 .4h-2v-2.9h2c.4 0 .8.1 1 .4.2.3.3.6.3 1 .1.5 0 .9-.3 1.1zm14.2 2.5V97h-3.9v-9.6H39v.6l.1.1h.2v.1c0 .2-.1.2-.3.3v2.3c.2 0 .2-.1.2-.1v-.2h.1c.2 0 .3.2.2.3 0 .2-.3.5-.6.6v7.8h6.3v-.1zm11.3-.1h-.1v-.1c0-.1 0-.3.2-.3.1 0 .2.1.2.1l.1.1V97h-4.4v-2.8h4.2v-2.1h-4.2v-2.6h4.4v-2.1h-6.7V98h.1c.2 0 .3.1.3.3v.1h-.1c-.1.1-.3.2-.4.2v.1c.1-.1.2-.1.4-.1s.4.1.5.2c0 .1.1.2 0 .3l5.5-.1c0 .1 0 .1 0 0 0 .1 0 0 0 0zM55 92.9c.1-.2.5-.2.7-.2.2 0 .4 0 .4.2 0 .1-.1.2-.2.2h-.1c-.1.1-.2.1-.3.1-.1 0-.2 0-.4-.1-.1-.1-.1-.2-.1-.2zm-1.7-.2c.1-.1.2-.1.4-.1v.1h.4c-.1.2-.3.2-.4.2v.1c-.2 0-.4-.1-.4-.3-.1.1-.1 0 0 0zm-2.2-1.1h-.7v-.7h.7v.7zm1.6 6.9c0 .3-.4.3-.6.3h-.4v-.2c0-.3.4-.3.6-.3h.4v.2zm3.1-.8h-.4v-.2c0-.3.4-.3.6-.3h.4v.2c0 .3-.3.3-.6.3zM50.3 99l.1.1s0-.1-.1-.1zm25.6-11.6h-7.5v2.1H71v1.4c.2 0 .3-.1.5 0 .1 0 .1-.1.1-.1h.1v.1s0 .1-.1.1c-.1.1-.4.3-.7.4V96h.1l-.1.1v3h2.4v-9.6h2.6v-2.1zm-.9 1c0 .1-.1.2-.1.3v.1h-.1c-.1 0-.2.1-.2.1-.3 0-.5-.4-.5-.6 0-.1.1-.2.1-.2.1 0 .1 0 .2.2l.3-.3v-.1h.1c.1 0 .2.1.2.1.1.3 0 .3 0 .4zm12.5 8.9H87V97h-2.2v.2h-.1-.1c-.3 0-.5-.1-.6-.3h-.8v-.8c-.2 0-.3-.2-.3-.3-.2-.1-.3-.2-.3-.3v-.1h.1c.1 0 .3.1.5.2V94h4.2v-2.1h-4.2v-2.6h4.4v-1.6l-.1-.1h-.2v-.1c0-.2.2-.3.3-.3h-6.7v9.5h.1c.2 0 .4.1.5.2.1.1.1.2.1.2 0 .1-.2.2-.5.2H81l-.1.1-.1.1v.5h.2v.1c0 .2 0 .3-.1.4 0 .1-.1.1-.2.1v.3h6.7v-1.6h.1zm-2.9-9c.1-.2.2-.3.2-.6v-.2h.2c.3.1.4.2.5.3.1.2-.1.4-.2.5h-.7zm-2.3 6.5c0 .2-.2.4-.4.4-.1 0-.1 0-.2-.1s-.1-.3-.1-.6v-.1h.1c.6 0 .6.3.6.4zm-.8-2.6v-.7h.7v.7h-.7zm.2 6.2c-.2 0-.3-.1-.4-.2 0-.2.2-.4.4-.5h.2c.2.1.3.3.2.4 0 .2-.2.3-.4.3zm1.3-1.1c-.1.2-.4.2-.6.2H82.1l.1-.2c.1-.3.4-.5.7-.5h.1v.1c.1.2.1.3 0 .4zm11.8-3.1c-.1 0-.2.1-.4.1v-.1h-.2c.3-.3.5-.4.6-.4v-1.5l4 6.9h2.2V87.5h-2.4v6.7l-.5-.8h-.7v-.2c0-.2.2-.3.4-.3l-3.1-5.5h-2.4v7.1l.1.1c0 .1.1.2 0 .4v4.1h2.4v-4.9zm5.4 1.7c.4 0 .5 0 .5.2 0 .1-.1.2-.8.3-.2-.1-.4-.1-.4-.3 0-.1 0-.2.7-.2zm-3.7-1.8c0-.1.1-.2.2-.2s.2 0 .3.1c0 0 .1 0 .2.1.1 0 .3.1.3.2s-.1.3-.6.6h-.2c-.1 0-.3-.1-.2-.2 0-.1.1-.1.2-.2-.1-.2-.2-.3-.2-.4zm-3.2.5h-.2v-.2c0-.3.4-.3.6-.3h.4v.2c0 .3-.4.3-.6.3h-.2zm.7 1.1c-.1 0-.3-.1-.4-.2-.1-.1-.1-.1-.1-.2s.1-.2.3-.2v.1c.1 0 .3 0 .6.2-.1.1-.2.1-.3.1v.2H94zm18.8-8.3v1.5h.5v.2c0 .2-.2.3-.4.3v4.7l-1.2-2.2h-.1c-.1 0-.1 0-.2-.1l-.1-.1h-.3v-.1c0-.1.1-.2.3-.3l-2.3-4h-2.4v4.8l.3-.3h.1v-.1h.1v.1s0 .1-.2.3c-.2.2-.3.2-.3.2v-.1V99h2.4v-.7h-.1v-.1c0-.1.1-.2.1-.2v-.1h-.5v-.1c-.1-.6.1-.9.5-1v-4.6l2 3.5h.5l-.3.2s0 .1-.1.1l1.8 3.1h.8c-.1-.1-.2-.1-.3-.1h-.2v-.2c0-.2.3-.3.4-.3.2 0 .2-.1.2-.1v-.2l.2.1c.2.1.2.3.2.4v.3h.9v-2.4l-.6.3c-.2.1-.4.1-.5.2h-.1c-.2 0-.3-.1-.4-.2 0-.1.1-.2.3-.3h-.2l.2-.2c.2-.3.6-.4 1.3-.5v-2.5h-.1c-.4 0-.5-.1-.6-.2h-.2v-.1c-.1 0-.1-.1 0-.1v-.1c.1 0 .5.1.9.1v-1h-.2v-.1c0-.1.1-.2.2-.3V89h-.1v.1c-.2 0-.4-.1-.4-.3 0-.1 0-.1.1-.1.1-.1.2-.1.4-.1v.1h.1v-1.4h-2.4v.1zm-4.4 1.8c0 .3-.4.3-.6.3h-.4v-.2c0-.3.4-.3.6-.3h.4v.2zm14.3 3.5c-.1-.1-.2-.1-.2-.2-.1-.1-.3-.3-.4-.3h-.1v-.1c0-.1.1-.3.2-.3s.2.1.3.2c0 .1.1.1.2.2v-4.7h-2.2c0 .1 0 .2-.1.4v.1h-.1v4.4h.4l-.1.2-.3.3c.1 0 .3-.1.4-.1h.2v.2c0 .2-.2.5-.6.5v4.6s.1 0 .1.1 0 .2-.1.3v.9h2.4v-6.7zm11.8 5.6c.3-.3.6-.7.8-1.1.1-.2.1-.4.2-.6h-.4c-.3 0-.6-.1-.9-.3v-.1c0-.1 0-.1.1-.2.1-.2.4-.2.7-.2.3 0 .5.1.6.3V95.8c0-.5-.1-1-.3-1.4-.1.2-.3.2-.4.3-.2 0-.2.1-.2.1v.1h-.1c-.3 0-.3-.2-.3-.3 0-.2.4-.5.8-.5h.3V94c-.3-.4-.6-.8-1-1.1-.4-.3-.8-.5-1.3-.7-.5-.2-.9-.4-1.3-.5-.4-.2-.7-.4-1-.6-.3-.2-.4-.5-.4-.8 0-.4.1-.7.4-.9.2-.2.6-.3 1-.3.5 0 .9.1 1.3.2.4.2.8.4 1.2.7l1.1-1.8c-.4-.4-1-.7-1.6-1-.6-.2-1.3-.3-2-.3-.6 0-1.1.1-1.6.3-.5.2-.9.4-1.2.7-.3.3-.6.7-.8 1.1-.2.4-.3.9-.3 1.3 0 .7.1 1.2.4 1.6.3.4.6.8 1 1.1.4.3.8.5 1.3.7.5.2.9.4 1.3.5.4.2.7.4 1 .6.3.2.4.5.4.8 0 .4-.1.7-.4.9-.3.3-.7.4-1.2.4-.6 0-1.1-.1-1.6-.4-.5-.2-.9-.5-1.2-.9l-1.2 1.8c.5.5 1 .8 1.7 1.1.7.3 1.4.4 2.3.4.6 0 1.2-.1 1.7-.3.3.3.7 0 1.1-.3zm-2-5.2c-.2.1-.5.2-.6.2h-.1v-.1c0-.1.1-.2.4-.3h.1c.4-.2.5-.2.6-.2h.1v.1c0 .1-.1.1-.5.3zm-3.5 4.6c-.1 0-.1 0-.2-.1 0 0-.1-.2-.2-.2H128.3v-.1c0-.1 0-.1.2-.2.5-.3.8-.3.8 0 0 .1-.2.5-.3.6zm3.8-.6l.1-.1.1.1c.2.1.4.1.6.1h.2c.2 0 .3.1.5.2h.1v.1c0 .3-.5.4-.9.4-.2 0-.5 0-.7-.3-.1-.2-.1-.3 0-.5zm180.1-5.5h-.6v-.7h.4l-1-3.5h-2.8l-3.5 11.7h2.5l.5-2.1h3.6l.3 1c.1 0 .2.1.2.3v.1h-.1-.1v.1h.1c.2 0 .4.1.5.2 0 .1.1.2 0 .3h2.1l-2.1-7.4zm-4 3.4l1.3-5.1 1.3 5.1h-2.6zm2.9-4.5h-.1-.1-.2c-.3 0-.3.1-.3.1v.3l-.2-.2c-.2-.3-.3-.4-.2-.5 0 0 .1-.1.2-.1s.4.1.6.2h.1c.2 0 .3.1.3.2h-.1zm2.1 8.3h-.4v-.2c0-.3.4-.3.6-.3h.4v.2c-.1.3-.4.3-.6.3zm8.3.3c.1.1 0 .1 0 .2h1.1-.1s-.1-.1-.2-.1c-.2 0-.5-.1-.4-.2h.1v-.1c.2 0 .7.3.7.4.4 0 .7-.1 1-.2.5-.2.9-.4 1.2-.7.3-.3.6-.7.8-1.1.2-.4.3-.9.3-1.4 0-.7-.1-1.2-.4-1.6-.3-.4-.6-.8-1-1.1-.4-.3-.8-.5-1.3-.7-.5-.2-.9-.4-1.3-.5-.4-.2-.7-.4-1-.6-.3-.2-.4-.5-.4-.8 0-.4.1-.7.4-.9.2-.2.6-.3 1-.3.5 0 .9.1 1.3.2.4.2.8.4 1.2.7l1.1-1.8c-.4-.4-1-.7-1.6-1-.6-.2-1.3-.3-2-.3-.6 0-1.1.1-1.6.3-.5.2-.9.4-1.2.7-.3.3-.6.7-.8 1.1-.2.4-.3.9-.3 1.3 0 .7.1 1.2.4 1.6.3.4.6.8 1 1.1.4.3.8.5 1.3.7.5.2.9.4 1.3.5.4.2.7.4 1 .6.3.2.4.5.4.8 0 .4-.1.7-.4.9-.2.2-.6.3-1 .4.1 0 .2 0 .5.2-.1.2-.2.2-.3.2v.1c-.2 0-.4-.2-.4-.4v-.1c-.5 0-1.1-.1-1.5-.3-.5-.2-.9-.5-1.2-.9l-1.2 1.8c.5.5 1 .8 1.7 1.1.4.2.9.3 1.3.3.3-.1.4-.1.5-.1zm2.7-2.8l.1-.1c.1 0 .1 0 .2.2.1.1.2.3.2.5v.1h-.1c-.1 0-.2-.1-.2-.2-.3-.4-.3-.4-.2-.5zm-.2-8c.1-.1.2-.1.4-.1s.5.1.8.2c.2 0 .3.1.4.1h.2v.1c0 .2-.2.3-.3.3-.2 0-.3-.1-.3-.2-.2-.1-.4.1-.6.2-.1.1-.2.2-.3.2-.2 0-.2-.2-.2-.3-.3-.2-.2-.4-.1-.5z"/><path d="M322.8 97.3L322.6 97.3z"/><path d="M338.3 98.3c.3-.3.6-.7.8-1.1.2-.4.3-.9.3-1.4 0-.7-.1-1.2-.4-1.6-.3-.4-.6-.8-1-1.1-.4-.3-.8-.5-1.3-.7-.5-.2-.9-.4-1.3-.5-.4-.2-.7-.4-1-.6-.3-.2-.4-.5-.4-.8 0-.4.1-.7.4-.9.2-.2.6-.3 1-.3.5 0 .9.1 1.3.2.4.2.8.4 1.2.7l1.1-1.8c-.4-.4-1-.7-1.6-1-.6-.2-1.3-.3-2-.3-.6 0-1.1.1-1.6.3-.5.2-.9.4-1.2.7-.3.3-.6.7-.8 1.1-.2.4-.3.9-.3 1.3v.4c.1 0 .1.1.2.1.2 0 .3-.1.5-.1.2-.1.5-.2.8-.1.1 0 .1-.1.1-.1h.1v.1s0 .1-.1.1c-.3.3-1.1.7-1.5.7.1.2.1.3.2.5.3.4.6.8 1 1.1.4.3.8.5 1.3.7.5.2.9.4 1.3.5.4.2.7.4 1 .6.3.2.4.5.4.8 0 .4-.1.7-.4.9-.3.3-.7.4-1.2.4-.6 0-1.1-.1-1.6-.4-.4-.2-.7-.4-1-.7-.1.1-.2.2-.3.1v.1c-.1 0-.1 0-.2-.1l-.9 1.4c.5.5 1 .8 1.7 1.1.7.3 1.4.4 2.3.4.6 0 1.2-.1 1.7-.3.7.2 1.1-.1 1.4-.4zM336 88.2c.1 0 .1 0 .2.2l.3-.3V88h.1c.1 0 .2.1.2.1v.3c0 .1-.1.2-.1.3v.1h-.1c-.1 0-.2.1-.2.1-.3 0-.5-.4-.5-.6-.1 0 0-.1.1-.1zm18.1 2.6c-.2-.7-.5-1.4-1-1.9-.4-.5-.9-1-1.5-1.3-.4-.2-.9-.4-1.5-.4 0 .1-.1.2-.2.2s-.1 0-.2-.1l-.1-.1h-.2v-.1c-.7 0-1.4.2-2 .5-.1.1-.2.1-.3.2.1.2-.1.4-.2.5h-.6l-.4.4c-.4.5-.7 1.2-1 1.9-.2.7-.3 1.5-.3 2.4 0 .9.1 1.7.3 2.4v.1c.1.1.2.2.3.2v.2h-.1c.2.5.4 1 .8 1.4.4.5.9 1 1.5 1.3.6.3 1.3.5 2 .5.8 0 1.5-.2 2.1-.5.4-.2.8-.5 1.1-.8-.1 0-.3-.1-.4-.1l-.1.1v-.3c0-.1 0-.2.1-.2.1-.1.3-.2.5-.2s.4.1.5.2l.1-.1c.4-.5.7-1.2 1-1.9.1-.2.1-.4.1-.6h-.6v-.2-.1h-.2v-.1c0-.1 0-.2.1-.3.1-.1.2-.1.4-.1s.4.1.5.2c.1-.4.1-.9.1-1.3-.3-.4-.4-1.2-.6-2zm-7.5 6.5h-.1-.1c-.3 0-.5-.1-.6-.3-.1-.2 0-.4.2-.6l.1-.1h.1c.4.1.5.4.5.8l-.1.2zm-.3-.9c-.2 0-.3-.1-.4-.2 0-.2.2-.4.4-.5h.2c.2.1.3.3.2.4 0 .2-.2.3-.4.3zm4.1-7.7l.2.2c.1.1.4.2.6.2.3 0 .6.1.7.3v.1c0 .2-.2.3-.5.3s-.8-.1-1-.4c-.1-.1-.1-.2-.1-.4l.1-.3zm-1.4-1c0-.2.2-.3.3-.3.2 0 .3.1.3.3 0 .1-.1.2-.2.2s-.1 0-.2-.1l-.1-.1h-.1zm2.8 7.1c-.1.5-.3.9-.5 1.3s-.5.6-.8.8c-.3.2-.7.3-1.1.3h-.1v.1h-.7v-.2c-.1 0-.2-.1-.3-.1-.3-.2-.6-.5-.8-.8-.2-.4-.4-.8-.5-1.3-.1-.5-.2-1-.2-1.6 0-.6.1-1.1.2-1.6s.3-.9.5-1.3.5-.6.8-.8c.3-.2.7-.3 1.1-.3.4 0 .8.1 1.1.3.3.2.6.5.8.8.1.2.2.3.3.5.1 0 .1.1.2.2v.3c0 .1.1.2.1.3.1.5.2 1 .2 1.6-.1.5-.1 1-.3 1.5zm1.7.3c.2 0 .3.1.3.3 0 .1-.1.2-.2.2s-.1 0-.2-.1l-.1-.1h-.2v-.1c.1-.1.3-.2.4-.2zm8.8-7.5c-.6.3-1.1.7-1.6 1.3-.4.5-.8 1.2-1 1.9-.2.7-.3 1.4-.3 2.2.1-.1.3-.1.5-.1h.4v.2c0 .3-.4.3-.6.3h-.2c0 .9.1 1.7.3 2.4.2.7.6 1.4 1 1.9s.9.9 1.6 1.2c.6.3 1.3.4 2.1.4.6 0 1.1-.1 1.5-.3.4-.2.8-.4 1.1-.7.3-.3.6-.6.8-.9.2-.3.4-.7.5-1.1l-1.9-.8c-.2.5-.4.9-.7 1.2-.3.3-.7.5-1.2.5-.4 0-.8-.1-1.1-.3-.3-.2-.6-.5-.8-.8-.2-.4-.4-.8-.5-1.3-.1-.5-.2-1-.2-1.6 0-.6.1-1.1.2-1.6s.3-.9.5-1.3.5-.6.8-.8c.3-.2.7-.3 1.1-.3.5 0 .9.1 1.2.4.3.3.6.7.8 1.1l1.9-.9c-.2-.3-.3-.7-.6-1-.2-.3-.5-.6-.8-.9-.3-.3-.7-.5-1.1-.6-.4-.2-.9-.2-1.5-.2-.9.1-1.6.2-2.2.5zm2.5 11.1c0-.2.2-.3.3-.3.2 0 .3.1.3.3v.1h-.1c-.1.1-.3.2-.4.2.1 0 0 0-.1-.3zm-2.8-2.8c.4 0 .5 0 .5.2 0 .1-.1.2-.8.3-.2-.1-.4-.1-.4-.3-.1-.1 0-.2.7-.2zm4.2-6.9c.1-.3.4-.5.7-.5h.1v.1c0 .2 0 .3-.1.4-.1.2-.4.2-.6.2h-.3l.2-.2zm9.6 8.3c-.3 0-.4 0-.5-.2 0-.1.1-.2.3-.3h-.2l.2-.2c.1-.1.2-.2.3-.2v-9h-2.4v11.7h1.9s-.1-.1-.2-.1h-.4v-.2c0-.2.3-.3.4-.3.2 0 .2-.1.2-.1v-.2l.2.1.1.1.1-1.1c.1-.1.1-.1 0 0zM375 89c0 .3-.4.3-.6.3h-.4v-.2c0-.3.4-.3.6-.3h.4v.2zm9.6 8h3.6l.5 2.1h1.8c0-.1.1-.1.1-.2v-.2h.2c.1 0 .2.1.2.1.1.1.1.1.2.1h.1l-.4-1.4-.1.1c-.1 0-.1 0-.2-.1 0 0-.1-.2-.2-.2H390.1v-.1c0-.1 0-.1.2-.2s.3-.2.4-.2l-.8-2.6c-.3-.1-.6-.3-.8-.5l-.2-.2h.8l-.6-2h-.7v-.2c0-.3.3-.3.6-.3l-1.1-3.7h-1.6v.1c0 .1-.1.2-.2.2s-.2-.1-.2-.2-.1-.1-.1-.2h-.8l-3.1 10.5c.2-.1.3-.1.4.1 0 .1-.1.3-.3.4-.1 0-.1.1-.2.1l-.2.7h2.5l.5-2zm1.8-7.1l1.3 5.1H385l1.4-5.1zm-2.7 2.3v-.1c0-.1.1-.3.2-.3s.2.1.3.2c.2.2.3.4.6.2l.3-.1-.1.3c-.1.2-.2.5-.4.5s-.3-.1-.5-.3c-.1-.1-.3-.3-.4-.3v-.1zm18.6-4.8h-3.9-.1-3.5v2.1h2.6v9.6h2.4v-9.6h2.6v-2.1h-.1zm-2.4.3c-.1.3-.3.5-.6.5-.2 0-.4-.1-.6-.1-.1 0-.2-.1-.3-.1h-.2l.1-.2c.1-.2.3-.3.5-.3.1 0 .2 0 .3.1.2.1.4.1.6 0l.3-.2-.1.3zm8.9-.1c.2.2.2.5.1.8l-.1.2-.1-.1c-.2-.1-.3-.3-.5-.5-.1-.2-.3-.3-.4-.4l-.1-.1v-.1h-.3v7.1c.2.1.5.3.5.6 0 .1 0 .1-.1.2s-.2.1-.4.1v3.8h2.4v-3.9s-.1 0-.1-.1c-.2 0-.5-.1-.4-.2h.1v-.1c.1 0 .2.1.4.1v-2.5c-.1 0-.2-.1-.3-.1-.1 0-.1-.1-.2-.1h-.2l.1-.2c.1-.2.2-.3.3-.3.1 0 .2 0 .3.1v-4.5h-1.4c.2.1.3.1.4.2z"/><path d="M407.5 94.8v.3c.1-.2.1-.3 0-.3zm16.1-2.2l-.1.1v.1s0-.1.1-.2z"/><path d="M425.6 94.7c0-.1.1-.2.2-.3.1-.4.1-.8.1-1.2 0-.9-.1-1.7-.3-2.4-.2-.7-.5-1.4-1-1.9-.1-.1-.2-.2-.2-.3v.1c0 .3-.4.3-.6.3h-.4v-.2c0-.3.3-.3.6-.3H424.3c-.4-.4-.8-.7-1.3-1-.6-.3-1.3-.5-2.1-.5s-1.4.2-2 .5c-.6.3-1.1.7-1.5 1.3-.4.5-.7 1.2-1 1.9 0 .2-.1.3-.1.5 0 .1 0 .2-.1.2-.1.5-.2 1.1-.2 1.6 0 .9.1 1.7.3 2.4.2.7.5 1.4 1 1.9.4.5.9 1 1.5 1.3.6.3 1.3.5 2 .5.8 0 1.5-.2 2.1-.5.6-.3 1.1-.7 1.5-1.3.4-.5.7-1.2 1-1.9.1-.2.1-.5.2-.7.1.2 0 .2 0 0zm-8.6-2.6c-.1 0-.3-.1-.4-.2-.1-.1-.1-.1-.1-.2s.1-.2.3-.2v.1c.1 0 .3 0 .6.2-.1.1-.2.1-.3.1v.2h-.1zm.8-.1l-.6-.3c-.1 0-.1-.1-.1-.1l-.3-.3.2.1v-.1c0-.2 0-.3.1-.3.1-.1.2-.1.3 0h.1c0-.1 0-.2.1-.2.1-.1.2 0 .3.1.1.1 0 .3-.2.6-.1.1-.1.2-.2.3l.3.2zm.3-2.1c0-.2.2-.3 1.4-.6h.1l.1.1v.1c0 .2-.7.6-1.1.6-.2 0-.4 0-.5-.2zm5.5 7.3c-.1.5-.4.9-.9.9-.2 0-.3-.1-.5-.2l-.1-.1v-.1c.2-.5.7-.7 1.2-.7h.2l.1.2zm.7-3.9c-.1.1-.3.1-.6.2h-.2c0 .5-.1.9-.2 1.4-.1.5-.3.9-.5 1.3s-.5.6-.8.8c-.3.2-.7.3-1.1.3-.4 0-.8-.1-1.1-.3-.3-.2-.6-.5-.8-.8-.2-.4-.4-.8-.5-1.3-.1-.5-.2-1-.2-1.6 0-.6.1-1.1.2-1.6s.3-.9.5-1.3.5-.6.8-.8c.3-.2.7-.3 1.1-.3.4 0 .8.1 1.1.3.3.2.6.5.8.8.1.1.2.3.2.5 0-.1.1-.2.2-.2h.2c0-.1 0-.2.1-.2.2-.1.3 0 .4.2 0 .2-.4.7-.5.7h-.1-.1c0 .1.1.2.1.4s.1.3.1.5c.4 0 .9.6.9 1zm1 .2c-.3 0-.4-.3-.5-.5v-.1l-.1-.1.1-.1c.1-.1.2-.2.3-.2.3 0 .4.3.5.5v.1l.1.1-.1.1c-.1.1-.2.2-.3.2zm14.6 5.6V87.4h-2.4v6.7l-3.8-6.7h-.7c-.1.1-.3.1-.4.1h-.3l.1.1c.1.1.2.2.3.2.1 0 .3 0 .5-.1.2 0 .3-.1.4-.1.2 0 .3.1.4.3 0 .2 0 .3-.1.4-.1.1-.3.2-.5.2h-.4c.1 0 .1.1.2.4 0 .1 0 .5-.2.6-.1 0-.2 0-.2-.2-.1-.1-.1-.3-.1-.5.1-.2.2-.3.3-.3-.3-.1-.5-.2-.6-.4-.1-.1-.1-.2-.1-.4v-.2h-.9v11.7h2.4v-6.9l1.2 2.1h.1l.2.3c.1-.2.2-.3.4-.3s.4.2.6.4l.2.2c.2.1.5 0 .7.2.1.1.1.3 0 .4v.1h-.1c-.1 0-.3-.1-.4-.2-.2-.1-.4-.2-.5-.2-.1 0-.1 0-.2.2v.1H435.7l2.2 3.8h2v-.3zm-8.2-10.6v-.1c-.1-.2.1-.3.2-.4.1-.1.1-.3.1-.3h.1v-.1h.1l.1.1v.1c-.1-.1-.4.7-.6.7z"/></g></svg>